SplineFontDB: 3.2
FontName: MFEKSansUltraCondensed-Black
FullName: MFEK Sans Ultra Condensed Black
FamilyName: MFEK Sans Ultra Condensed
Weight: Black
Copyright: 
Version: 0.1
ItalicAngle: -13
UnderlinePosition: -200
UnderlineWidth: 100
Ascent: 1600
Descent: 400
InvalidEm: 0
LayerCount: 2
Layer: 0 0 "Back" 1
Layer: 1 0 "Fore" 0
XUID: [1021 31 -699969567 16487490]
FSType: 0
OS2Version: 0
OS2_WeightWidthSlopeOnly: 0
OS2_UseTypoMetrics: 1
CreationTime: 1460762150
ModificationTime: 1696880529
PfmFamily: 33
TTFWeight: 900
TTFWidth: 1
LineGap: 0
VLineGap: 0
OS2TypoAscent: 2500
OS2TypoAOffset: 0
OS2TypoDescent: -850
OS2TypoDOffset: 0
OS2TypoLinegap: 0
OS2WinAscent: 2500
OS2WinAOffset: 0
OS2WinDescent: 850
OS2WinDOffset: 0
HheadAscent: 2500
HheadAOffset: 0
HheadDescent: -850
HheadDOffset: 0
OS2CapHeight: 1500
OS2XHeight: 1040
OS2FamilyClass: 2053
OS2Vendor: 'it* '
OS2UnicodeRanges: 00000001.00000000.00000000.00000000
Lookup: 258 0 0 "kerning yeah boi" { "say cheese" [300,0,4] } ['kern' ('DFLT' <'dflt' > 'grek' <'dflt' > 'latn' <'dflt' > ) ]
MarkAttachClasses: 1
DEI: 91125
KernClass2: 30 23 "say cheese"
 73 A Agrave Aacute Acircumflex Atilde Adieresis Aring Amacron Abreve Aogonek
 96 D O Ograve Oacute Ocircumflex Otilde Odieresis Oslash Dcaron Dcroat Omacron Obreve Ohungarumlaut
 81 E AE Egrave Eacute Ecircumflex Edieresis Emacron Ebreve Edotaccent Eogonek Ecaron
 1 F
 39 G Gcircumflex Gbreve Gdotaccent uni0122
 104 J U Ugrave Uacute Ucircumflex Udieresis IJ Jcircumflex Utilde Umacron Ubreve Uring Uhungarumlaut Uogonek
 11 K X uni0136
 23 L Lacute uni013B Lslash
 1 P
 1 Q
 23 R Racute uni0156 Rcaron
 36 S Sacute Scircumflex Scedilla Scaron
 21 T uni0162 Tcaron Tbar
 1 V
 53 W Wcircumflex Wgrave Wacute Wdieresis uni1E86 uni1E88
 30 Y Ycircumflex Ydieresis Ygrave
 26 Z Zacute Zdotaccent Zcaron
 73 a agrave aacute acircumflex atilde adieresis aring amacron abreve aogonek

StartChar: ampersand
Encoding: 38 38 0
Width: 851
VWidth: 1920
Flags: HMW
LayerCount: 2
Fore
SplineSet
396 5 m 2
 312 1034 l 2
 306 1132 310 1201 323 1257 c 0
 343 1342 420 1417 594 1417 c 0
 782 1417 823 1336 796 1221 c 0
 763 1077 556 942 432 885 c 0
 363 853 312 763 295 691 c 0
 283 641 284 617 290 546 c 2
 316 246 l 2
 319 209 328 198 349 198 c 0
 470 198 621 540 682 637 c 0
 683 639 686 641 690 641 c 2
 875 641 l 2
 879 641 880 639 877 635 c 0
 732 430 415 -17 211 -17 c 0
 83 -17 66 58 49 210 c 2
 26 417 l 2
 16 505 24 583 40 651 c 0
 69 775 209 908 421 988 c 0
 545 1035 609 1180 621 1230 c 0
 628 1262 613 1275 595 1275 c 0
 577 1275 559 1258 553 1231 c 0
 547 1207 550 1155 553 1105 c 2
 651 5 l 2
 652 1 652 0 648 0 c 2
 403 0 l 2
 399 0 397 1 396 5 c 2
EndSplineSet
EndChar

StartChar: period
Encoding: 46 46 1
Width: 400
VWidth: 1920
Flags: HMW
LayerCount: 2
Fore
SplineSet
195 0 m 6
 -35 0 l 6
 -42 0 -45 3 -43 10 c 6
 36 350 l 6
 38 357 41 360 48 360 c 6
 278 360 l 6
 285 360 288 357 286 350 c 6
 207 10 l 6
 205 3 202 0 195 0 c 6
EndSplineSet
EndChar

StartChar: zero
Encoding: 48 48 2
Width: 615
VWidth: 1920
Flags: HMW
LayerCount: 2
Fore
SplineSet
-39 244 m 262
 172 1155 l 262
 210 1318 314 1417 515 1417 c 260
 716 1417 775 1318 737 1155 c 262
 526 244 l 262
 488 81 385 -18 184 -18 c 260
 -17 -18 -77 81 -39 244 c 262
209 254 m 262
 192 180 191 152 223 152 c 260
 255 152 267 180 284 254 c 262
 489 1145 l 262
 506 1219 508 1247 476 1247 c 260
 444 1247 431 1219 414 1145 c 262
 209 254 l 262
EndSplineSet
EndChar

StartChar: one
Encoding: 49 49 3
Width: 320
VWidth: 1920
Flags: HMW
LayerCount: 2
Fore
SplineSet
237 1362 m 4
 308 1363 339 1384 352 1420 c 4
 354 1424 356 1425 359 1425 c 6
 487 1425 l 6
 491 1425 491 1424 490 1420 c 6
 163 5 l 2
 162 1 162 0 158 0 c 2
 -78 0 l 2
 -82 0 -82 1 -81 5 c 2
 231 1357 l 6
 232 1360 233 1362 237 1362 c 4
EndSplineSet
EndChar

StartChar: two
Encoding: 50 50 4
Width: 580
VWidth: 1920
Flags: HMW
LayerCount: 2
Fore
SplineSet
-98 30 m 262
 11 502 323 588 404 937 c 262
 456 1159 l 262
 470 1219 472 1243 454 1243 c 260
 437 1243 429 1217 416 1161 c 262
 337 817 l 6
 336 813 333 812 329 812 c 6
 99 812 l 6
 95 812 96 813 97 817 c 6
 169 1131 l 262
 208 1298 309 1417 507 1417 c 260
 671 1417 731 1311 694 1151 c 262
 659 999 l 262
 565 591 236 416 184 190 c 262
 183 185 l 261
 483 185 l 6
 487 185 488 184 487 180 c 6
 446 5 l 6
 445 1 444 0 440 0 c 6
 -100 0 l 6
 -104 0 -105 1 -104 5 c 6
 -98 30 l 262
EndSplineSet
EndChar

StartChar: three
Encoding: 51 51 5
Width: 576
VWidth: 1920
Flags: HMW
LayerCount: 2
Fore
SplineSet
12 457 m 6
 247 457 l 6
 251 457 251 455 250 451 c 6
 207 264 l 6
 193 204 182 158 206 158 c 4
 230 158 239 196 254 261 c 6
 320 544 l 6
 330 589 332 620 284 620 c 6
 244 620 l 6
 240 620 239 621 240 625 c 6
 278 790 l 6
 279 794 281 795 285 795 c 6
 315 795 l 6
 358 795 375 816 384 856 c 6
 452 1154 l 6
 466 1214 470 1241 448 1241 c 4
 427 1241 417 1206 405 1155 c 6
 359 957 l 6
 358 953 358 952 354 952 c 6
 124 952 l 6
 120 952 118 953 119 957 c 6
 172 1185 l 6
 199 1302 289 1417 493 1417 c 4
 697 1417 734 1297 707 1182 c 6
 646 919 l 6
 608 754 501 700 323 700 c 5
 338 725 l 5
 516 725 594 676 554 501 c 6
 499 264 l 6
 460 94 365 -18 137 -18 c 4
 -59 -18 -79 85 -45 234 c 6
 5 451 l 6
 6 455 8 457 12 457 c 6
EndSplineSet
EndChar

StartChar: four
Encoding: 52 52 6
Width: 575
VWidth: 1920
Flags: HMW
LayerCount: 2
Fore
SplineSet
569 495 m 6
 531 330 l 6
 530 326 529 325 525 325 c 6
 435 325 l 261
 361 5 l 6
 360 1 359 0 355 0 c 6
 120 0 l 6
 116 0 115 1 116 5 c 6
 190 325 l 261
 -30 325 l 6
 -34 325 -35 326 -34 330 c 6
 16 545 l 6
 17 549 21 561 24 565 c 6
 424 1395 l 6
 427 1398 429 1400 433 1400 c 6
 678 1400 l 6
 682 1400 683 1399 682 1395 c 6
 475 500 l 261
 565 500 l 6
 569 500 570 499 569 495 c 6
235 500 m 261
 351 1000 l 261
 137 500 l 261
 235 500 l 261
EndSplineSet
EndChar

StartChar: five
Encoding: 53 53 7
Width: 600
VWidth: 1920
Flags: HMW
LayerCount: 2
Fore
SplineSet
-1 364 m 6
 224 364 l 6
 227 364 229 362 228 359 c 4
 187 180 189 152 213 152 c 4
 242 152 254 193 297 379 c 6
 356 631 l 6
 377 721 382 753 360 753 c 4
 334 753 324 713 287 558 c 4
 286 553 281 553 278 553 c 6
 53 553 l 6
 49 553 47 553 49 557 c 6
 297 1395 l 6
 299 1398 299 1400 303 1400 c 6
 743 1400 l 6
 747 1400 749 1399 748 1395 c 6
 731 1322 l 6
 717 1262 683 1225 573 1225 c 6
 446 1225 l 5
 280 694 l 5
 269 694 l 5
 316 866 384 929 494 929 c 4
 614 929 654 865 605 651 c 6
 542 379 l 6
 474 85 359 -18 154 -18 c 4
 -13 -18 -69 55 -7 359 c 4
 -6 363 -5 364 -1 364 c 6
EndSplineSet
EndChar

StartChar: six
Encoding: 54 54 8
Width: 591
VWidth: 1920
Flags: HMW
LayerCount: 2
Fore
SplineSet
331 669 m 260
 306 669 296 642 272 540 c 262
 265 510 l 261
 229 550 l 261
 259 682 332 794 450 794 c 260
 594 794 611 694 570 517 c 262
 512 266 l 262
 466 67 373 -16 177 -16 c 260
 -41 -16 -75 86 -20 326 c 262
 164 1121 l 262
 208 1311 305 1417 499 1417 c 260
 697 1417 738 1317 698 1145 c 262
 643 905 l 6
 642 901 641 900 637 900 c 6
 412 900 l 6
 408 900 407 901 408 905 c 6
 459 1125 l 262
 474 1191 486 1241 460 1241 c 260
 435 1241 422 1193 405 1118 c 262
 215 293 l 262
 191 188 190 160 214 160 c 260
 244 160 251 190 274 290 c 262
 329 527 l 262
 353 629 356 669 331 669 c 260
EndSplineSet
EndChar

StartChar: seven
Encoding: 55 55 9
Width: 521
VWidth: 1920
Flags: HMW
LayerCount: 2
Fore
SplineSet
732 1395 m 14
 221 5 l 22
 219 0 217 0 212 0 c 14
 -42 0 l 22
 -47 0 -47 1 -45 5 c 14
 469 1175 l 29
 193 1175 l 22
 189 1175 189 1176 190 1180 c 14
 240 1395 l 22
 241 1399 241 1400 245 1400 c 14
 729 1400 l 22
 733 1400 733 1399 732 1395 c 14
EndSplineSet
EndChar

StartChar: eight
Encoding: 56 56 10
Width: 630
VWidth: 1920
Flags: HMW
LayerCount: 2
Fore
SplineSet
232 155 m 260
 262 155 275 178 284 216 c 262
 365 567 l 262
 374 606 371 629 341 629 c 260
 311 629 298 606 289 567 c 262
 208 216 l 262
 199 178 202 155 232 155 c 260
382 804 m 260
 407 804 418 823 424 851 c 262
 506 1203 l 262
 511 1226 507 1244 483 1244 c 260
 459 1244 445 1226 440 1203 c 262
 358 851 l 262
 352 823 357 804 382 804 c 260
379 729 m 261
 594 729 626 641 592 495 c 262
 530 224 l 262
 494 70 421 -18 192 -18 c 260
 -12 -18 -72 70 -36 224 c 262
 26 495 l 262
 60 641 158 729 348 729 c 261
 345 709 l 261
 163 712 100 788 137 948 c 262
 188 1171 l 262
 225 1332 339 1417 523 1417 c 260
 732 1417 781 1332 744 1171 c 262
 693 948 l 262
 656 788 583 712 374 709 c 261
 379 729 l 261
EndSplineSet
EndChar

StartChar: nine
Encoding: 57 57 11
Width: 591
VWidth: 1920
Flags: HMW
LayerCount: 2
Fore
SplineSet
343 731 m 260
 368 731 379 758 403 860 c 262
 409 890 l 261
 445 850 l 261
 415 718 342 606 224 606 c 260
 80 606 63 706 104 883 c 262
 162 1134 l 262
 208 1333 301 1416 497 1416 c 260
 715 1416 749 1314 694 1074 c 262
 510 279 l 262
 466 89 369 -17 175 -17 c 260
 -23 -17 -74 83 -34 255 c 262
 21 495 l 6
 22 499 23 500 27 500 c 6
 252 500 l 6
 256 500 257 499 256 495 c 6
 205 275 l 262
 190 209 179 159 210 159 c 260
 240 159 252 207 269 282 c 262
 460 1107 l 262
 484 1212 484 1240 460 1240 c 260
 430 1240 423 1210 400 1110 c 262
 346 873 l 262
 322 771 318 731 343 731 c 260
EndSplineSet
EndChar

StartChar: A
Encoding: 65 65 12
Width: 537
VWidth: 960
Flags: HW
AnchorPoint: "ogonek" 304 0 basechar 0
AnchorPoint: "bottom" 131 0 basechar 0
AnchorPoint: "top" 489 1400 basechar 0
LayerCount: 2
Fore
SplineSet
156.736328125 520 m 5
 358.0859375 520 l 5
 329.0859375 395 l 5
 127.736328125 395 l 5
 156.736328125 520 l 5
405.391601562 1089 m 5
 83.166015625 5 l 6
 82.21875 3 80.345703125 0 76.736328125 0 c 6
 -113.263671875 0 l 6
 -115.263671875 0 -119.263671875 0 -116.263671875 5 c 6
 354.736328125 1395 l 6
 357.736328125 1399 359.736328125 1400 361.736328125 1400 c 6
 638.0859375 1400 l 6
 641.0859375 1400 644.0859375 1399 644.0859375 1395 c 6
 457.0859375 5 l 6
 457.0859375 4 458.0859375 0 453.0859375 0 c 6
 203.0859375 0 l 6
 201.28125 0 198.573242188 0 197.783203125 5 c 6
 405.391601562 1089 l 5
EndSplineSet
EndChar

StartChar: B
Encoding: 66 66 13
Width: 581
VWidth: 960
Flags: HW
AnchorPoint: "top" 465 1400 basechar 0
AnchorPoint: "bottom" 158 0 basechar 0
LayerCount: 2
Fore
SplineSet
346.302734375 770 m 257
 368.865234375 770 l 258
 389.622070312 770 404.633789062 794 421.633789062 869 c 258
 480.666015625 1126 l 258
 497.696289062 1201 499.139648438 1225 473.869140625 1225 c 258
 451.302734375 1225 l 257
 346.302734375 770 l 257
385 725 m 257
 512.633789062 725 625.633789062 656 580.297851562 461 c 258
 542.297851562 294 l 258
 494.297851562 84 385.297851562 0 227.297851562 0 c 262
 -71.697265625 0 l 258
 -75.697265625 0 -76.697265625 1 -75.697265625 5 c 258
 245.302734375 1395 l 258
 246.302734375 1399 247.302734375 1400 251.302734375 1400 c 258
 540.984375 1400 l 258
 698.633789062 1400 752.633789062 1307 707.633789062 1112 c 258
 671.633789062 959 l 258
 626.633789062 764 497.633789062 700 370.899414062 700 c 257
 385 725 l 257
344.391601562 645 m 258
 317.302734375 645 l 257
 208.302734375 175 l 257
 235.440429688 175 l 258
 260.709960938 175 271.297851562 203 288.297851562 278 c 258
 349.297851562 541 l 258
 366.301757812 616 369.662109375 645 344.391601562 645 c 258
EndSplineSet
EndChar

StartChar: C
Encoding: 67 67 14
Width: 539
VWidth: 960
Flags: HW
AnchorPoint: "top" 500 1400 basechar 0
AnchorPoint: "bottom" 168 0 basechar 0
LayerCount: 2
Fore
SplineSet
570.393554688 603 m 260
 552.393554688 526 516.393554688 367 497.393554688 294 c 4
 447.393554688 98 332.393554688 -18 157.220703125 -18 c 260
 -46.779296875 -18 -59.779296875 109 -4.779296875 349 c 262
 155.220703125 1042 l 262
 208.220703125 1272 284.220703125 1418 497.52734375 1418 c 260
 674.853515625 1418 713.853515625 1293 663.853515625 1074 c 4
 651.853515625 1022 629.853515625 926 616.853515625 866 c 260
 615.853515625 862 614.853515625 862 610.853515625 862 c 262
 436.853515625 862 l 262
 432.853515625 862 430.861328125 862 431.853515625 866 c 260
 491.923828125 1129 514.853515625 1218 478.584960938 1218 c 260
 446.997070312 1218 432.176757812 1161 405.220703125 1046 c 262
 236.220703125 314 l 262
 213.212890625 214 209.784179688 182 239.56640625 182 c 260
 272.959960938 182 296.420898438 262 375.393554688 603 c 260
 376.393554688 607 377.393554688 608 381.393554688 608 c 262
 566.393554688 608 l 262
 570.393554688 608 571.393554688 607 570.393554688 603 c 260
EndSplineSet
EndChar

StartChar: D
Encoding: 68 68 15
Width: 599
VWidth: 960
Flags: HW
AnchorPoint: "top" 485 1400 basechar 0
AnchorPoint: "bottom" 142 0 basechar 0
LayerCount: 2
Fore
SplineSet
170.971679688 0 m 262
 -71.697265625 0 l 262
 -75.697265625 0 -76.697265625 1 -75.697265625 5 c 262
 245.302734375 1395 l 262
 246.302734375 1399 247.302734375 1400 251.302734375 1400 c 262
 493.9921875 1400 l 262
 694.952148438 1400 773.952148438 1285 705.952148438 992 c 262
 570.952148438 409 l 262
 502.952148438 116 391.952148438 0 170.971679688 0 c 262
229.059570312 175 m 262
 257.940429688 175 277.952148438 220 319.952148438 404 c 262
 456.952148438 996 l 262
 498.967773438 1180 500.8828125 1225 472.002929688 1225 c 262
 451.245117188 1225 l 261
 208.302734375 175 l 261
 229.059570312 175 l 262
EndSplineSet
EndChar

StartChar: E
Encoding: 69 69 16
Width: 427
VWidth: 960
Flags: HW
AnchorPoint: "ogonek" 230 0 basechar 0
AnchorPoint: "top" 495 1400 basechar 0
AnchorPoint: "bottom" 172 0 basechar 0
LayerCount: 2
Fore
SplineSet
346.302734375 770 m 261
 431.302734375 770 l 262
 435.302734375 770 436.302734375 769 435.302734375 765 c 262
 408.302734375 650 l 262
 407.302734375 646 406.302734375 645 402.302734375 645 c 262
 317.302734375 645 l 261
 208.302734375 175 l 261
 363.302734375 175 l 262
 367.302734375 175 368.302734375 174 367.302734375 170 c 262
 329.302734375 5 l 262
 328.302734375 1 327.302734375 0 323.302734375 0 c 262
 -71.697265625 0 l 262
 -75.697265625 0 -76.697265625 1 -75.697265625 5 c 262
 245.302734375 1395 l 262
 246.302734375 1399 247.302734375 1400 251.302734375 1400 c 262
 636.302734375 1400 l 262
 640.302734375 1400 641.302734375 1399 640.302734375 1395 c 262
 602.302734375 1230 l 262
 601.302734375 1226 600.302734375 1225 596.302734375 1225 c 262
 451.302734375 1225 l 261
 346.302734375 770 l 261
EndSplineSet
EndChar

StartChar: F
Encoding: 70 70 17
Width: 423
VWidth: 960
Flags: HW
AnchorPoint: "top" 475 1400 basechar 0
AnchorPoint: "bottom" 152 0 basechar 0
LayerCount: 2
Fore
SplineSet
347.302734375 775 m 257
 437.302734375 775 l 258
 441.302734375 775 442.302734375 774 441.302734375 770 c 258
 414.302734375 655 l 258
 413.302734375 651 412.302734375 650 408.302734375 650 c 258
 318.302734375 650 l 257
 169.302734375 5 l 258
 168.302734375 1 167.302734375 0 163.302734375 0 c 258
 -71.697265625 0 l 258
 -75.697265625 0 -76.697265625 1 -75.697265625 5 c 258
 245.302734375 1395 l 258
 246.302734375 1399 247.302734375 1400 251.302734375 1400 c 258
 641.302734375 1400 l 258
 645.302734375 1400 646.302734375 1399 645.302734375 1395 c 258
 607.302734375 1230 l 258
 606.302734375 1226 605.302734375 1225 601.302734375 1225 c 258
 451.302734375 1225 l 257
 347.302734375 775 l 257
EndSplineSet
EndChar

StartChar: G
Encoding: 71 71 18
Width: 565
VWidth: 960
Flags: HW
AnchorPoint: "top" 485 1400 basechar 0
AnchorPoint: "bottom" 202 0 basechar 0
LayerCount: 2
Fore
SplineSet
329.901367188 582 m 6
 355.909179688 695 l 6
 356.901367188 699 358.901367188 700 362.901367188 700 c 6
 612.901367188 700 l 2
 616.901367188 700 616.901367188 699 615.901367188 695 c 2
 456.901367188 5 l 2
 455.901367188 1 454.901367188 0 450.901367188 0 c 2
 335.901367188 0 l 2
 331.901367188 0 330.901367188 1 330.901367188 5 c 2
 355.901367188 280 l 1
 490.901367188 630 l 1
 391.901367188 245 327.901367188 -18 117.303710938 -18 c 0
 -50.6962890625 -18 -58.6962890625 119 8.3037109375 409 c 2
 143.303710938 992 l 2
 210.303710938 1282 284.303710938 1418 497.631835938 1418 c 0
 680.901367188 1418 715.901367188 1296 669.901367188 1094 c 0
 658.901367188 1043 633.901367188 928 620.901367188 867 c 0
 619.901367188 863 618.901367188 863 614.901367188 863 c 2
 419.901367188 863 l 2
 415.901367188 863 414.901367188 863 415.901367188 867 c 0
 487.901367188 1195 502.901367188 1228 470.791992188 1228 c 0
 450.034179688 1228 437.244140625 1181 394.272460938 996 c 2
 257.303710938 404 l 2
 215.303710938 224 206.956054688 172 241.901367188 172 c 0
 274.901367188 172 293.901367188 231 393.901367188 628 c 1
 442.901367188 578 l 1
 333.901367188 578 l 6
 330.901367188 578 328.908203125 578 329.901367188 582 c 6
EndSplineSet
EndChar

StartChar: H
Encoding: 72 72 19
Width: 589
VWidth: 960
Flags: HW
AnchorPoint: "top" 505 1400 basechar 0
AnchorPoint: "bottom" 182 0 basechar 0
LayerCount: 2
Fore
SplineSet
541.427734375 1400 m 6
 776.427734375 1400 l 6
 780.427734375 1400 781.427734375 1399 780.427734375 1395 c 6
 459.427734375 5 l 2
 458.427734375 1 457.427734375 0 453.427734375 0 c 2
 218.427734375 0 l 2
 214.427734375 0 213.435546875 1 214.427734375 5 c 2
 356.427734375 620 l 257
 311.30078125 620 l 257
 169.302734375 5 l 2
 168.302734375 1 167.302734375 0 163.302734375 0 c 2
 -71.697265625 0 l 2
 -75.697265625 0 -76.697265625 1 -75.697265625 5 c 2
 245.302734375 1395 l 22
 246.302734375 1399 247.302734375 1400 251.302734375 1400 c 14
 486.302734375 1400 l 22
 490.302734375 1400 491.286132812 1399 490.293945312 1395 c 14
 352.243164062 795 l 257
 397.427734375 795 l 257
 535.427734375 1395 l 6
 536.427734375 1399 537.427734375 1400 541.427734375 1400 c 6
EndSplineSet
EndChar

StartChar: I
Encoding: 73 73 20
Width: 299
VWidth: 960
Flags: HW
AnchorPoint: "ogonek" 40 0 basechar 0
AnchorPoint: "top" 363 1400 basechar 0
AnchorPoint: "bottom" 40 0 basechar 0
LayerCount: 2
Fore
SplineSet
251.302734375 1400 m 14
 486.302734375 1400 l 22
 490.302734375 1400 491.302734375 1399 490.302734375 1395 c 14
 169.302734375 5 l 22
 168.302734375 1 167.302734375 0 163.302734375 0 c 14
 -71.697265625 0 l 22
 -75.697265625 0 -76.697265625 1 -75.697265625 5 c 14
 245.302734375 1395 l 22
 246.302734375 1399 247.302734375 1400 251.302734375 1400 c 14
EndSplineSet
EndChar

StartChar: J
Encoding: 74 74 21
Width: 510
VWidth: 960
Flags: HW
AnchorPoint: "top" 591 1400 basechar 0
AnchorPoint: "bottom" 118 0 basechar 0
LayerCount: 2
Fore
SplineSet
446.474609375 1400 m 6
 686.474609375 1400 l 6
 690.474609375 1400 691.474609375 1399 690.474609375 1395 c 6
 430.474609375 269 l 258
 385.474609375 76 320.474609375 -18 117.474609375 -18 c 256
 -58.4912109375 -18 -86.4912109375 77 -49.4912109375 239 c 258
 47.5087890625 657 l 2
 48.5087890625 661 49.5087890625 663 53.5087890625 663 c 2
 228.508789062 663 l 2
 232.508789062 663 233.47265625 661 232.4765625 657 c 2
 136.508789062 244 l 258
 123.508789062 188 121.3125 162 137.461914062 162 c 256
 153.612304688 162 161.474609375 184 177.474609375 254 c 258
 440.495117188 1395 l 6
 441.491210938 1399 442.474609375 1400 446.474609375 1400 c 6
EndSplineSet
EndChar

StartChar: K
Encoding: 75 75 22
Width: 610
VWidth: 960
Flags: HW
AnchorPoint: "top" 525 1400 basechar 0
AnchorPoint: "bottom" 202 0 basechar 0
LayerCount: 2
Fore
SplineSet
251.302734375 1400 m 10
 486.302734375 1400 l 18
 490.302734375 1400 491.286132812 1399 490.293945312 1395 c 10
 169.302734375 5 l 18
 168.302734375 1 167.302734375 0 163.302734375 0 c 10
 -71.697265625 0 l 18
 -75.697265625 0 -76.697265625 1 -75.697265625 5 c 10
 245.302734375 1395 l 18
 246.302734375 1399 247.302734375 1400 251.302734375 1400 c 10
349.302734375 785 m 5
 537.075195312 890 l 1
 544.075195312 5 l 2
 544.075195312 0 544.075195312 0 542.075195312 0 c 2
 272.075195312 0 l 2
 267.5625 0 264.922851562 3 264.967773438 5 c 2
 349.302734375 785 l 5
639.075195312 1395 m 2
 641.075195312 1399 645.075195312 1400 650.075195312 1400 c 2
 852.075195312 1400 l 2
 855.075195312 1400 857.075195312 1399 854.075195312 1395 c 2
 450.075195312 720 l 1
 405.830078125 770 l 1
 262.302734375 450 l 1
 160.302734375 505 l 1
 639.075195312 1395 l 2
EndSplineSet
EndChar

StartChar: L
Encoding: 76 76 23
Width: 454
VWidth: 960
Flags: HW
AnchorPoint: "top" 345 1400 basechar 0
AnchorPoint: "bottom" 152 0 basechar 0
LayerCount: 2
Fore
SplineSet
251.302734375 1400 m 6
 486.302734375 1400 l 6
 490.302734375 1400 491.302734375 1399 490.302734375 1395 c 6
 208.302734375 175 l 281
 383.302734375 175 l 2
 387.302734375 175 388.302734375 174 387.302734375 170 c 2
 349.302734375 5 l 2
 348.302734375 1 347.302734375 0 343.302734375 0 c 2
 -71.697265625 0 l 2
 -75.697265625 0 -76.697265625 1 -75.697265625 5 c 2
 245.302734375 1395 l 6
 246.302734375 1399 247.302734375 1400 251.302734375 1400 c 6
EndSplineSet
EndChar

StartChar: M
Encoding: 77 77 24
Width: 784
VWidth: 960
Flags: HW
AnchorPoint: "top" 585 1400 basechar 0
AnchorPoint: "bottom" 252 0 basechar 0
LayerCount: 2
Fore
SplineSet
346.27734375 1115 m 261
 90.27734375 5 l 6
 89.27734375 1 88.27734375 0 84.27734375 0 c 6
 -80.72265625 0 l 6
 -84.72265625 0 -85.72265625 1 -84.72265625 5 c 6
 236.27734375 1395 l 6
 237.27734375 1399 238.27734375 1400 242.27734375 1400 c 6
 529.608398438 1400 l 6
 533.21875 1400 534.098632812 1399 534.911132812 1395 c 6
 423.244140625 644 l 261
 662.1640625 1395 l 6
 664.9609375 1399 665.88671875 1400 669.49609375 1400 c 6
 957.79296875 1400 l 6
 961.79296875 1400 962.79296875 1399 961.79296875 1395 c 6
 655.193359375 5 l 6
 654.193359375 1 653.193359375 0 649.193359375 0 c 6
 424.193359375 0 l 6
 420.193359375 0 419.200195312 1 420.193359375 5 c 6
 662.178710938 1115 l 261
 324.52734375 5 l 6
 321.52734375 1 320.52734375 0 316.52734375 0 c 6
 186.52734375 0 l 6
 182.52734375 0 181.52734375 1 180.52734375 5 c 6
 346.27734375 1115 l 261
EndSplineSet
EndChar

StartChar: N
Encoding: 78 78 25
Width: 575
VWidth: 960
Flags: HW
AnchorPoint: "top" 500 1400 basechar 0
AnchorPoint: "bottom" 172 0 basechar 0
LayerCount: 2
Fore
SplineSet
597.27734375 1400 m 2
 772.27734375 1400 l 2
 776.27734375 1400 777.27734375 1399 776.27734375 1395 c 2
 455.27734375 5 l 2
 454.27734375 1 453.27734375 0 449.27734375 0 c 2
 284.27734375 0 l 2
 280.27734375 0 276.27734375 1 276.27734375 5 c 2
 263.27734375 796 l 5
 283.27734375 796 l 261
 100.27734375 5 l 2
 99.27734375 1 98.27734375 0 94.27734375 0 c 2
 -80.72265625 0 l 2
 -84.72265625 0 -85.72265625 1 -84.72265625 5 c 2
 236.27734375 1395 l 2
 237.27734375 1399 238.27734375 1400 242.27734375 1400 c 2
 457.27734375 1400 l 2
 461.27734375 1400 465.27734375 1399 465.27734375 1395 c 2
 434.27734375 629 l 1
 414.27734375 629 l 257
 591.27734375 1395 l 2
 592.27734375 1399 593.27734375 1400 597.27734375 1400 c 2
EndSplineSet
EndChar

StartChar: O
Encoding: 79 79 26
Width: 603
VWidth: 960
Flags: HW
AnchorPoint: "top" 515 1400 basechar 0
AnchorPoint: "bottom" 193 0 basechar 0
LayerCount: 2
Fore
SplineSet
-2.7490234375 359 m 262
 155.250976562 1042 l 262
 209.250976562 1275 288.250976562 1416 525.541992188 1416 c 256
 762.938476562 1416 776.938476562 1275 722.938476562 1042 c 262
 564.938476562 359 l 262
 510.938476562 126 431.938476562 -18 194.536132812 -18 c 256
 -42.7490234375 -18 -56.7490234375 126 -2.7490234375 359 c 262
225.250976562 264 m 258
 204.250976562 175 209.192382812 152 233.560546875 152 c 256
 257.926757812 152 271.982421875 175 292.938476562 264 c 258
 493.969726562 1136 l 258
 514.938476562 1225 510.930664062 1248 486.5625 1248 c 256
 462.1953125 1248 447.237304688 1225 426.250976562 1136 c 258
 225.250976562 264 l 258
EndSplineSet
EndChar

StartChar: P
Encoding: 80 80 27
Width: 554
VWidth: 960
Flags: HW
AnchorPoint: "top" 525 1400 basechar 0
AnchorPoint: "bottom" 18 0 basechar 0
LayerCount: 2
Fore
SplineSet
451.26953125 1225 m 261
 335.302734375 725 l 261
 344.350585938 725 l 262
 378.64453125 725 393.663085938 749 403.663085938 794 c 262
 487.663085938 1156 l 262
 497.663085938 1201 494.58984375 1225 460.294921875 1225 c 262
 451.26953125 1225 l 261
491.302734375 1400 m 262
 668.663085938 1400 736.663085938 1326 693.663085938 1141 c 262
 628.663085938 859 l 262
 585.663085938 674 485.663085938 600 343.341796875 600 c 262
 307.241210938 600 l 261
 169.302734375 5 l 6
 168.302734375 1 167.302734375 0 163.302734375 0 c 6
 -71.697265625 0 l 6
 -75.697265625 0 -76.697265625 1 -75.697265625 5 c 6
 245.302734375 1395 l 6
 246.302734375 1399 247.302734375 1400 251.302734375 1400 c 6
 491.302734375 1400 l 262
EndSplineSet
EndChar

StartChar: Q
Encoding: 81 81 28
Width: 648
VWidth: 960
Flags: HW
AnchorPoint: "top" 515 1400 basechar 0
AnchorPoint: "bottom" 192 0 basechar 0
LayerCount: 2
Fore
SplineSet
596.967773438 205 m 2
 550.967773438 5 l 2
 549.967773438 1 549.967773438 -1 543.967773438 -2 c 0
 382.967773438 -28 341.967773438 46 372.967773438 179 c 257
 464.967773438 294 l 261
 424.967773438 119 337.967773438 -18 157.280273438 -18 c 256
 -50.7197265625 -18 -55.7197265625 129 -15.7197265625 304 c 258
 167.280273438 1096 l 258
 207.280273438 1271 284.280273438 1418 524.71484375 1418 c 256
 764.967773438 1418 774.967773438 1271 734.967773438 1096 c 258
 548.967773438 289 l 258
 535.967773438 232 545.967773438 212 591.967773438 210 c 0
 597.967773438 210 597.967773438 208 596.967773438 205 c 2
292.967773438 264 m 258
 493.999023438 1136 l 258
 508.999023438 1201 516.375 1248 485.689453125 1248 c 256
 455.004882812 1248 441.280273438 1201 426.280273438 1136 c 258
 225.280273438 264 l 258
 209.264648438 194 202.001953125 152 232.686523438 152 c 256
 263.372070312 152 276.967773438 194 292.967773438 264 c 258
EndSplineSet
EndChar

StartChar: R
Encoding: 82 82 29
Width: 611
VWidth: 960
Flags: HW
AnchorPoint: "top" 525 1400 basechar 0
AnchorPoint: "bottom" 202 0 basechar 0
LayerCount: 2
Fore
SplineSet
451.266601562 1225 m 261
 334.302734375 720 l 261
 352.356445312 720 l 262
 383.041015625 720 394.616210938 751 404.616210938 796 c 262
 485.6328125 1148 l 262
 494.655273438 1188 500.000976562 1225 469.31640625 1225 c 262
 451.266601562 1225 l 261
518.379882812 1400 m 262
 748.616210938 1400 769.616210938 1296 733.616210938 1141 c 262
 673.616210938 879 l 262
 634.616210938 709 504.616210938 640 343.3359375 640 c 261
 350.328125 670 l 261
 525.616210938 670 626.616210938 656 582.616210938 466 c 262
 512.616210938 164 l 262
 499.616210938 107 495.616210938 64 510.616210938 30 c 4
 513.616210938 24 513.616210938 23 512.616210938 20 c 6
 508.616210938 5 l 6
 507.616210938 1 506.616210938 0 502.616210938 0 c 6
 264.616210938 0 l 6
 260.616210938 0 257.616210938 2 255.616210938 6 c 4
 236.616210938 46 241.616210938 90 258.616210938 164 c 262
 344.616210938 536 l 262
 353.627929688 576 344.126953125 595 318.857421875 595 c 262
 305.302734375 595 l 261
 169.298828125 5 l 6
 168.302734375 1 167.302734375 0 163.302734375 0 c 6
 -71.697265625 0 l 6
 -75.697265625 0 -76.697265625 1 -75.697265625 5 c 6
 245.302734375 1395 l 6
 246.302734375 1399 247.302734375 1400 251.302734375 1400 c 6
 518.379882812 1400 l 262
EndSplineSet
EndChar

StartChar: S
Encoding: 83 83 30
Width: 472
VWidth: 960
Flags: HW
AnchorPoint: "top" 404 1400 basechar 0
AnchorPoint: "bottom" 122 0 basechar 0
LayerCount: 2
Fore
SplineSet
30.27734375 524 m 2
 206.27734375 524 l 2
 207.27734375 524 210.27734375 524 209.27734375 520 c 0
 193.27734375 452 175.27734375 372 155.27734375 285 c 0
 135.27734375 200 133.78125 172 150.928710938 172 c 256
 172.588867188 172 182.469726562 208 206.469726562 314 c 256
 241.478515625 466 216.27734375 558 187.27734375 645 c 4
 151.27734375 754 107.27734375 869 164.27734375 1116 c 256
 211.27734375 1321 306.27734375 1418 472.27734375 1418 c 256
 635.067382812 1418 662.067382812 1308 626.067382812 1150 c 2
 570.067382812 906 l 2
 569.067382812 902 566.067382812 902 563.067382812 902 c 2
 399.067382812 902 l 2
 396.067382812 902 393.075195312 902 394.067382812 906 c 0
 416.067382812 1000 432.067382812 1070 448.067382812 1139 c 0
 467.067382812 1221 467.422851562 1238 452.080078125 1238 c 256
 437.640625 1238 425.27734375 1211 407.27734375 1132 c 256
 365.27734375 952 397.067382812 839 430.067382812 753 c 0
 469.067382812 653 501.469726562 552 446.469726562 314 c 256
 393.469726562 85 291.469726562 -18 131.469726562 -18 c 256
 -27.72265625 -18 -82.72265625 52 -39.72265625 240 c 2
 25.27734375 520 l 2
 26.27734375 524 29.27734375 524 30.27734375 524 c 2
EndSplineSet
EndChar

StartChar: T
Encoding: 84 84 31
Width: 533
VWidth: 960
Flags: HW
AnchorPoint: "top" 475 1400 basechar 0
AnchorPoint: "bottom" 133 0 basechar 0
LayerCount: 2
Fore
SplineSet
219.706054688 1400 m 6
 754.706054688 1400 l 6
 758.706054688 1400 759.706054688 1399 758.706054688 1395 c 6
 720.706054688 1230 l 6
 719.706054688 1226 718.706054688 1225 714.706054688 1225 c 6
 569.706054688 1225 l 261
 287.706054688 5 l 6
 286.706054688 1 285.706054688 0 281.706054688 0 c 6
 46.7060546875 0 l 6
 42.7060546875 0 41.7060546875 1 42.7060546875 5 c 6
 324.706054688 1225 l 261
 179.706054688 1225 l 6
 175.706054688 1225 174.706054688 1226 175.706054688 1230 c 6
 213.706054688 1395 l 6
 214.706054688 1399 215.706054688 1400 219.706054688 1400 c 6
EndSplineSet
EndChar

StartChar: U
Encoding: 85 85 32
Width: 534
VWidth: 960
Flags: HW
AnchorPoint: "ogonek" 228 0 basechar 0
AnchorPoint: "top" 503 1400 basechar 0
AnchorPoint: "bottom" 180 0 basechar 0
LayerCount: 2
Fore
SplineSet
277.41015625 254 m 258
 540.452148438 1395 l 2
 541.444335938 1399 542.411132812 1400 546.411132812 1400 c 2
 721.411132812 1400 l 2
 725.411132812 1400 726.41015625 1399 725.411132812 1395 c 2
 472.41015625 299 l 262
 435.411132812 139 375.411132812 -18 162.78125 -18 c 256
 -71.21875 -18 -57.21875 104 -13.21875 294 c 258
 240.78125 1395 l 2
 241.78125 1399 242.78125 1400 246.78125 1400 c 2
 486.78125 1400 l 2
 490.78125 1400 491.78125 1399 490.78125 1395 c 2
 235.78125 289 l 258
 208.78125 174 207.426757812 152 228.184570312 152 c 256
 248.942382812 152 260.411132812 179 277.41015625 254 c 258
EndSplineSet
EndChar

StartChar: V
Encoding: 86 86 33
Width: 548
VWidth: 960
Flags: HW
AnchorPoint: "top" 494 1400 basechar 0
AnchorPoint: "bottom" 170 0 basechar 0
LayerCount: 2
Fore
SplineSet
257.189453125 311 m 5
 587.189453125 1395 l 6
 588.189453125 1397 591.189453125 1400 595.189453125 1400 c 6
 785.189453125 1400 l 6
 787.189453125 1400 790.189453125 1400 787.189453125 1395 c 6
 317.189453125 5 l 6
 314.189453125 1 311.189453125 0 309.189453125 0 c 6
 19.189453125 0 l 6
 16.189453125 0 14.189453125 1 14.189453125 5 c 6
 200.189453125 1395 l 6
 200.189453125 1396 200.189453125 1400 205.189453125 1400 c 6
 455.189453125 1400 l 6
 457.189453125 1400 459.189453125 1400 460.189453125 1395 c 6
 257.189453125 311 l 5
EndSplineSet
EndChar

StartChar: W
Encoding: 87 87 34
Width: 794
VWidth: 960
Flags: HW
AnchorPoint: "top" 639 1400 basechar 0
AnchorPoint: "bottom" 296 0 basechar 0
LayerCount: 2
Fore
SplineSet
271.895507812 495 m 257
 562.497070312 1395 l 2
 564.370117188 1398 566.219726562 1400 569.829101562 1400 c 2
 721.938476562 1400 l 2
 725.938476562 1400 726.938476562 1398 726.938476562 1395 c 2
 597.938476562 477 l 257
 868.938476562 1395 l 6
 870.938476562 1398 872.938476562 1400 876.938476562 1400 c 6
 1046.93847656 1400 l 2
 1050.93847656 1400 1050.93847656 1398 1048.93847656 1395 c 2
 593.938476562 5 l 2
 591.938476562 1 589.938476562 0 585.938476562 0 c 2
 365.938476562 0 l 2
 363.23046875 0 361.448242188 1 361.5390625 5 c 2
 474.310546875 765 l 257
 237.895507812 5 l 2
 235.895507812 1 233.895507812 0 229.895507812 0 c 2
 7.8955078125 0 l 2
 3.8955078125 0 1.8955078125 1 1.8955078125 5 c 2
 193.895507812 1395 l 2
 193.895507812 1398 193.895507812 1400 197.895507812 1400 c 2
 435.895507812 1400 l 2
 439.895507812 1400 440.895507812 1398 440.895507812 1395 c 2
 271.895507812 495 l 257
EndSplineSet
EndChar

StartChar: X
Encoding: 88 88 35
Width: 593
VWidth: 960
Flags: HW
AnchorPoint: "top" 519 1400 basechar 0
AnchorPoint: "bottom" 196 0 basechar 0
LayerCount: 2
Fore
SplineSet
579.670898438 1400 m 2
 811.670898438 1400 l 2
 815.670898438 1400 815.670898438 1399 812.670898438 1395 c 2
 503.670898438 732 l 257
 516.670898438 5 l 2
 517.670898438 1 518.670898438 0 514.670898438 0 c 2
 234.670898438 0 l 2
 231.060546875 0 229.278320312 1 228.465820312 5 c 2
 289.610351562 436 l 257
 123.776367188 5 l 2
 120.075195312 1 118.248046875 0 114.638671875 0 c 2
 -122.361328125 0 l 2
 -126.361328125 0 -127.361328125 1 -123.361328125 5 c 2
 238.638671875 680 l 257
 212.638671875 1395 l 2
 211.638671875 1399 210.638671875 1400 214.638671875 1400 c 2
 480.077148438 1400 l 2
 483.6875 1400 486.37109375 1399 487.184570312 1395 c 2
 426.538085938 946 l 261
 570.670898438 1395 l 2
 573.670898438 1399 575.670898438 1400 579.670898438 1400 c 2
EndSplineSet
EndChar

StartChar: Y
Encoding: 89 89 36
Width: 633
VWidth: 960
Flags: HW
AnchorPoint: "top" 543 1400 basechar 0
AnchorPoint: "bottom" 205 0 basechar 0
LayerCount: 2
Fore
SplineSet
664.739257812 1400 m 6
 857.739257812 1400 l 6
 861.739257812 1400 861.739257812 1399 858.739257812 1395 c 6
 480.739257812 625 l 257
 337.739257812 5 l 2
 336.739257812 1 335.739257812 0 331.739257812 0 c 2
 96.7392578125 0 l 2
 92.7392578125 0 91.7392578125 1 92.7392578125 5 c 2
 235.739257812 625 l 257
 214.739257812 1395 l 6
 213.739257812 1399 213.739257812 1400 217.739257812 1400 c 6
 494.739257812 1400 l 6
 498.739257812 1400 500.739257812 1399 501.739257812 1395 c 6
 441.739257812 800 l 257
 655.739257812 1395 l 6
 658.739257812 1399 660.739257812 1400 664.739257812 1400 c 6
EndSplineSet
EndChar

StartChar: Z
Encoding: 90 90 37
Width: 522
VWidth: 960
Flags: HW
AnchorPoint: "top" 466 1400 basechar 0
AnchorPoint: "bottom" 164 0 basechar 0
LayerCount: 2
Fore
SplineSet
-138.666992188 5 m 2
 432.333007812 1225 l 257
 214.333007812 1225 l 2
 210.333007812 1225 209.333007812 1226 210.333007812 1230 c 2
 248.333007812 1395 l 2
 249.333007812 1399 250.333007812 1400 254.333007812 1400 c 2
 749.333007812 1400 l 2
 753.333007812 1400 754.333007812 1399 750.333007812 1395 c 2
 188.333007812 175 l 261
 456.333007812 175 l 2
 460.333007812 175 461.333007812 174 460.333007812 170 c 2
 422.333007812 5 l 2
 421.333007812 1 420.333007812 0 416.333007812 0 c 2
 -138.666992188 0 l 2
 -142.666992188 0 -142.666992188 1 -138.666992188 5 c 2
EndSplineSet
EndChar

StartChar: a
Encoding: 97 97 38
Width: 560
VWidth: 960
Flags: HMW
AnchorPoint: "ogonek" 333 0 basechar 0
AnchorPoint: "top" 427 1050 basechar 0
AnchorPoint: "bottom" 131 0 basechar 0
LayerCount: 2
Fore
SplineSet
267 238 m 261
 234 93 135 -18 37 -18 c 260
 -51 -18 -87 54 -48 224 c 262
 91 827 l 262
 128 987 214 1067 352 1067 c 260
 476 1067 535 986 502 841 c 261
 368 807 l 261
 384 877 382 897 367 897 c 260
 351 897 338 872 325 817 c 262
 190 234 l 262
 177 179 172 152 191 152 c 260
 208 152 225 189 238 244 c 261
 267 238 l 261
482 140 m 2
 451 5 l 2
 450 1 449 0 445 -1 c 0
 240 -50 187 22 223 176 c 2
 387 887 l 2
 623 1063 l 2
 628 1067 634 1067 638 1067 c 2
 662 1067 l 2
 666 1067 668 1067 667 1063 c 2
 466 191 l 2
 458 157 461 145 478 144 c 0
 481 144 483 143 482 140 c 2
EndSplineSet
EndChar

StartChar: b
Encoding: 98 98 39
Width: 573
VWidth: 960
Flags: HW
LayerCount: 2
Fore
SplineSet
254.28515625 1450 m 2
 489.28515625 1450 l 2
 493.28515625 1450 494.245117188 1449 493.249023438 1445 c 2
 196.28515625 162 l 257
 -45.71484375 -12 l 6
 -50.71484375 -16 -55.71484375 -18 -59.71484375 -18 c 6
 -84.71484375 -18 l 2
 -88.71484375 -18 -89.71484375 -16 -88.71484375 -12 c 2
 248.28515625 1445 l 2
 249.28515625 1449 250.28515625 1450 254.28515625 1450 c 2
314.28515625 801 m 257
 347.28515625 946 445.185546875 1067 542.51953125 1067 c 256
 650.51953125 1067 686.51953125 997 647.51953125 827 c 258
 508.51953125 224 l 258
 471.51953125 64 384.51953125 -18 236.51953125 -18 c 256
 115.28515625 -18 49.28515625 63 82.28515625 208 c 257
 215.28515625 244 l 257
 199.27734375 174 199.973632812 152 219.922851562 152 c 256
 242.723632812 152 252.53515625 179 265.51953125 234 c 258
 400.51953125 817 l 258
 413.51953125 872 414.72265625 897 391.922851562 897 c 256
 371.97265625 897 358.26953125 862 345.284179688 807 c 257
 314.28515625 801 l 257
EndSplineSet
EndChar

StartChar: c
Encoding: 99 99 40
Width: 462
VWidth: 960
Flags: HW
AnchorPoint: "bottom" 132 0 basechar 0
AnchorPoint: "top" 371 1050 basechar 0
LayerCount: 2
Fore
SplineSet
450.026367188 434 m 0
 436.026367188 377 414.026367188 276 402.026367188 232 c 0
 353.026367188 45 262.026367188 -18 122.743164062 -18 c 256
 -12.2568359375 -18 -72.2568359375 76 -38.2568359375 224 c 258
 100.743164062 827 l 258
 134.743164062 975 225.743164062 1067 375.743164062 1067 c 256
 528.026367188 1067 564.026367188 987 531.026367188 820 c 0
 522.026367188 776 501.026367188 675 488.026367188 617 c 0
 487.026367188 614 487.026367188 613 483.026367188 613 c 2
 338.026367188 613 l 2
 335.026367188 613 332.026367188 615 332.026367188 617 c 0
 348.026367188 685 358.147460938 735 367.102539062 772 c 0
 386.208007812 859 388.328125 873 374.791015625 873 c 256
 359.44921875 873 348.743164062 842 331.743164062 767 c 258
 220.743164062 284 l 258
 203.743164062 212 195.743164062 178 213.84375 178 c 256
 227.381835938 178 235.026367188 192 258.026367188 283 c 0
 268.026367188 320 280.026367188 369 295.026367188 435 c 0
 295.026367188 437 299.026367188 438 302.026367188 438 c 2
 447.026367188 438 l 2
 451.026367188 438 451.026367188 437 450.026367188 434 c 0
EndSplineSet
EndChar

StartChar: d
Encoding: 100 100 41
Width: 569
VWidth: 960
Flags: HW
LayerCount: 2
Fore
SplineSet
289.099609375 238 m 257
 256.099609375 93 168.873046875 -18 66.7431640625 -18 c 260
 -41.2568359375 -18 -77.2568359375 54 -38.2568359375 224 c 258
 100.743164062 827 l 258
 139.743164062 997 208.743164062 1067 316.743164062 1067 c 256
 418.921875 1067 454.065429688 956 421.065429688 811 c 257
 390.505859375 807 l 257
 403.4765625 862 409.678710938 897 388.01953125 897 c 256
 366.359375 897 357.673828125 872 344.704101562 817 c 258
 209.743164062 234 l 258
 196.743164062 179 194.359375 152 216.01953125 152 c 256
 237.6796875 152 247.538085938 189 260.5078125 244 c 257
 289.099609375 238 l 257
784.065429688 1445 m 2
 451.099609375 5 l 2
 450.099609375 1 448.099609375 0 444.099609375 0 c 2
 217.099609375 0 l 2
 213.099609375 0 212.099609375 1 213.099609375 5 c 2
 237.099609375 110 l 257
 233.484375 126 l 257
 538.4375 1445 l 2
 539.43359375 1449 541.345703125 1450 545.145507812 1450 c 2
 779.065429688 1450 l 2
 783.065429688 1450 785.065429688 1449 784.065429688 1445 c 2
EndSplineSet
EndChar

StartChar: e
Encoding: 101 101 42
Width: 551
VWidth: 960
Flags: HW
AnchorPoint: "ogonek" 289 30 basechar 0
AnchorPoint: "bottom" 180 0 basechar 0
AnchorPoint: "top" 427 1050 basechar 0
LayerCount: 2
Fore
SplineSet
530.9453125 414 m 4
 512.9453125 338 502.9453125 300 487.9453125 239 c 4
 441.9453125 58 320.9453125 -18 171.603515625 -18 c 260
 -10.2119140625 -18 -74.2119140625 69 -27.2119140625 274 c 262
 88.7880859375 777 l 262
 134.788085938 977 235.788085938 1067 421.651367188 1067 c 260
 602.9453125 1067 656.9453125 979 611.9453125 767 c 260
 586.9453125 652 578.9453125 607 550.9453125 485 c 4
 550.9453125 483 549.9453125 481 545.9453125 481 c 6
 158.788085938 481 l 261
 177.788085938 565 l 261
 327.321289062 565 l 261
 404.489257812 906 411.279296875 927 389.619140625 927 c 260
 373.375 927 363.764648438 901 349.778320312 841 c 262
 203.788085938 209 l 262
 186.756835938 134 188.291015625 122 202.731445312 122 c 260
 219.87890625 122 242.0546875 185 295.9453125 414 c 4
 295.989257812 416 298.9453125 418 301.9453125 418 c 6
 527.9453125 418 l 6
 531.9453125 418 531.9453125 417 530.9453125 414 c 4
EndSplineSet
EndChar

StartChar: f
Encoding: 102 102 43
Width: 323
VWidth: 960
Flags: HW
LayerCount: 2
Fore
SplineSet
442.212890625 930 m 2
 107.212890625 930 l 2
 103.212890625 930 102.211914062 931 103.212890625 935 c 2
 128.211914062 1045 l 2
 129.211914062 1049 130.211914062 1050 134.211914062 1050 c 2
 469.211914062 1050 l 2
 473.211914062 1050 474.211914062 1049 473.211914062 1045 c 2
 448.212890625 935 l 2
 447.211914062 931 446.212890625 930 442.212890625 930 c 2
235.211914062 1313 m 262
 262.212890625 1432 361.211914062 1469 558.211914062 1440 c 4
 563.211914062 1439 564.212890625 1438 563.211914062 1434 c 6
 533.211914062 1304 l 6
 532.212890625 1301 530.211914062 1299 524.212890625 1300 c 4
 488.211914062 1308 473.212890625 1296 463.211914062 1253 c 262
 92.2119140625 -355 l 6
 91.2119140625 -359 91.2119140625 -360 87.2119140625 -360 c 6
 -145.788085938 -360 l 6
 -149.788085938 -360 -150.788085938 -359 -149.788085938 -355 c 6
 235.211914062 1313 l 262
EndSplineSet
EndChar

StartChar: g
Encoding: 103 103 44
Width: 547
VWidth: 960
Flags: HW
AnchorPoint: "top" 426 1075 basechar 0
LayerCount: 2
Fore
SplineSet
749.625976562 1255 m 0
 711.625976562 1119 597.625976562 1030 429.551757812 1030 c 257
 419.9609375 1045 l 257
 447.036132812 1045 480.625976562 1071 539.625976562 1256 c 0
 540.625976562 1259 542.625976562 1260 546.625976562 1260 c 2
 746.625976562 1260 l 2
 750.625976562 1260 750.625976562 1259 749.625976562 1255 c 0
282.625976562 170 m 258
 422.625976562 170 478.625976562 100 435.625976562 -88 c 256
 389.625976562 -286 281.625976562 -360 97.515625 -360 c 258
 21.83984375 -360 l 258
 -121.499023438 -360 -184.499023438 -296 -154.499023438 -168 c 260
 -131.499023438 -70 -25.4990234375 15 117.55859375 15 c 257
 180.622070312 15 l 257
 139.8046875 5 101.629882812 -44 81.6201171875 -132 c 256
 59.6298828125 -226 69.0966796875 -260 107.905273438 -260 c 258
 114.696289062 -260 l 258
 143.802734375 -260 178.625976562 -206 198.625976562 -118 c 256
 217.625976562 -34 209.625976562 0 170.81640625 0 c 258
 61.18359375 0 l 258
 -38.4990234375 0 -89.4990234375 68 -67.4990234375 162 c 256
 -43.4990234375 266 69.5009765625 333 187.66015625 333 c 257
 165.97265625 283 l 257
 136.866210938 283 111.49609375 262 103.500976562 228 c 256
 92.5009765625 182 129.297851562 170 192.360351562 170 c 258
 282.625976562 170 l 258
323.625976562 494 m 258
 396.643554688 811 l 258
 419.674804688 912 424.885742188 943 405.932617188 943 c 256
 388.78515625 943 375.474609375 913 351.500976562 811 c 258
 278.500976562 494 l 258
 252.126953125 396 251.900390625 363 270.333984375 363 c 256
 290.708007812 363 299.639648438 392 323.625976562 494 c 258
561.625976562 574 m 258
 521.625976562 399 424.625976562 237 241.331054688 237 c 256
 61.5009765625 237 36.5009765625 399 76.5009765625 574 c 258
 124.500976562 781 l 258
 164.500976562 956 252.500976562 1067 433.994140625 1067 c 256
 615.625976562 1067 649.625976562 956 609.625976562 781 c 258
 561.625976562 574 l 258
EndSplineSet
EndChar

StartChar: h
Encoding: 104 104 45
Width: 561
VWidth: 960
Flags: HW
AnchorPoint: "bottom" 173 0 basechar 0
AnchorPoint: "top" 373 1450 basechar 0
LayerCount: 2
Fore
SplineSet
254.27734375 1450 m 2
 489.27734375 1450 l 2
 493.27734375 1450 494.270507812 1449 493.27734375 1445 c 2
 160.27734375 5 l 2
 159.27734375 1 157.27734375 0 154.27734375 0 c 2
 -80.72265625 0 l 2
 -84.72265625 0 -85.72265625 1 -84.72265625 5 c 2
 248.27734375 1445 l 2
 249.27734375 1449 250.27734375 1450 254.27734375 1450 c 2
336.27734375 877 m 257
 364.27734375 997 448.139648438 1067 542.139648438 1067 c 256
 646.139648438 1067 677.139648438 1012 641.139648438 857 c 258
 444.139648438 5 l 2
 443.139648438 1 442.139648438 0 438.139648438 0 c 2
 203.139648438 0 l 2
 199.139648438 0 198.146484375 1 199.139648438 5 c 2
 390.139648438 831 l 258
 402.139648438 881 402.560546875 903 389.92578125 903 c 256
 373.6796875 903 359.27734375 866 335.27734375 761 c 257
 336.27734375 877 l 257
EndSplineSet
EndChar

StartChar: i
Encoding: 105 105 46
Width: 281
VWidth: 960
Flags: HW
AnchorPoint: "bottom" 28.3525 0 basechar 0
AnchorPoint: "ogonek" 28.3525 0 basechar 0
LayerCount: 2
Fore
SplineSet
456.639648438 1480 m 2
 383.639648438 1165 l 2
 382.639648438 1161 381.639648438 1160 377.639648438 1160 c 2
 232.639648438 1160 l 2
 228.639648438 1160 227.639648438 1161 228.639648438 1165 c 2
 301.639648438 1480 l 2
 302.639648438 1484 303.639648438 1485 307.639648438 1485 c 2
 452.639648438 1485 l 2
 456.639648438 1485 457.639648438 1484 456.639648438 1480 c 2
400.639648438 1045 m 6
 160.639648438 5 l 6
 159.639648438 1 158.639648438 0 154.639648438 0 c 6
 -80.3603515625 0 l 6
 -84.3603515625 0 -85.3603515625 1 -84.3603515625 5 c 6
 155.639648438 1045 l 6
 156.639648438 1049 157.639648438 1050 161.639648438 1050 c 6
 396.639648438 1050 l 6
 400.639648438 1050 401.639648438 1049 400.639648438 1045 c 6
EndSplineSet
EndChar

StartChar: j
Encoding: 106 106 47
Width: 301
VWidth: 960
Flags: HW
LayerCount: 2
Fore
SplineSet
165.639648438 -59 m 6
 116.639648438 -271 28.6396484375 -371 -130.360351562 -371 c 4
 -369.360351562 -371 -330.360351562 -200 -295.360351562 -107 c 4
 -293.360351562 -102 -290.360351562 -100 -283.360351562 -100 c 6
 -147.360351562 -100 l 6
 -140.360351562 -100 -138.360351562 -103 -139.360351562 -107 c 4
 -153.360351562 -151 -175.360351562 -204 -145.360351562 -204 c 4
 -117.360351562 -204 -99.3603515625 -145 -79.3603515625 -60 c 6
 174.639648438 1040 l 6
 176.639648438 1047 179.639648438 1050 186.639648438 1050 c 6
 411.639648438 1050 l 6
 418.639648438 1050 421.639648438 1047 419.639648438 1040 c 6
 165.639648438 -59 l 6
476.639648438 1480 m 2
 403.639648438 1165 l 2
 402.639648438 1161 401.639648438 1160 397.639648438 1160 c 2
 252.639648438 1160 l 2
 248.639648438 1160 247.639648438 1161 248.639648438 1165 c 2
 321.639648438 1480 l 2
 322.639648438 1484 323.639648438 1485 327.639648438 1485 c 2
 472.639648438 1485 l 2
 476.639648438 1485 477.639648438 1484 476.639648438 1480 c 2
EndSplineSet
EndChar

StartChar: k
Encoding: 107 107 48
Width: 578
VWidth: 960
Flags: HW
LayerCount: 2
Fore
SplineSet
254.27734375 1450 m 6
 489.27734375 1450 l 6
 493.27734375 1450 494.216796875 1449 493.224609375 1445 c 6
 160.27734375 5 l 6
 159.27734375 1 158.27734375 0 154.27734375 0 c 6
 -80.72265625 0 l 6
 -84.72265625 0 -85.72265625 1 -84.72265625 5 c 6
 248.27734375 1445 l 6
 249.27734375 1449 250.27734375 1450 254.27734375 1450 c 6
171.27734375 422 m 5
 531 1045 l 6
 533 1049 536 1050 542 1050 c 6
 754 1050 l 6
 758 1050 759 1050 755 1045 c 6
 203.27734375 256 l 5
 171.27734375 422 l 5
274.27734375 586 m 261
 412 616 l 261
 523 5 l 6
 524 1 524 0 520 0 c 6
 245 0 l 6
 241.390625 0 239.607421875 1 238.795898438 5 c 6
 274.27734375 586 l 261
EndSplineSet
EndChar

StartChar: l
Encoding: 108 108 49
Width: 280
VWidth: 960
Flags: HW
LayerCount: 2
Fore
SplineSet
254.27734375 1450 m 6
 489.27734375 1450 l 6
 493.27734375 1450 494.27734375 1449 493.27734375 1445 c 6
 160.27734375 5 l 2
 159.27734375 1 157.27734375 0 154.27734375 0 c 2
 -80.72265625 0 l 2
 -84.72265625 0 -85.72265625 1 -84.72265625 5 c 2
 248.27734375 1445 l 6
 249.27734375 1449 250.27734375 1450 254.27734375 1450 c 6
EndSplineSet
EndChar

StartChar: m
Encoding: 109 109 50
Width: 779
VWidth: 960
Flags: HW
LayerCount: 2
Fore
SplineSet
551.885742188 877 m 257
 579.884765625 997 661.609375 1067 758.51953125 1067 c 256
 862.51953125 1067 894.51953125 1012 858.51953125 857 c 258
 661.51953125 5 l 2
 660.51953125 1 659.51953125 0 655.51953125 0 c 2
 430.51953125 0 l 2
 426.51953125 0 425.526367188 1 426.51953125 5 c 2
 623.51953125 857 l 258
 630.51953125 887 627.233398438 903 615.500976562 903 c 256
 603.767578125 903 590.874023438 892 566.862304688 787 c 257
 551.885742188 877 l 257
161.287109375 1050 m 2
 381.287109375 1050 l 2
 385.287109375 1050 386.287109375 1049 385.287109375 1045 c 2
 345.287109375 869 l 257
 346.287109375 855 l 257
 150.287109375 5 l 2
 149.287109375 1 148.287109375 0 144.287109375 0 c 2
 -80.712890625 0 l 2
 -84.712890625 0 -85.712890625 1 -84.712890625 5 c 2
 155.287109375 1045 l 2
 156.287109375 1049 157.287109375 1050 161.287109375 1050 c 2
326.287109375 877 m 257
 354.287109375 997 411.55078125 1067 502.884765625 1067 c 256
 596.884765625 1067 618.856445312 1012 582.870117188 857 c 258
 385.884765625 5 l 2
 384.884765625 1 383.884765625 0 379.884765625 0 c 2
 194.884765625 0 l 2
 190.884765625 0 189.907226562 1 190.900390625 5 c 2
 387.885742188 857 l 258
 394.885742188 887 390.7109375 903 379.880859375 903 c 260
 368.1484375 903 355.266601562 892 331.243164062 787 c 261
 326.287109375 877 l 257
EndSplineSet
EndChar

StartChar: n
Encoding: 110 110 51
Width: 561
VWidth: 960
Flags: HW
AnchorPoint: "bottom" 197 0 basechar 0
AnchorPoint: "top" 440 1050 basechar 0
LayerCount: 2
Fore
SplineSet
161.287109375 1050 m 6
 391.287109375 1050 l 6
 395.287109375 1050 396.287109375 1049 395.287109375 1045 c 6
 355.287109375 869 l 261
 356.287109375 855 l 261
 160.287109375 5 l 6
 159.287109375 1 158.287109375 0 154.287109375 0 c 6
 -80.712890625 0 l 6
 -84.712890625 0 -85.712890625 1 -84.712890625 5 c 6
 155.287109375 1045 l 6
 156.287109375 1049 157.287109375 1050 161.287109375 1050 c 6
336.287109375 877 m 261
 364.287109375 997 448.095703125 1067 542.095703125 1067 c 260
 646.095703125 1067 677.095703125 1012 641.095703125 857 c 262
 444.095703125 5 l 6
 443.095703125 1 442.095703125 0 438.095703125 0 c 6
 203.095703125 0 l 6
 199.095703125 0 198.1015625 1 199.095703125 5 c 6
 390.095703125 831 l 262
 402.095703125 881 402.516601562 903 389.880859375 903 c 260
 373.635742188 903 359.265625 866 335.2421875 761 c 261
 336.287109375 877 l 261
EndSplineSet
EndChar

StartChar: o
Encoding: 111 111 52
Width: 561
VWidth: 960
Flags: HW
AnchorPoint: "top" 412 1050 basechar 0
AnchorPoint: "bottom" 170 0 basechar 0
LayerCount: 2
Fore
SplineSet
-27.2119140625 274 m 262
 88.7880859375 777 l 262
 133.788085938 972 237.788085938 1067 423.651367188 1067 c 260
 609.400390625 1067 669.400390625 972 624.400390625 777 c 262
 508.400390625 274 l 262
 463.400390625 79 359.400390625 -18 173.603515625 -18 c 260
 -12.2119140625 -18 -72.2119140625 79 -27.2119140625 274 c 262
205.788085938 209 m 262
 191.788085938 149 189.389648438 122 205.634765625 122 c 260
 221.87890625 122 232.4140625 149 246.400390625 209 c 262
 392.400390625 841 l 262
 406.400390625 901 407.865234375 927 391.619140625 927 c 260
 375.375 927 365.764648438 901 351.778320312 841 c 262
 205.788085938 209 l 262
EndSplineSet
EndChar

StartChar: p
Encoding: 112 112 53
Width: 571
VWidth: 960
Flags: HW
LayerCount: 2
Fore
SplineSet
314.287109375 801 m 261
 347.287109375 946 419.755859375 1067 519.922851562 1067 c 260
 627.922851562 1067 683.922851562 997 644.922851562 827 c 262
 505.922851562 224 l 262
 466.922851562 54 377.922851562 -18 269.922851562 -18 c 260
 169.708007812 -18 153.287109375 103 186.287109375 248 c 261
 215.287109375 244 l 261
 202.287109375 189 197 152 218.659179688 152 c 260
 240.319335938 152 249.953125 179 262.922851562 234 c 262
 397.922851562 817 l 262
 410.922851562 872 412.319335938 897 390.659179688 897 c 260
 369 897 358.284179688 862 345.287109375 807 c 261
 314.287109375 801 l 261
-167.712890625 -355 m 6
 155.287109375 1045 l 6
 156.287109375 1049 157.287109375 1050 161.287109375 1050 c 6
 389.287109375 1050 l 6
 393.287109375 1050 393.287109375 1049 392.287109375 1045 c 6
 363.287109375 920 l 261
 372.287109375 924 l 261
 77.287109375 -355 l 6
 76.287109375 -359 75.287109375 -360 71.287109375 -360 c 6
 -163.712890625 -360 l 6
 -167.712890625 -360 -168.712890625 -359 -167.712890625 -355 c 6
EndSplineSet
EndChar

StartChar: q
Encoding: 113 113 54
Width: 570
VWidth: 960
Flags: HW
LayerCount: 2
Fore
SplineSet
361.479492188 -360 m 6
 127.479492188 -360 l 6
 123.479492188 -360 121.487304688 -359 122.479492188 -355 c 6
 409.479492188 887 l 261
 651.479492188 1063 l 6
 656.479492188 1067 662.479492188 1067 666.479492188 1067 c 6
 690.479492188 1067 l 6
 694.479492188 1067 696.479492188 1067 695.479492188 1063 c 6
 368.479492188 -355 l 6
 367.479492188 -359 365.479492188 -360 361.479492188 -360 c 6
289.479492188 238 m 261
 256.479492188 93 163.458007812 -18 66.7431640625 -18 c 260
 -41.2568359375 -18 -77.2578125 54 -38.2578125 224 c 262
 100.7421875 827 l 262
 137.7421875 987 223.7421875 1067 371.7421875 1067 c 260
 490.479492188 1067 557.479492188 986 524.479492188 841 c 261
 390.505859375 807 l 261
 406.521484375 877 406.971679688 897 388.01953125 897 c 260
 366.359375 897 357.673828125 872 344.704101562 817 c 262
 209.7421875 234 l 262
 196.743164062 179 194.359375 152 216.01953125 152 c 260
 234.971679688 152 247.538085938 189 260.5078125 244 c 261
 289.479492188 238 l 261
EndSplineSet
EndChar

StartChar: r
Encoding: 114 114 55
Width: 497
VWidth: 960
Flags: HW
AnchorPoint: "top" 350 1050 basechar 0
AnchorPoint: "bottom" 32 0 basechar 0
LayerCount: 2
Fore
SplineSet
277.287109375 513 m 1
 290.287109375 770 l 1
 364.287109375 930 414.122070312 1059 544.041015625 1059 c 0
 693.041015625 1059 596.041015625 813 493.041015625 620 c 4
 490.041015625 615 487.041015625 613 480.041015625 613 c 6
 339.041015625 613 l 2
 332.041015625 613 331.047851562 616 332.041015625 620 c 0
 359.041015625 720 420.041015625 840 392.041015625 840 c 0
 364.970703125 840 327.026367188 718 277.287109375 513 c 1
161.287109375 1050 m 2
 379.287109375 1050 l 2
 383.287109375 1050 383.287109375 1048 382.287109375 1045 c 2
 323.287109375 787 l 25
 340.22265625 783 l 25
 160.260742188 5 l 18
 159.267578125 1 157.287109375 0 154.287109375 0 c 10
 -80.712890625 0 l 18
 -83.712890625 0 -85.712890625 2 -84.712890625 5 c 10
 155.287109375 1045 l 2
 156.287109375 1048 158.287109375 1050 161.287109375 1050 c 2
EndSplineSet
EndChar

StartChar: s
Encoding: 115 115 56
Width: 485
VWidth: 960
Flags: HW
AnchorPoint: "top" 363 1050 basechar 0
AnchorPoint: "bottom" 123 0 basechar 0
LayerCount: 2
Fore
SplineSet
-3.2529296875 399 m 2
 162.747070312 399 l 2
 166.747070312 399 168.747070312 397 167.747070312 394 c 0
 154.747070312 339 146.747070312 299 137.747070312 257 c 0
 123.604492188 190 120.266601562 162 138.31640625 162 c 256
 153.659179688 162 167.654296875 181 184.654296875 256 c 256
 253.747070312 531 24.7470703125 467 102.747070312 804 c 260
 145.747070312 992 251.747070312 1067 396.291992188 1067 c 256
 528.674804688 1067 580.674804688 982 551.674804688 842 c 0
 538.674804688 777 527.674804688 727 513.674804688 666 c 0
 512.674804688 663 511.674804688 661 507.674804688 661 c 2
 350.674804688 661 l 2
 346.674804688 661 345.705078125 664 346.674804688 667 c 0
 355.676757812 706 366.674804688 746 382.69921875 824 c 0
 393.842773438 878 389.712890625 895 377.078125 895 c 256
 365.345703125 895 347.747070312 875 335.747070312 823 c 256
 266.747070312 525 513.674804688 601 428.654296875 231 c 256
 393.654296875 79 309.654296875 -18 139.654296875 -18 c 256
 -40.2529296875 -18 -76.2529296875 65 -48.2529296875 211 c 0
 -39.2529296875 258 -26.2529296875 318 -8.2529296875 395 c 0
 -7.2529296875 398 -7.2529296875 399 -3.2529296875 399 c 2
EndSplineSet
EndChar

StartChar: t
Encoding: 116 116 57
Width: 344
VWidth: 960
Flags: HW
AnchorPoint: "bottom" 134 0 basechar 0
LayerCount: 2
Fore
SplineSet
456.48046875 930 m 2
 96.48046875 930 l 2
 92.48046875 930 90.48046875 931 91.48046875 935 c 2
 116.48046875 1045 l 2
 117.48046875 1049 119.48046875 1050 123.48046875 1050 c 2
 483.48046875 1050 l 2
 487.48046875 1050 487.48046875 1049 486.48046875 1045 c 2
 461.48046875 935 l 2
 460.48046875 931 460.48046875 930 456.48046875 930 c 2
285.48046875 160 m 2
 249.48046875 5 l 2
 248.48046875 1 247.48046875 -1 243.48046875 -1 c 0
 -7.51953125 -30 -69.51953125 22 -33.51953125 176 c 258
 247.48046875 1395 l 6
 248.48046875 1399 250.48046875 1400 254.48046875 1400 c 6
 486.48046875 1400 l 6
 490.48046875 1400 491.48046875 1399 490.48046875 1395 c 6
 217.48046875 211 l 258
 205.48046875 157 239.48046875 155 281.48046875 164 c 0
 284.48046875 165 286.48046875 163 285.48046875 160 c 2
EndSplineSet
EndChar

StartChar: u
Encoding: 117 117 58
Width: 563
VWidth: 960
Flags: HW
AnchorPoint: "ogonek" 319 0 basechar 0
AnchorPoint: "bottom" 142 0 basechar 0
AnchorPoint: "top" 406 1050 basechar 0
LayerCount: 2
Fore
SplineSet
438.208007812 0 m 6
 208.208007812 0 l 6
 204.208007812 0 202.208007812 1 203.208007812 5 c 6
 244.208007812 182 l 261
 243.208007812 195 l 261
 439.185546875 1045 l 6
 440.185546875 1049 440.200195312 1050 444.185546875 1050 c 6
 680.185546875 1050 l 6
 684.185546875 1050 684.185546875 1049 683.185546875 1045 c 6
 443.208007812 5 l 6
 442.208007812 1 442.208007812 0 438.208007812 0 c 6
262.208007812 174 m 261
 234.208007812 54 149.580078125 -18 55.580078125 -18 c 260
 -48.419921875 -18 -79.419921875 39 -43.419921875 194 c 262
 152.580078125 1045 l 6
 153.580078125 1049 155.580078125 1050 159.580078125 1050 c 6
 393.580078125 1050 l 6
 397.580078125 1050 399.565429688 1049 398.573242188 1045 c 6
 207.580078125 218 l 262
 195.580078125 168 194.272460938 148 206.907226562 148 c 260
 223.15234375 148 240.208007812 183 264.208007812 288 c 261
 262.208007812 174 l 261
EndSplineSet
EndChar

StartChar: v
Encoding: 118 118 59
Width: 524
VWidth: 960
Flags: HW
LayerCount: 2
Fore
SplineSet
255.145507812 319 m 261
 478.145507812 1045 l 6
 480.145507812 1049 482.145507812 1050 486.145507812 1050 c 6
 676.145507812 1050 l 6
 680.145507812 1050 681.145507812 1049 678.145507812 1045 c 6
 325.145507812 5 l 6
 322.145507812 1 321.145507812 0 317.145507812 0 c 6
 25.1455078125 0 l 6
 21.1455078125 0 20.1455078125 1 19.1455078125 5 c 6
 120.145507812 1045 l 6
 120.145507812 1049 120.145507812 1050 124.145507812 1050 c 6
 379.145507812 1050 l 6
 383.145507812 1050 385.145507812 1049 385.145507812 1045 c 6
 255.145507812 319 l 261
EndSplineSet
EndChar

StartChar: w
Encoding: 119 119 60
Width: 647
VWidth: 960
InSpiro: 1
Flags: HW
LayerCount: 2
Fore
SplineSet
476.797851562 454 m 257
 637.240234375 1045 l 2
 639.1640625 1049 640.39453125 1050 644.39453125 1050 c 2
 789.39453125 1050 l 2
 793.39453125 1050 794.1640625 1049 792.240234375 1045 c 2
 485.137695312 5 l 2
 483.213867188 1 480.983398438 0 476.983398438 0 c 2
 259.983398438 0 l 2
 255.983398438 0 254.213867188 1 254.137695312 5 c 2
 338.193359375 459 l 257
 200.888671875 5 l 2
 198.96484375 1 196.734375 0 192.734375 0 c 2
 -29.265625 0 l 2
 -33.265625 0 -35.03515625 1 -35.111328125 5 c 2
 132.991210938 1045 l 2
 132.915039062 1049 134.145507812 1050 138.145507812 1050 c 2
 358.145507812 1050 l 2
 362.145507812 1050 362.915039062 1049 362.991210938 1045 c 2
 246.01171875 469 l 257
 432.991210938 1045 l 2
 434.915039062 1049 436.145507812 1050 440.145507812 1050 c 2
 562.39453125 1050 l 2
 566.39453125 1050 567.1640625 1049 567.240234375 1045 c 2
 476.797851562 454 l 257
  Spiro
    482.549 454 v
    642.992 1045 ]
    644.811 1048.07 o
    646.943 1049.59 o
    650.147 1050 [
    795.147 1050 ]
    798.087 1049.59 o
    798.998 1048.07 o
    797.992 1045 [
    490.889 5 ]
    488.811 1.92815 o
    486.197 0.406519 o
    482.735 0 [
    265.735 0 ]
    262.461 0.406519 o
    260.549 1.92815 o
    259.889 5 [
    341.703 459 v
    200.889 5 ]
    198.811 1.92815 o
    196.197 0.406519 o
    192.735 0 [
    -29.2648 0 ]
    -32.5385 0.406519 o
    -34.4511 1.92815 o
    -35.1105 5 [
    132.992 1045 ]
    133.404 1048.07 o
    135.017 1049.59 o
    138.147 1050 [
    358.147 1050 ]
    361.161 1049.59 o
    362.591 1048.07 o
    362.992 1045 [
    246.012 469 v
    432.992 1045 ]
    434.811 1048.07 o
    436.943 1049.59 o
    440.147 1050 [
    568.147 1050 ]
    571.161 1049.59 o
    572.591 1048.07 o
    572.992 1045 [
    0 0 z
  EndSpiro
EndSplineSet
EndChar

StartChar: x
Encoding: 120 120 61
Width: 542
VWidth: 960
Flags: HW
LayerCount: 2
Fore
SplineSet
91.7353515625 0 m 2
 -123.264648438 0 l 2
 -127.264648438 0 -128.264648438 1 -124.264648438 5 c 2
 143.735351562 508 l 261
 138.735351562 1045 l 2
 136.735351562 1049 136.735351562 1050 140.735351562 1050 c 2
 394.244140625 1050 l 2
 397.853515625 1050 399.635742188 1049 400.448242188 1045 c 2
 338.03515625 718 l 257
 455.766601562 1045 l 2
 458.766601562 1049 460.766601562 1050 464.766601562 1050 c 2
 679.766601562 1050 l 2
 683.766601562 1050 683.766601562 1049 679.766601562 1045 c 2
 409.766601562 507 l 261
 457.766601562 5 l 2
 459.766601562 1 458.766601562 0 454.766601562 0 c 2
 174.766601562 0 l 2
 171.155273438 0 169.374023438 1 168.560546875 5 c 2
 221.813476562 326 l 257
 108.995117188 5 l 2
 106.198242188 1 95.345703125 0 91.7353515625 0 c 2
EndSplineSet
EndChar

StartChar: y
Encoding: 121 121 62
Width: 534
VWidth: 960
Flags: HW
AnchorPoint: "top" 404 1050 basechar 0
LayerCount: 2
Fore
SplineSet
252.05859375 281 m 1
 493.05859375 1045 l 2
 495.05859375 1048 497.05859375 1050 501.05859375 1050 c 2
 691.05859375 1050 l 2
 695.05859375 1050 694.05859375 1048 693.05859375 1045 c 2
 312.05859375 -59 l 2
 240.05859375 -268 146.05859375 -371 -12.94140625 -371 c 0
 -251.94140625 -371 -212.94140625 -200 -177.94140625 -107 c 0
 -175.94140625 -102 -172.94140625 -100 -165.94140625 -100 c 2
 -29.94140625 -100 l 2
 -22.94140625 -100 -20.94140625 -103 -21.94140625 -107 c 0
 -35.94140625 -151 -57.94140625 -204 -27.94140625 -204 c 0
 -4.94140625 -204 7.05859375 -163 30.05859375 -104 c 1
 124.05859375 1045 l 2
 124.05859375 1048 124.05859375 1050 128.05859375 1050 c 2
 378.05859375 1050 l 2
 382.05859375 1050 384.05859375 1048 384.05859375 1045 c 2
 252.05859375 281 l 1
EndSplineSet
EndChar

StartChar: z
Encoding: 122 122 63
Width: 479
VWidth: 960
Flags: HW
AnchorPoint: "top" 362 1050 basechar 0
LayerCount: 2
Fore
SplineSet
-116.104492188 5 m 2
 306.895507812 875 l 5
 120.895507812 875 l 2
 116.895507812 875 115.895507812 876 116.895507812 880 c 2
 154.895507812 1045 l 2
 155.895507812 1049 156.895507812 1050 160.895507812 1050 c 2
 630.895507812 1050 l 2
 634.895507812 1050 635.895507812 1049 631.895507812 1045 c 2
 228.895507812 175 l 1
 398.895507812 175 l 2
 402.895507812 175 403.895507812 174 402.895507812 170 c 2
 364.895507812 5 l 2
 363.895507812 2 362.895507812 0 358.895507812 0 c 2
 -116.104492188 0 l 2
 -120.104492188 0 -120.104492188 1 -116.104492188 5 c 2
EndSplineSet
EndChar

StartChar: comma
Encoding: 44 44 65
Width: 400
VWidth: 1920
Flags: HMW
LayerCount: 2
Fore
SplineSet
-99 -310 m 14
 -135 -310 l 22
 -142 -310 -144 -308 -139 -300 c 14
 55 0 l 261
 -35 0 l 6
 -44 0 -45 1 -43 10 c 6
 36 350 l 6
 38 357 41 360 48 360 c 6
 278 360 l 6
 285 360 288 357 286 350 c 6
 210 20 l 6
 208 13 206 9 199 0 c 6
 -75 -300 l 22
 -82 -308 -91 -310 -99 -310 c 14
EndSplineSet
EndChar

StartChar: exclam
Encoding: 33 33 67
Width: 400
VWidth: 1920
Flags: HMW
LayerCount: 2
Fore
SplineSet
195 0 m 6
 -35 0 l 6
 -42 0 -45 3 -43 10 c 6
 36 350 l 6
 38 357 41 360 48 360 c 6
 278 360 l 6
 285 360 288 357 286 350 c 6
 207 10 l 6
 205 3 202 0 195 0 c 6
144 950 m 6
 257 1440 l 6
 259 1447 263 1450 270 1450 c 6
 560 1450 l 6
 567 1450 569 1447 567 1440 c 6
 454 950 l 6
 452 943 451 937 449 930 c 6
 254 510 l 6
 252 503 247 500 240 500 c 6
 150 500 l 6
 143 500 141 503 142 510 c 6
 141 930 l 6
 142 937 142 943 144 950 c 6
EndSplineSet
EndChar

StartChar: quotesingle
Encoding: 39 39 70
Width: 360
VWidth: 1920
Flags: HMW
LayerCount: 2
Fore
SplineSet
282 830 m 2
 212 830 l 2
 205 830 202 833 202 840 c 2
 220 1160 l 2
 220 1167 220 1173 222 1180 c 2
 276 1410 l 2
 278 1417 281 1420 288 1420 c 2
 488 1420 l 2
 495 1420 498 1417 496 1410 c 2
 442 1180 l 2
 440 1173 439 1167 436 1160 c 2
 296 840 l 2
 293 833 289 830 282 830 c 2
EndSplineSet
EndChar

StartChar: question
Encoding: 63 63 71
Width: 600
VWidth: 1920
Flags: HMW
LayerCount: 2
Fore
SplineSet
288 0 m 6
 58 0 l 6
 51 0 48 3 50 10 c 6
 129 350 l 6
 131 357 134 360 141 360 c 6
 371 360 l 6
 378 360 381 357 379 350 c 6
 300 10 l 6
 298 3 295 0 288 0 c 6
327 430 m 2
 182 430 l 2
 178 430 177 432 177 435 c 0
 213 681 344 690 387 877 c 258
 457 1178 l 258
 479 1273 476 1291 458 1291 c 256
 438 1291 427 1266 405 1170 c 258
 356 957 l 2
 355 953 355 952 351 952 c 2
 121 952 l 2
 117 952 115 953 116 957 c 2
 173 1205 l 258
 206 1347 314 1467 512 1467 c 256
 710 1467 779 1361 747 1221 c 258
 681 934 l 258
 616 652 431 662 334 434 c 0
 333 432 330 430 327 430 c 2
EndSplineSet
EndChar

StartChar: parenleft
Encoding: 40 40 72
Width: 332
VWidth: 2048
Flags: HMW
LayerCount: 2
Fore
SplineSet
174 1228 m 262
 221 1430 343 1590 564 1618 c 4
 568 1619 569 1618 568 1614 c 6
 542 1504 l 6
 541 1501 539 1499 536 1497 c 4
 481 1471 454 1413 408 1213 c 262
 137 37 l 262
 91 -163 90 -221 133 -247 c 4
 136 -249 137 -251 136 -254 c 6
 111 -364 l 6
 110 -368 109 -369 105 -368 c 4
 -104 -340 -152 -180 -105 22 c 262
 174 1228 l 262
EndSplineSet
EndChar

StartChar: parenright
Encoding: 41 41 73
Width: 332
VWidth: 2048
Flags: HMW
LayerCount: 2
Fore
SplineSet
207 22 m 258
 160 -180 38 -340 -183 -368 c 0
 -187 -369 -188 -368 -187 -364 c 2
 -162 -254 l 2
 -161 -251 -158 -249 -155 -247 c 0
 -100 -221 -73 -163 -27 37 c 258
 244 1213 l 258
 290 1413 291 1471 248 1497 c 0
 245 1499 243 1501 244 1504 c 2
 270 1614 l 2
 271 1618 272 1619 276 1618 c 0
 485 1590 533 1430 486 1228 c 258
 207 22 l 258
EndSplineSet
EndChar

StartChar: asterisk
Encoding: 42 42 74
Width: 644
VWidth: 2048
Flags: HMW
LayerCount: 2
Fore
SplineSet
486 1204 m 257
 481 1236 l 257
 677 1393 l 2
 680 1395 683 1396 687 1396 c 2
 776 1419 l 2
 780 1419 781 1419 781 1415 c 2
 800 1210 l 2
 800 1206 798 1206 795 1204 c 2
 709 1174 l 2
 706 1172 702 1171 698 1171 c 2
 486 1204 l 257
466 1210 m 257
 499 1231 l 257
 673 1128 l 2
 675 1126 677 1123 678 1120 c 2
 708 1048 l 2
 709 1045 708 1043 705 1041 c 2
 502 914 l 2
 499 912 496 914 494 916 c 2
 457 982 l 2
 455 984 454 987 453 990 c 2
 466 1210 l 257
472 1230 m 257
 495 1210 l 257
 408 990 l 2
 405 987 402 984 400 982 c 2
 331 915 l 2
 329 913 327 912 324 914 c 2
 179 1040 l 2
 176 1042 176 1045 179 1048 c 2
 242 1119 l 2
 245 1122 248 1125 250 1127 c 2
 472 1230 l 257
492 1236 m 257
 474 1203 l 257
 245 1170 l 2
 241 1170 240 1172 237 1174 c 2
 164 1204 l 2
 161 1206 160 1206 162 1210 c 2
 275 1414 l 2
 277 1418 279 1418 283 1418 c 2
 360 1396 l 2
 364 1396 365 1394 368 1392 c 2
 492 1236 l 257
501 1220 m 257
 466 1220 l 257
 413 1420 l 2
 414 1424 414 1426 415 1430 c 2
 439 1515 l 2
 440 1519 441 1520 445 1520 c 2
 660 1520 l 2
 664 1520 666 1519 665 1515 c 2
 649 1430 l 2
 648 1426 648 1424 647 1420 c 2
 501 1220 l 257
EndSplineSet
EndChar

StartChar: at
Encoding: 64 64 75
Width: 935
VWidth: 1920
Flags: HMW
LayerCount: 2
Fore
SplineSet
448 199 m 257
 415 54 410 -17 276 -17 c 256
 168 -17 98 41 137 211 c 258
 281 838 l 258
 318 998 424 1067 542 1067 c 256
 670 1067 661 996 628 851 c 257
 552 841 l 257
 564 891 569 921 546 921 c 256
 522 921 516 901 504 851 c 258
 354 199 l 258
 342 149 339 128 363 128 c 256
 386 128 394 159 406 209 c 257
 448 199 l 257
421 -324 m 0
 380 -354 315 -377 235 -377 c 256
 -83 -377 -114 -191 -59 49 c 258
 159 990 l 258
 218 1245 421 1417 689 1417 c 256
 993 1417 1045 1212 1000 1016 c 258
 819 235 l 258
 777 55 675 -17 561 -17 c 256
 457 -17 371 55 396 165 c 258
 580 961 l 257
 744 1061 l 2
 748 1063 753 1067 757 1067 c 2
 818 1067 l 2
 822 1067 824 1065 823 1061 c 2
 631 231 l 258
 609 134 615 103 649 103 c 256
 677 103 706 135 729 235 c 258
 910 1016 l 258
 949 1186 897 1347 673 1347 c 256
 469 1347 303 1206 255 996 c 258
 35 45 l 258
 -9 -145 -7 -307 251 -307 c 256
 307 -307 368 -287 410 -259 c 0
 415 -256 417 -257 417 -261 c 2
 425 -315 l 2
 425 -319 425 -321 421 -324 c 0
EndSplineSet
EndChar

StartChar: dollar
Encoding: 36 36 76
Width: 564
VWidth: 1920
Flags: HMW
LayerCount: 2
Fore
SplineSet
7 488 m 2
 193 488 l 2
 194 488 197 487 195 480 c 2
 158 320 l 2
 132 206 120 155 190 155 c 256
 244 155 274 217 302 338 c 256
 331 462 323 561 263 644 c 256
 160 787 94 875 151 1123 c 256
 193 1303 294 1435 475 1435 c 256
 657 1435 709 1336 659 1121 c 2
 624 971 l 2
 622 964 619 963 616 963 c 2
 452 963 l 2
 449 963 446 964 448 971 c 2
 485 1131 l 2
 502 1206 499 1265 441 1265 c 256
 405 1265 368 1203 347 1113 c 256
 335 1062 305 912 395 812 c 256
 504 692 571 597 514 348 c 256
 450 71 336 -35 136 -35 c 260
 -48 -35 -95 63 -36 319 c 2
 1 479 l 2
 3 486 6 488 7 488 c 2
502 1590 m 2
 532 1590 l 2
 536 1590 537 1587 535 1580 c 2
 128 -180 l 2
 126 -187 125 -190 121 -190 c 2
 91 -190 l 2
 87 -190 86 -187 88 -180 c 2
 495 1580 l 2
 497 1587 498 1590 502 1590 c 2
EndSplineSet
EndChar

StartChar: numbersign
Encoding: 35 35 77
Width: 805
VWidth: 1920
Flags: HMW
LayerCount: 2
Fore
SplineSet
11 545 m 6
 766 545 l 6
 770 545 771 544 770 540 c 6
 736 395 l 6
 735 391 734 390 730 390 c 6
 -25 390 l 6
 -29 390 -30 391 -29 395 c 6
 5 540 l 6
 6 544 7 545 11 545 c 6
167 1050 m 2
 922 1050 l 2
 926 1050 927 1049 926 1045 c 2
 893 900 l 2
 892 896 891 895 887 895 c 2
 132 895 l 2
 128 895 127 896 128 900 c 2
 161 1045 l 2
 162 1049 163 1050 167 1050 c 2
718 1400 m 2
 933 1400 l 2
 938 1400 938 1399 936 1395 c 2
 452 5 l 2
 450 1 450 0 445 0 c 2
 230 0 l 2
 225 0 225 1 227 5 c 2
 711 1395 l 2
 713 1399 713 1400 718 1400 c 2
433 1400 m 2
 648 1400 l 2
 652 1400 653 1399 651 1395 c 2
 167 5 l 2
 165 1 164 0 160 0 c 2
 -55 0 l 2
 -59 0 -60 1 -58 5 c 2
 426 1395 l 2
 428 1399 429 1400 433 1400 c 2
EndSplineSet
EndChar

StartChar: slash
Encoding: 47 47 78
Width: 520
VWidth: 2048
Flags: HMW
LayerCount: 2
Fore
SplineSet
700 1395 m 6
 48 -95 l 2
 45 -99 43 -100 39 -100 c 2
 -131 -100 l 2
 -135 -100 -135 -99 -132 -95 c 2
 520 1395 l 6
 523 1399 525 1400 528 1400 c 6
 698 1400 l 6
 702 1400 703 1399 700 1395 c 6
EndSplineSet
EndChar

StartChar: percent
Encoding: 37 37 79
Width: 927
VWidth: 2048
Flags: HMW
LayerCount: 2
Fore
SplineSet
146 1042 m 262
 184 1209 l 262
 215 1344 311 1418 449 1418 c 260
 587 1418 655 1344 624 1209 c 262
 586 1042 l 262
 555 907 452 832 314 832 c 260
 176 832 115 907 146 1042 c 262
329 1026 m 262
 315 966 311 942 339 942 c 260
 367 942 381 966 395 1026 c 262
 441 1224 l 262
 455 1284 452 1308 424 1308 c 260
 396 1308 389 1284 375 1224 c 262
 329 1026 l 262
387 192 m 262
 426 359 l 262
 457 494 553 568 691 568 c 260
 829 568 897 494 866 359 c 262
 827 192 l 262
 796 57 694 -18 556 -18 c 260
 418 -18 356 57 387 192 c 262
571 176 m 262
 557 116 553 92 581 92 c 260
 609 92 623 116 637 176 c 262
 682 374 l 262
 696 434 694 458 666 458 c 260
 638 458 630 434 616 374 c 262
 571 176 l 262
1092 1395 m 6
 99 5 l 6
 96 1 94 0 90 0 c 6
 -80 0 l 6
 -84 0 -84 1 -81 5 c 6
 912 1395 l 6
 915 1399 917 1400 921 1400 c 6
 1091 1400 l 6
 1095 1400 1095 1399 1092 1395 c 6
EndSplineSet
EndChar

StartChar: hyphen
Encoding: 45 45 80
Width: 285
VWidth: 1920
Flags: HMW
LayerCount: 2
Fore
SplineSet
22 529 m 10
 61 696 l 18
 62 700 63 701 67 701 c 10
 302 701 l 18
 306 701 307 700 306 696 c 10
 267 529 l 18
 266 525 265 524 261 524 c 10
 26 524 l 18
 22 524 21 525 22 529 c 10
EndSplineSet
EndChar

StartChar: underscore
Encoding: 95 95 81
Width: 450
VWidth: 1920
Flags: HMW
LayerCount: 2
Fore
SplineSet
-160 -172 m 14
 -121 -5 l 22
 -120 -1 -119 0 -115 0 c 14
 325 0 l 22
 329 0 330 -1 329 -5 c 14
 290 -172 l 22
 289 -176 288 -178 284 -178 c 14
 -156 -178 l 22
 -160 -178 -161 -176 -160 -172 c 14
EndSplineSet
EndChar

StartChar: plus
Encoding: 43 43 82
Width: 520
VWidth: 1920
Flags: HMW
LayerCount: 2
Fore
SplineSet
41 602 m 14
 80 770 l 18
 81 774 83 775 87 775 c 10
 551 775 l 18
 555 775 557 774 556 770 c 10
 517 602 l 22
 516 598 514 598 510 598 c 14
 46 598 l 22
 42 598 40 598 41 602 c 14
274 935 m 10
 438 935 l 18
 442 935 444 934 443 930 c 10
 327 430 l 18
 326 426 324 425 320 425 c 10
 156 425 l 18
 152 425 150 426 151 430 c 10
 267 930 l 18
 268 934 270 935 274 935 c 10
EndSplineSet
EndChar

StartChar: equal
Encoding: 61 61 83
Width: 590
VWidth: 1920
Flags: HMW
LayerCount: 2
Fore
SplineSet
23 296 m 14
 62 464 l 22
 63 468 64 469 68 469 c 14
 498 469 l 22
 502 469 503 468 502 464 c 14
 463 296 l 22
 462 292 461 291 457 291 c 14
 27 291 l 22
 23 291 22 292 23 296 c 14
78 531 m 14
 116 699 l 22
 117 703 119 704 123 704 c 14
 553 704 l 22
 557 704 557 703 556 699 c 14
 518 531 l 22
 517 527 515 526 511 526 c 14
 81 526 l 22
 77 526 77 527 78 531 c 14
EndSplineSet
EndChar

StartChar: less
Encoding: 60 60 84
Width: 505
VWidth: 1920
Flags: HMW
LayerCount: 2
Fore
SplineSet
365 343 m 2
 21 522 l 2
 17 524 17 526 18 530 c 2
 51 670 l 6
 52 674 53 676 57 678 c 6
 484 857 l 2
 488 859 488 859 487 855 c 2
 446 675 l 2
 445 671 444 669 440 667 c 2
 203 600 l 257
 409 533 l 2
 413 531 412 529 411 525 c 2
 370 345 l 2
 369 341 369 341 365 343 c 2
EndSplineSet
EndChar

StartChar: greater
Encoding: 62 62 85
Width: 505
VWidth: 1920
Flags: HMW
LayerCount: 2
Fore
SplineSet
178 857 m 2
 523 678 l 2
 527 676 526 674 525 670 c 2
 492 530 l 2
 491 526 491 524 487 522 c 2
 59 343 l 2
 55 341 55 341 56 345 c 2
 97 525 l 6
 98 529 99 531 103 533 c 6
 339 600 l 257
 134 667 l 2
 130 669 131 671 132 675 c 2
 173 855 l 2
 174 859 174 859 178 857 c 2
EndSplineSet
EndChar

StartChar: backslash
Encoding: 92 92 86
Width: 519
VWidth: 2048
Flags: HMW
LayerCount: 2
Fore
SplineSet
368 -95 m 2
 369 -99 368 -100 364 -100 c 2
 194 -100 l 2
 191 -100 189 -99 188 -95 c 2
 224 1395 l 2
 223 1399 224 1400 228 1400 c 2
 398 1400 l 2
 402 1400 403 1399 404 1395 c 2
 368 -95 l 2
EndSplineSet
EndChar

StartChar: bracketleft
Encoding: 91 91 87
Width: 380
VWidth: 1920
Flags: HMW
LayerCount: 2
Fore
SplineSet
456 1475 m 261
 61 -235 l 261
 176 -235 l 6
 180 -235 181 -236 180 -240 c 6
 153 -355 l 6
 152 -359 151 -360 147 -360 c 6
 -163 -360 l 6
 -167 -360 -168 -359 -167 -355 c 6
 283 1595 l 6
 284 1599 285 1600 289 1600 c 6
 599 1600 l 6
 603 1600 604 1599 603 1595 c 6
 577 1480 l 6
 576 1476 575 1475 571 1475 c 6
 456 1475 l 261
EndSplineSet
EndChar

StartChar: braceleft
Encoding: 123 123 88
Width: 388
VWidth: 2048
Flags: HMW
LayerCount: 2
Fore
SplineSet
290 1439 m 262
 316 1553 372 1599 581 1600 c 4
 585 1600 587 1599 586 1595 c 6
 562 1490 l 6
 561 1486 559 1485 555 1485 c 4
 505 1483 481 1456 461 1369 c 262
 327 788 l 262
 306 696 250 644 166 620 c 261
 238 596 270 544 249 452 c 262
 116 -124 l 262
 96 -210 109 -237 156 -240 c 4
 161 -240 162 -241 161 -245 c 6
 136 -355 l 6
 135 -359 133 -360 129 -360 c 4
 -79 -358 -114 -313 -88 -199 c 262
 62 452 l 262
 77 518 65 545 21 561 c 4
 17 563 15 564 16 568 c 6
 40 672 l 6
 41 676 43 677 47 678 c 4
 101 694 125 721 140 788 c 262
 290 1439 l 262
EndSplineSet
EndChar

StartChar: bracketright
Encoding: 93 93 89
Width: 380
VWidth: 1920
Flags: HMW
LayerCount: 2
Fore
SplineSet
-29 -235 m 257
 366 1475 l 257
 251 1475 l 2
 247 1475 246 1476 247 1480 c 2
 273 1595 l 2
 274 1599 275 1600 279 1600 c 2
 589 1600 l 2
 593 1600 594 1599 593 1595 c 2
 143 -355 l 2
 142 -359 141 -360 137 -360 c 2
 -173 -360 l 2
 -177 -360 -178 -359 -177 -355 c 2
 -150 -240 l 2
 -149 -236 -148 -235 -144 -235 c 2
 -29 -235 l 257
EndSplineSet
EndChar

StartChar: braceright
Encoding: 125 125 90
Width: 388
VWidth: 2048
Flags: HMW
LayerCount: 2
Fore
SplineSet
144 -199 m 258
 118 -313 62 -359 -147 -360 c 0
 -151 -360 -153 -359 -152 -355 c 2
 -128 -250 l 2
 -127 -246 -125 -245 -121 -245 c 0
 -71 -243 -47 -216 -27 -129 c 258
 107 452 l 258
 128 544 184 596 268 620 c 257
 196 644 164 696 185 788 c 258
 318 1364 l 258
 338 1450 326 1477 279 1480 c 0
 274 1480 272 1481 273 1485 c 2
 298 1595 l 2
 299 1599 301 1600 305 1600 c 0
 513 1598 548 1553 522 1439 c 258
 372 788 l 258
 357 722 370 695 414 679 c 0
 418 677 419 676 418 672 c 2
 394 568 l 2
 393 564 392 563 388 562 c 0
 334 546 309 519 294 452 c 258
 144 -199 l 258
EndSplineSet
EndChar

StartChar: bar
Encoding: 124 124 91
Width: 260
VWidth: 1920
Flags: HMW
LayerCount: 2
Fore
SplineSet
294 1600 m 14
 464 1600 l 22
 468 1600 469 1597 467 1590 c 14
 19 -350 l 22
 17 -357 16 -360 12 -360 c 14
 -158 -360 l 22
 -162 -360 -163 -357 -161 -350 c 14
 287 1590 l 22
 289 1597 290 1600 294 1600 c 14
EndSplineSet
EndChar

StartChar: asciitilde
Encoding: 126 126 92
Width: 664
VWidth: 2048
Flags: HMW
LayerCount: 2
Fore
SplineSet
220 562 m 256
 194 562 186 537 178 511 c 0
 177 508 174 507 171 507 c 2
 1 507 l 2
 -3 507 -3 508 -2 511 c 0
 24 615 126 742 261 742 c 256
 405 742 432 644 483 644 c 260
 509 644 520 678 527 699 c 4
 528 702 530 704 533 704 c 6
 703 704 l 6
 707 704 706 703 705 699 c 4
 679 595 577 469 442 469 c 260
 298 469 271 562 220 562 c 256
EndSplineSet
EndChar

StartChar: asciicircum
Encoding: 94 94 93
Width: 412
VWidth: 1920
InSpiro: 1
Flags: HMW
LayerCount: 2
Fore
SplineSet
346.112304688 1131 m 257
 227.842773438 740 l 2
 225.45703125 734 222.534179688 730 218.534179688 730 c 2
 33.5341796875 730 l 2
 29.5341796875 730 30.45703125 734 32.8427734375 740 c 2
 318.907226562 1390 l 2
 322.984375 1399 324.215820312 1400 328.215820312 1400 c 2
 488.215820312 1400 l 2
 492.215820312 1400 492.984375 1399 492.907226562 1390 c 2
 478.842773438 740 l 2
 479.45703125 734 479.534179688 730 473.534179688 730 c 2
 288.534179688 730 l 2
 283.534179688 730 283.45703125 734 283.842773438 740 c 2
 346.112304688 1131 l 257
EndSplineSet
EndChar

StartChar: figuredash
Encoding: 8210 8210 108
Width: 575
VWidth: 2048
Flags: HMW
LayerCount: 2
Fore
SplineSet
22 529 m 10
 61 696 l 22
 62 700 63 701 67 701 c 14
 592 701 l 22
 596 701 597 700 596 696 c 14
 557 529 l 18
 556 525 555 524 551 524 c 10
 26 524 l 18
 22 524 21 525 22 529 c 10
EndSplineSet
EndChar

StartChar: endash
Encoding: 8211 8211 109
Width: 550
VWidth: 2048
Flags: HMW
LayerCount: 2
Fore
SplineSet
22 529 m 10
 61 696 l 22
 62 700 63 701 67 701 c 14
 567 701 l 22
 571 701 572 700 571 696 c 14
 532 529 l 18
 531 525 530 524 526 524 c 10
 26 524 l 18
 22 524 21 525 22 529 c 10
EndSplineSet
EndChar

StartChar: emdash
Encoding: 8212 8212 110
Width: 1100
VWidth: 2048
Flags: HMW
LayerCount: 2
Fore
SplineSet
22 529 m 14
 61 696 l 18
 62 700 63 701 67 701 c 10
 1117 701 l 18
 1121 701 1122 700 1121 696 c 10
 1082 529 l 22
 1081 525 1080 524 1076 524 c 14
 26 524 l 22
 22 524 21 525 22 529 c 14
EndSplineSet
EndChar

StartChar: uni2015
Encoding: 8213 8213 111
Width: 1180
VWidth: 2048
Flags: HMW
LayerCount: 2
Fore
SplineSet
22 529 m 10
 61 696 l 22
 62 700 63 701 67 701 c 14
 1197 701 l 22
 1201 701 1202 700 1201 696 c 14
 1162 529 l 18
 1161 525 1160 524 1156 524 c 10
 26 524 l 18
 22 524 21 525 22 529 c 10
EndSplineSet
EndChar

StartChar: quoteleft
Encoding: 8216 8216 114
Width: 400
VWidth: 1920
Flags: HMW
LayerCount: 2
Fore
SplineSet
518 1435 m 14
 554 1435 l 22
 561 1435 564 1433 559 1425 c 14
 365 1125 l 261
 455 1125 l 6
 464 1125 464 1124 462 1115 c 6
 384 775 l 6
 382 768 379 765 372 765 c 6
 142 765 l 6
 135 765 132 768 134 775 c 6
 210 1105 l 6
 212 1112 214 1116 221 1125 c 6
 495 1425 l 22
 502 1433 510 1435 518 1435 c 14
EndSplineSet
EndChar

StartChar: quotereversed
Encoding: 8219 8219 117
Width: 400
VWidth: 1920
Flags: HMW
LayerCount: 2
Fore
SplineSet
356 730 m 22
 348 730 340 732 337 740 c 14
 201 1040 l 6
 198 1049 198 1053 200 1060 c 6
 276 1390 l 6
 278 1397 281 1400 288 1400 c 6
 518 1400 l 6
 525 1400 528 1397 526 1390 c 6
 447 1050 l 6
 445 1041 444 1040 435 1040 c 6
 345 1040 l 261
 401 740 l 22
 403 732 399 730 392 730 c 14
 356 730 l 22
EndSplineSet
EndChar

StartChar: bullet
Encoding: 8226 8226 120
Width: 395
VWidth: 2048
Flags: HMW
LayerCount: 2
Fore
SplineSet
75 722 m 262
 75 769 l 262
 75 864 147 922 245 922 c 260
 343 922 420 864 420 769 c 262
 420 722 l 262
 420 627 343 568 245 568 c 260
 147 568 75 627 75 722 c 262
EndSplineSet
EndChar

StartChar: dagger
Encoding: 8224 8224 124
Width: 554
VWidth: 1920
Flags: HMW
LayerCount: 2
Fore
SplineSet
114 928 m 14
 141 1045 l 22
 142 1049 142 1050 146 1050 c 14
 652 1050 l 22
 656 1050 656 1049 655 1045 c 14
 628 928 l 22
 627 924 627 922 623 922 c 14
 117 922 l 22
 113 922 113 924 114 928 c 14
363 1400 m 14
 597 1400 l 22
 601 1400 603 1399 602 1395 c 14
 281 5 l 22
 280 1 278 0 274 0 c 14
 40 0 l 22
 36 0 34 1 35 5 c 14
 356 1395 l 22
 357 1399 359 1400 363 1400 c 14
EndSplineSet
EndChar

StartChar: daggerdbl
Encoding: 8225 8225 125
Width: 554
VWidth: 1920
Flags: HMW
LayerCount: 2
Fore
SplineSet
-99 6 m 14
 -72 123 l 22
 -71 127 -70 128 -66 128 c 14
 440 128 l 22
 444 128 443 127 442 123 c 14
 415 6 l 22
 414 2 414 0 410 0 c 14
 -96 0 l 22
 -100 0 -100 2 -99 6 c 14
114 928 m 10
 141 1045 l 18
 142 1049 142 1050 146 1050 c 10
 652 1050 l 18
 656 1050 656 1049 655 1045 c 10
 628 928 l 18
 627 924 627 922 623 922 c 10
 117 922 l 18
 113 922 113 924 114 928 c 10
363 1400 m 10
 597 1400 l 18
 601 1400 603 1399 602 1395 c 10
 198 -355 l 18
 197 -359 195 -360 191 -360 c 10
 -43 -360 l 18
 -47 -360 -49 -359 -48 -355 c 10
 356 1395 l 18
 357 1399 359 1400 363 1400 c 10
EndSplineSet
EndChar

StartChar: perthousand
Encoding: 8240 8240 126
Width: 1417
VWidth: 2048
Flags: HMW
LayerCount: 2
Fore
SplineSet
877 192 m 262
 916 359 l 262
 947 494 1043 568 1181 568 c 260
 1319 568 1387 494 1356 359 c 262
 1317 192 l 262
 1286 57 1184 -18 1046 -18 c 260
 908 -18 846 57 877 192 c 262
1061 176 m 262
 1047 116 1043 92 1071 92 c 260
 1099 92 1113 116 1127 176 c 262
 1172 374 l 262
 1186 434 1184 458 1156 458 c 260
 1128 458 1120 434 1106 374 c 262
 1061 176 l 262
146 1042 m 262
 184 1209 l 262
 215 1344 311 1418 449 1418 c 260
 587 1418 655 1344 624 1209 c 262
 586 1042 l 262
 555 907 452 832 314 832 c 260
 176 832 115 907 146 1042 c 262
329 1026 m 262
 315 966 311 942 339 942 c 260
 367 942 381 966 395 1026 c 262
 441 1224 l 262
 455 1284 452 1308 424 1308 c 260
 396 1308 389 1284 375 1224 c 262
 329 1026 l 262
387 192 m 262
 426 359 l 262
 457 494 553 568 691 568 c 260
 829 568 897 494 866 359 c 262
 827 192 l 262
 796 57 694 -18 556 -18 c 260
 418 -18 356 57 387 192 c 262
571 176 m 262
 557 116 553 92 581 92 c 260
 609 92 623 116 637 176 c 262
 682 374 l 262
 696 434 694 458 666 458 c 260
 638 458 630 434 616 374 c 262
 571 176 l 262
1092 1395 m 6
 99 5 l 6
 96 1 94 0 90 0 c 6
 -80 0 l 6
 -84 0 -84 1 -81 5 c 6
 912 1395 l 6
 915 1399 917 1400 921 1400 c 6
 1091 1400 l 6
 1095 1400 1095 1399 1092 1395 c 6
EndSplineSet
EndChar

StartChar: uni2031
Encoding: 8241 8241 127
Width: 1907
VWidth: 2048
Flags: HMW
LayerCount: 2
Fore
SplineSet
1367 192 m 262
 1406 359 l 262
 1437 494 1533 568 1671 568 c 260
 1809 568 1877 494 1846 359 c 262
 1807 192 l 262
 1776 57 1674 -18 1536 -18 c 260
 1398 -18 1336 57 1367 192 c 262
1551 176 m 262
 1537 116 1533 92 1561 92 c 260
 1589 92 1603 116 1617 176 c 262
 1662 374 l 262
 1676 434 1674 458 1646 458 c 260
 1618 458 1610 434 1596 374 c 262
 1551 176 l 262
877 192 m 258
 916 359 l 258
 947 494 1043 568 1181 568 c 256
 1319 568 1387 494 1356 359 c 258
 1317 192 l 258
 1286 57 1184 -18 1046 -18 c 256
 908 -18 846 57 877 192 c 258
1061 176 m 258
 1047 116 1043 92 1071 92 c 256
 1099 92 1113 116 1127 176 c 258
 1172 374 l 258
 1186 434 1184 458 1156 458 c 256
 1128 458 1120 434 1106 374 c 258
 1061 176 l 258
146 1042 m 258
 184 1209 l 258
 215 1344 311 1418 449 1418 c 256
 587 1418 655 1344 624 1209 c 258
 586 1042 l 258
 555 907 452 832 314 832 c 256
 176 832 115 907 146 1042 c 258
329 1026 m 258
 315 966 311 942 339 942 c 256
 367 942 381 966 395 1026 c 258
 441 1224 l 258
 455 1284 452 1308 424 1308 c 256
 396 1308 389 1284 375 1224 c 258
 329 1026 l 258
387 192 m 258
 426 359 l 258
 457 494 553 568 691 568 c 256
 829 568 897 494 866 359 c 258
 827 192 l 258
 796 57 694 -18 556 -18 c 256
 418 -18 356 57 387 192 c 258
571 176 m 258
 557 116 553 92 581 92 c 256
 609 92 623 116 637 176 c 258
 682 374 l 258
 696 434 694 458 666 458 c 256
 638 458 630 434 616 374 c 258
 571 176 l 258
1092 1395 m 2
 99 5 l 2
 96 1 94 0 90 0 c 2
 -80 0 l 2
 -84 0 -84 1 -81 5 c 2
 912 1395 l 2
 915 1399 917 1400 921 1400 c 2
 1091 1400 l 2
 1095 1400 1095 1399 1092 1395 c 2
EndSplineSet
EndChar

StartChar: fraction
Encoding: 8260 8260 128
Width: 580
VWidth: 1920
Flags: HMW
LayerCount: 2
Fore
SplineSet
586 1303 m 2
 689 1263 l 2
 692 1262 691 1259 689 1256 c 10
 104 139 l 18
 102 136 100 136 97 137 c 10
 -6 177 l 18
 -9 178 -9 181 -7 184 c 10
 578 1301 l 18
 580 1304 584 1304 586 1303 c 2
EndSplineSet
EndChar

StartChar: uni2074
Encoding: 8308 8308 129
Width: 349
VWidth: 1920
Flags: HMW
LayerCount: 2
Fore
SplineSet
443 927 m 2
 420 828 l 2
 420 826 418 825 416 825 c 2
 362 825 l 257
 318 633 l 2
 318 631 316 630 314 630 c 2
 173 630 l 2
 171 630 171 631 171 633 c 2
 215 825 l 257
 83 825 l 2
 81 825 81 826 81 828 c 2
 111 957 l 2
 111 959 114 966 116 969 c 2
 356 1467 l 2
 357 1469 359 1470 361 1470 c 2
 508 1470 l 2
 510 1470 511 1469 511 1467 c 2
 387 930 l 257
 441 930 l 2
 443 930 443 929 443 927 c 2
243 930 m 257
 312 1230 l 257
 184 930 l 257
 243 930 l 257
EndSplineSet
EndChar

StartChar: uni2073
Encoding: 8307 8307 130
Width: 354
VWidth: 1920
Flags: HMW
LayerCount: 2
Fore
SplineSet
109 904 m 2
 250 904 l 2
 252 904 252 902 252 900 c 2
 226 788 l 2
 218 752 211 725 225 725 c 0
 239 725 245 747 254 786 c 2
 294 956 l 2
 300 983 301 1002 272 1002 c 2
 248 1002 l 2
 246 1002 246 1003 246 1005 c 2
 269 1104 l 2
 269 1106 271 1107 273 1107 c 2
 291 1107 l 2
 317 1107 326 1119 332 1143 c 2
 373 1322 l 2
 381 1358 383 1374 370 1374 c 0
 357 1374 351 1354 344 1323 c 2
 317 1204 l 2
 317 1202 316 1201 314 1201 c 2
 176 1201 l 2
 174 1201 173 1202 173 1204 c 2
 205 1341 l 2
 221 1411 276 1480 398 1480 c 0
 520 1480 542 1408 526 1339 c 2
 490 1181 l 2
 467 1082 402 1050 295 1050 c 1
 305 1065 l 1
 412 1065 458 1035 434 930 c 2
 401 788 l 2
 377 686 321 619 184 619 c 0
 66 619 54 681 75 770 c 2
 105 900 l 2
 105 902 107 904 109 904 c 2
EndSplineSet
EndChar

StartChar: uni2072
Encoding: 8306 8306 131
Width: 360
VWidth: 1920
Flags: HMW
LayerCount: 2
Fore
SplineSet
46 655 m 258
 111 938 300 991 348 1200 c 258
 379 1333 l 258
 387 1369 388 1383 377 1383 c 256
 367 1383 363 1368 355 1334 c 258
 307 1128 l 2
 307 1126 305 1125 303 1125 c 2
 165 1125 l 2
 163 1125 163 1126 163 1128 c 2
 207 1316 l 258
 230 1416 291 1488 410 1488 c 256
 508 1488 544 1424 522 1328 c 258
 501 1237 l 258
 444 992 246 887 215 751 c 258
 215 748 l 257
 395 748 l 2
 397 748 397 747 397 745 c 2
 373 640 l 2
 373 638 371 637 369 637 c 2
 45 637 l 2
 43 637 43 638 43 640 c 2
 46 655 l 258
EndSplineSet
EndChar

StartChar: uni2070
Encoding: 8304 8304 132
Width: 389
VWidth: 1920
Flags: HMW
LayerCount: 2
Fore
SplineSet
84 777 m 258
 211 1324 l 258
 234 1422 296 1481 417 1481 c 256
 538 1481 573 1422 550 1324 c 258
 423 777 l 258
 400 679 339 620 218 620 c 256
 97 620 61 679 84 777 c 258
233 783 m 258
 223 739 223 722 242 722 c 256
 261 722 268 739 278 783 c 258
 401 1318 l 258
 411 1362 412 1379 393 1379 c 256
 374 1379 366 1362 356 1318 c 258
 233 783 l 258
EndSplineSet
EndChar

StartChar: uni2075
Encoding: 8309 8309 133
Width: 382
VWidth: 1920
Flags: HMW
LayerCount: 2
Fore
SplineSet
107 842 m 2
 242 842 l 2
 244 842 245 841 245 839 c 0
 220 732 222 715 236 715 c 0
 253 715 260 739 286 851 c 2
 321 1002 l 2
 333 1056 337 1075 324 1075 c 0
 308 1075 302 1051 280 958 c 0
 279 955 276 955 274 955 c 2
 139 955 l 2
 137 955 136 956 137 958 c 2
 286 1460 l 2
 287 1462 288 1463 290 1463 c 2
 554 1463 l 2
 556 1463 557 1462 557 1460 c 2
 547 1417 l 2
 539 1381 518 1358 452 1358 c 2
 376 1358 l 1
 276 1040 l 1
 269 1040 l 1
 297 1143 339 1181 405 1181 c 0
 477 1181 501 1142 471 1014 c 2
 433 851 l 2
 392 675 324 613 201 613 c 0
 101 613 67 657 104 839 c 0
 104 841 105 842 107 842 c 2
EndSplineSet
EndChar

StartChar: uni2076
Encoding: 8310 8310 134
Width: 388
VWidth: 1920
Flags: HMW
LayerCount: 2
Fore
SplineSet
316 1033 m 256
 301 1033 294 1016 280 955 c 258
 276 937 l 257
 255 961 l 257
 273 1040 317 1108 388 1108 c 256
 474 1108 484 1047 460 941 c 258
 426 791 l 258
 399 672 343 622 225 622 c 256
 94 622 73 683 106 827 c 258
 216 1304 l 258
 242 1418 301 1481 417 1481 c 256
 536 1481 561 1421 537 1318 c 258
 504 1174 l 2
 504 1172 502 1171 500 1171 c 2
 365 1171 l 2
 363 1171 363 1172 363 1174 c 2
 394 1306 l 258
 403 1346 410 1376 394 1376 c 256
 379 1376 371 1347 361 1302 c 258
 246 807 l 258
 231 744 232 727 246 727 c 256
 264 727 268 745 282 805 c 258
 315 947 l 258
 329 1008 331 1033 316 1033 c 256
EndSplineSet
EndChar

StartChar: uni2077
Encoding: 8311 8311 135
Width: 280
VWidth: 1920
Flags: HMW
LayerCount: 2
Fore
SplineSet
514 1467 m 10
 207 633 l 18
 206 630 204 630 201 630 c 10
 49 630 l 18
 46 630 48 631 48 633 c 10
 356 1335 l 25
 190 1335 l 18
 188 1335 188 1335 189 1338 c 10
 219 1467 l 18
 220 1470 219 1470 221 1470 c 10
 512 1470 l 18
 514 1470 514 1469 514 1467 c 10
EndSplineSet
EndChar

StartChar: uni2078
Encoding: 8312 8312 136
Width: 404
VWidth: 1920
Flags: HMW
LayerCount: 2
Fore
SplineSet
250 724 m 256
 268 724 275 737 280 760 c 258
 329 971 l 258
 334 994 334 1008 316 1008 c 256
 298 1008 289 994 284 971 c 258
 235 760 l 258
 230 737 232 724 250 724 c 256
340 1113 m 256
 355 1113 361 1124 365 1141 c 258
 414 1353 l 258
 417 1367 415 1377 401 1377 c 256
 387 1377 377 1367 374 1353 c 258
 325 1141 l 258
 321 1124 325 1113 340 1113 c 256
339 1068 m 257
 468 1068 486 1016 466 928 c 258
 429 765 l 258
 408 673 363 620 226 620 c 256
 104 620 68 673 89 765 c 258
 126 928 l 258
 146 1016 206 1068 320 1068 c 257
 318 1056 l 257
 208 1058 171 1104 193 1200 c 258
 224 1333 l 258
 246 1430 315 1481 425 1481 c 256
 550 1481 579 1430 557 1333 c 258
 526 1200 l 258
 504 1104 460 1058 335 1056 c 257
 339 1068 l 257
EndSplineSet
EndChar

StartChar: uni2079
Encoding: 8313 8313 137
Width: 388
VWidth: 1920
Flags: HMW
LayerCount: 2
Fore
SplineSet
316 1067 m 256
 331 1067 338 1084 352 1145 c 258
 356 1163 l 257
 378 1139 l 257
 360 1060 316 992 245 992 c 256
 159 992 149 1053 173 1159 c 258
 207 1309 l 258
 234 1428 290 1478 408 1478 c 256
 539 1478 560 1417 527 1273 c 258
 417 796 l 258
 391 682 332 619 216 619 c 256
 97 619 66 679 90 782 c 258
 123 926 l 2
 123 928 124 929 126 929 c 2
 261 929 l 2
 263 929 264 928 264 926 c 2
 233 794 l 258
 224 754 217 724 236 724 c 256
 254 724 262 753 272 798 c 258
 387 1293 l 258
 402 1356 401 1373 387 1373 c 256
 369 1373 365 1355 351 1295 c 258
 318 1153 l 258
 304 1092 301 1067 316 1067 c 256
EndSplineSet
EndChar

StartChar: uni00B9
Encoding: 185 185 138
Width: 258
VWidth: 1920
Flags: HMW
LayerCount: 2
Fore
SplineSet
273 1447 m 0
 315 1447 333 1460 341 1482 c 0
 341 1484 344 1484 346 1484 c 2
 422 1484 l 2
 424 1484 425 1484 425 1482 c 2
 231 642 l 2
 231 640 229 640 227 640 c 2
 87 640 l 2
 85 640 83 640 83 642 c 2
 268 1444 l 2
 268 1446 271 1447 273 1447 c 0
EndSplineSet
EndChar

StartChar: cent
Encoding: 162 162 154
Width: 462
VWidth: 1920
Flags: HMW
LayerCount: 2
Fore
SplineSet
396.141601562 1240 m 6
 426.141601562 1240 l 6
 430.141601562 1240 431.141601562 1237 429.141601562 1230 c 6
 103.141601562 -180 l 6
 101.141601562 -187 100.141601562 -190 96.1416015625 -190 c 6
 66.1416015625 -190 l 6
 62.1416015625 -190 61.1416015625 -187 63.1416015625 -180 c 6
 389.141601562 1230 l 6
 391.141601562 1237 392.141601562 1240 396.141601562 1240 c 6
EndSplineSet
Refer: 40 99 N 1 0 0 1 0 0 2
EndChar

StartChar: uni203D
Encoding: 8253 8253 157
Width: 800
VWidth: 1920
Flags: HMW
LayerCount: 2
Fore
SplineSet
357 830 m 2
 447 1220 l 2
 449 1227 450 1230 454 1230 c 2
 649 1230 l 2
 653 1230 654 1227 652 1220 c 2
 562 830 l 2
 560 823 558 817 556 810 c 2
 425 450 l 2
 423 443 421 440 417 440 c 2
 322 440 l 2
 318 440 317 443 319 450 c 2
 352 810 l 2
 354 817 355 823 357 830 c 2
423 0 m 6
 193 0 l 6
 186 0 183 3 185 10 c 6
 264 350 l 6
 266 357 269 360 276 360 c 6
 506 360 l 6
 513 360 516 357 514 350 c 6
 435 10 l 6
 433 3 430 0 423 0 c 6
479 440 m 2
 335 440 l 2
 331 440 330 443 331 449 c 0
 373 721 581 848 612 983 c 258
 662 1198 l 258
 674 1248 663 1285 569 1285 c 256
 464 1285 420 1235 408 1182 c 258
 318 792 l 2
 316 785 315 782 311 782 c 2
 81 782 l 2
 77 782 76 785 78 792 c 2
 149 1102 l 258
 205 1346 357 1467 631 1467 c 256
 869 1467 982 1373 931 1153 c 258
 914 1078 l 258
 830 715 584 683 486 448 c 0
 484 443 482 440 479 440 c 2
EndSplineSet
EndChar

StartChar: ordfeminine
Encoding: 170 170 159
Width: 430
VWidth: 1920
Flags: HMW
LayerCount: 2
Fore
SplineSet
278 892 m 0
 269 854 256 791 270 791 c 256
 285 791 296 835 312 903 c 257
 333 827 l 257
 305 705 242 609 158 609 c 256
 71 609 50 693 87 852 c 0
 132 1047 210 1095 302 1139 c 256
 358 1166 377 1185 383 1211 c 257
 366 1084 l 257
 362 1066 343 1042 327 1024 c 256
 307 1002 287 930 278 892 c 0
281 769 m 258
 395 1261 l 258
 407 1315 412 1341 398 1341 c 256
 388 1341 379 1323 355 1222 c 0
 354 1218 352 1217 350 1217 c 2
 200 1217 l 2
 198 1217 198 1218 199 1222 c 0
 248 1392 319 1489 447 1489 c 256
 590 1489 605 1395 563 1214 c 258
 460 769 l 258
 447 712 444 673 449 648 c 0
 450 645 449 644 447 644 c 2
 282 644 l 2
 280 644 280 646 279 648 c 0
 274 674 268 712 281 769 c 258
EndSplineSet
EndChar

StartChar: exclamdown
Encoding: 161 161 160
Width: 400
VWidth: 1920
Flags: HMW
LayerCount: 2
Fore
SplineSet
207 1050 m 2
 437 1050 l 2
 444 1050 447 1047 445 1040 c 2
 367 700 l 2
 365 693 361 690 354 690 c 2
 124 690 l 2
 117 690 115 693 117 700 c 2
 195 1040 l 2
 197 1047 200 1050 207 1050 c 2
258 100 m 2
 145 -390 l 2
 143 -397 140 -400 133 -400 c 2
 -157 -400 l 2
 -164 -400 -167 -397 -165 -390 c 2
 -52 100 l 2
 -50 107 -48 113 -46 120 c 2
 149 540 l 2
 151 547 155 550 162 550 c 2
 252 550 l 2
 259 550 262 547 261 540 c 2
 262 120 l 2
 261 113 260 107 258 100 c 2
EndSplineSet
EndChar

StartChar: AE
Encoding: 198 198 161
Width: 788
VWidth: 1920
Flags: HMW
LayerCount: 2
Fore
SplineSet
198 520 m 257
 498 520 l 257
 498 395 l 257
 198 395 l 257
 198 520 l 257
596 1400 m 1
 161 10 l 6
 159 4 155 0 148 0 c 6
 -12 0 l 2
 -19 0 -21 4 -19 10 c 2
 421 1390 l 2
 426 1395 429 1400 436 1400 c 2
 596 1400 l 1
EndSplineSet
Refer: 16 69 N 1 0 0 1 348 0 2
EndChar

StartChar: questiondown
Encoding: 191 191 162
Width: 600
VWidth: 1920
Flags: HMW
LayerCount: 2
Fore
SplineSet
314 1050 m 2
 544 1050 l 2
 551 1050 554 1047 552 1040 c 2
 474 700 l 2
 472 693 468 690 461 690 c 2
 231 690 l 2
 224 690 222 693 224 700 c 2
 302 1040 l 2
 304 1047 307 1050 314 1050 c 2
275 620 m 2
 420 620 l 2
 424 620 425 618 425 615 c 0
 389 369 258 360 215 173 c 258
 145 -128 l 258
 123 -223 126 -241 144 -241 c 256
 164 -241 175 -216 197 -120 c 258
 246 93 l 2
 247 97 248 98 252 98 c 2
 482 98 l 2
 486 98 487 97 486 93 c 2
 429 -155 l 258
 396 -297 289 -417 91 -417 c 256
 -107 -417 -176 -311 -144 -171 c 258
 -78 116 l 258
 -13 398 171 388 268 616 c 0
 269 618 272 620 275 620 c 2
EndSplineSet
EndChar

StartChar: yen
Encoding: 165 165 163
Width: 633
VWidth: 1920
Flags: HMW
LayerCount: 2
Fore
SplineSet
7 449 m 14
 19 501 l 22
 20 505 21 506 25 506 c 14
 610 506 l 22
 614 506 615 505 614 501 c 14
 602 449 l 22
 601 445 600 444 596 444 c 14
 11 444 l 22
 7 444 6 445 7 449 c 14
38 584 m 14
 50 636 l 22
 51 640 52 641 56 641 c 14
 641 641 l 22
 645 641 646 640 645 636 c 14
 633 584 l 22
 632 580 631 579 627 579 c 14
 42 579 l 22
 38 579 37 580 38 584 c 14
EndSplineSet
Refer: 36 89 N 1 0 0 1 0 0 2
EndChar

StartChar: gravecomb
Encoding: 768 768 164
Width: 0
Flags: HMW
AnchorPoint: "top" -452 1000 mark 0
LayerCount: 2
Fore
SplineSet
-379 1104 m 6
 -504 1104 l 6
 -508 1104 -511 1109 -512 1114 c 6
 -636 1390 l 6
 -637 1395 -638 1400 -634 1400 c 6
 -354 1400 l 6
 -350 1400 -348 1397 -348 1390 c 6
 -375 1114 l 6
 -375 1107 -375 1104 -379 1104 c 6
EndSplineSet
EndChar

StartChar: acutecomb
Encoding: 769 769 165
Width: 0
Flags: HMW
AnchorPoint: "top" -437 1000 mark 0
LayerCount: 2
Fore
SplineSet
-462 1104 m 6
 -466 1104 -466 1107 -462 1114 c 6
 -361 1390 l 6
 -357 1397 -355 1400 -351 1400 c 6
 -71 1400 l 6
 -67 1400 -70 1395 -73 1390 c 6
 -325 1114 l 6
 -328 1109 -333 1104 -337 1104 c 6
 -462 1104 l 6
EndSplineSet
EndChar

StartChar: uni0302
Encoding: 770 770 166
Width: 0
VWidth: 1920
Flags: HMW
AnchorPoint: "top" -446 1000 mark 0
LayerCount: 2
Fore
SplineSet
-387 1261 m 261
 -464 1110 l 6
 -467 1105 -472 1100 -476 1100 c 6
 -608 1100 l 6
 -612 1100 -613 1104 -610 1110 c 6
 -453 1390 l 6
 -448 1398 -449 1400 -445 1400 c 6
 -265 1400 l 6
 -261 1400 -260 1398 -259 1390 c 6
 -228 1110 l 6
 -227 1104 -228 1100 -234 1100 c 6
 -366 1100 l 6
 -371 1100 -373 1105 -374 1110 c 6
 -387 1261 l 261
EndSplineSet
EndChar

StartChar: tildecomb
Encoding: 771 771 167
Width: 0
Flags: HMW
AnchorPoint: "top" -467 1000 mark 0
LayerCount: 2
Fore
SplineSet
-453 1229 m 260
 -474 1229 -478 1200 -499 1117 c 0
 -501 1111 -504 1108 -507 1108 c 2
 -607 1108 l 2
 -611 1108 -610 1111 -609 1117 c 4
 -552 1355 -474 1399 -429 1399 c 260
 -345 1399 -375 1232 -349 1232 c 260
 -328 1232 -318 1281 -297 1363 c 4
 -295 1370 -293 1373 -290 1373 c 6
 -191 1373 l 6
 -187 1373 -186 1370 -188 1363 c 4
 -245 1125 -323 1082 -368 1082 c 256
 -452 1082 -427 1229 -453 1229 c 260
EndSplineSet
EndChar

StartChar: uni0304
Encoding: 772 772 168
Width: 0
VWidth: 1920
Flags: HMW
AnchorPoint: "top" -449 1000 mark 0
LayerCount: 2
Fore
SplineSet
-561 1099 m 14
 -537 1206 l 22
 -536 1210 -534 1211 -530 1211 c 14
 -270 1211 l 22
 -266 1211 -266 1210 -267 1206 c 14
 -291 1099 l 22
 -292 1095 -293 1094 -297 1094 c 14
 -557 1094 l 22
 -561 1094 -562 1095 -561 1099 c 14
EndSplineSet
EndChar

StartChar: uni0306
Encoding: 774 774 169
Width: 0
VWidth: 1920
Flags: HMW
AnchorPoint: "top" -449 1000 mark 0
LayerCount: 2
Fore
SplineSet
-388 1265 m 4
 -358 1265 -331 1349 -313 1427 c 4
 -311 1435 -310 1438 -306 1438 c 6
 -173 1438 l 6
 -169 1438 -168 1435 -171 1424 c 4
 -224 1212 -295 1095 -427 1095 c 4
 -559 1095 -577 1213 -531 1427 c 4
 -529 1435 -527 1438 -523 1438 c 6
 -390 1438 l 6
 -386 1438 -387 1435 -389 1425 c 4
 -407 1345 -417 1265 -388 1265 c 4
EndSplineSet
EndChar

StartChar: uni0307
Encoding: 775 775 170
Width: 0
Flags: HMW
AnchorPoint: "top" -449 950 mark 0
LayerCount: 2
Fore
SplineSet
-330 1050 m 6
 -526 1050 l 6
 -530 1050 -529 1051 -528 1055 c 6
 -489 1225 l 6
 -488 1229 -488 1230 -484 1230 c 6
 -288 1230 l 6
 -284 1230 -284 1229 -285 1225 c 6
 -324 1055 l 6
 -325 1051 -326 1050 -330 1050 c 6
EndSplineSet
EndChar

StartChar: uni0308
Encoding: 776 776 171
Width: 0
Flags: HMW
AnchorPoint: "top" -449 950 mark 0
LayerCount: 2
Fore
SplineSet
-473 1050 m 6
 -618 1050 l 6
 -622 1050 -622 1051 -621 1055 c 6
 -582 1225 l 6
 -581 1229 -580 1230 -576 1230 c 6
 -431 1230 l 6
 -427 1230 -426 1229 -427 1225 c 6
 -466 1055 l 6
 -467 1051 -469 1050 -473 1050 c 6
-248 1050 m 6
 -393 1050 l 6
 -397 1050 -397 1051 -396 1055 c 6
 -357 1225 l 6
 -356 1229 -355 1230 -351 1230 c 6
 -206 1230 l 6
 -202 1230 -201 1229 -202 1225 c 6
 -241 1055 l 6
 -242 1051 -244 1050 -248 1050 c 6
EndSplineSet
EndChar

StartChar: uni030A
Encoding: 778 778 172
Width: 0
Flags: HMW
AnchorPoint: "top" -554 1000 mark 0
LayerCount: 2
Fore
SplineSet
-398 1232 m 4
 -398 1180 -442 1137 -494 1137 c 4
 -547 1137 -592 1179 -592 1232 c 4
 -592 1283 -547 1327 -494 1327 c 4
 -441 1327 -398 1286 -398 1232 c 4
-444 1232 m 4
 -444 1260 -467 1280 -494 1280 c 4
 -521 1280 -544 1257 -544 1232 c 4
 -544 1205 -521 1184 -494 1184 c 4
 -468 1184 -444 1207 -444 1232 c 4
EndSplineSet
EndChar

StartChar: uni030B
Encoding: 779 779 173
Width: 0
Flags: HMW
AnchorPoint: "top" -507 1000 mark 0
LayerCount: 2
Fore
SplineSet
-399 1104 m 6
 -403 1104 -403 1107 -399 1114 c 6
 -299 1390 l 6
 -295 1397 -293 1400 -289 1400 c 6
 -9 1400 l 6
 -5 1400 -8 1395 -11 1390 c 6
 -262 1114 l 6
 -265 1109 -270 1104 -274 1104 c 6
 -399 1104 l 6
-654 1104 m 6
 -658 1104 -658 1107 -654 1114 c 6
 -554 1390 l 6
 -550 1397 -548 1400 -544 1400 c 6
 -304 1400 l 6
 -300 1400 -303 1395 -306 1390 c 6
 -517 1114 l 6
 -520 1109 -525 1104 -529 1104 c 6
 -654 1104 l 6
EndSplineSet
EndChar

StartChar: uni030C
Encoding: 780 780 174
Width: 0
Flags: HMW
AnchorPoint: "top" -443 1000 mark 0
LayerCount: 2
Fore
SplineSet
-383 1259 m 257
 -306 1410 l 2
 -303 1415 -298 1420 -294 1420 c 2
 -162 1420 l 2
 -158 1420 -157 1416 -160 1410 c 2
 -317 1130 l 2
 -322 1122 -321 1120 -325 1120 c 2
 -505 1120 l 2
 -509 1120 -510 1122 -511 1130 c 2
 -542 1410 l 2
 -543 1416 -542 1420 -536 1420 c 2
 -404 1420 l 2
 -399 1420 -397 1415 -396 1410 c 2
 -383 1259 l 257
EndSplineSet
EndChar

StartChar: uni030F
Encoding: 783 783 175
Width: 0
Flags: HMW
AnchorPoint: "top" -397 1000 mark 0
LayerCount: 2
Fore
SplineSet
-192 1104 m 6
 -317 1104 l 6
 -321 1104 -324 1109 -325 1114 c 6
 -398 1390 l 6
 -399 1395 -400 1400 -396 1400 c 6
 -166 1400 l 6
 -162 1400 -160 1397 -160 1390 c 6
 -188 1114 l 6
 -188 1107 -188 1104 -192 1104 c 6
-437 1104 m 6
 -562 1104 l 6
 -566 1104 -569 1109 -570 1114 c 6
 -693 1390 l 6
 -694 1395 -695 1400 -691 1400 c 6
 -411 1400 l 6
 -407 1400 -405 1397 -405 1390 c 6
 -433 1114 l 6
 -433 1107 -433 1104 -437 1104 c 6
EndSplineSet
EndChar

StartChar: uni0311
Encoding: 785 785 176
Width: 0
Flags: HMW
AnchorPoint: "top" -493 1000 mark 0
LayerCount: 2
Fore
SplineSet
-413 1345 m 0
 -443 1345 -471 1261 -489 1183 c 0
 -491 1175 -491 1172 -495 1172 c 2
 -628 1172 l 2
 -632 1172 -633 1175 -630 1186 c 0
 -577 1398 -506 1515 -374 1515 c 0
 -242 1515 -225 1397 -271 1183 c 0
 -273 1175 -274 1172 -278 1172 c 2
 -411 1172 l 2
 -415 1172 -414 1175 -412 1185 c 0
 -394 1265 -384 1345 -413 1345 c 0
EndSplineSet
EndChar

StartChar: dotbelowcomb
Encoding: 803 803 177
Width: 0
Flags: HMW
AnchorPoint: "bottom" -671 0 mark 0
LayerCount: 2
Fore
SplineSet
-646 -320 m 6
 -842 -320 l 6
 -846 -320 -846 -319 -845 -315 c 6
 -805 -145 l 6
 -804 -141 -804 -140 -800 -140 c 6
 -604 -140 l 6
 -600 -140 -600 -141 -601 -145 c 6
 -641 -315 l 6
 -642 -319 -642 -320 -646 -320 c 6
EndSplineSet
EndChar

StartChar: uni0326
Encoding: 806 806 178
Width: 0
Flags: HMW
AnchorPoint: "bottom" -681 0 mark 0
LayerCount: 2
Fore
SplineSet
-870 -484 m 14
 -909 -484 l 22
 -912 -484 -913 -483 -910 -480 c 14
 -804 -360 l 261
 -868 -360 l 6
 -872 -360 -872 -360 -871 -356 c 6
 -831 -180 l 6
 -830 -177 -829 -176 -826 -176 c 6
 -630 -176 l 6
 -627 -176 -626 -177 -627 -180 c 6
 -666 -352 l 6
 -667 -355 -668 -356 -672 -360 c 6
 -861 -480 l 22
 -865 -482 -867 -484 -870 -484 c 14
EndSplineSet
EndChar

StartChar: uni0327
Encoding: 807 807 179
Width: 1200
Flags: HMW
AnchorPoint: "bottom" -681 0 mark 0
LayerCount: 2
Fore
SplineSet
-880 -650 m 0
 -950 -650 -995 -636 -1013 -601 c 0
 -1016 -594 -1017 -594 -1012 -584 c 2
 -957 -424 l 2
 -953 -414 -953 -416 -949 -419 c 0
 -905 -448 -885 -459 -855 -459 c 0
 -833 -459 -811 -439 -792 -357 c 0
 -774 -281 -770 -241 -859 -240 c 0
 -866 -240 -865 -240 -865 -230 c 2
 -865 -196 l 2
 -865 -187 -863 -183 -859 -176 c 2
 -723 60 l 1
 -552 60 l 1
 -690 -172 l 1
 -681 -167 -672 -164 -664 -164 c 0
 -621 -164 -580 -182 -622 -362 c 0
 -675 -590 -778 -650 -880 -650 c 0
EndSplineSet
EndChar

StartChar: uni0328
Encoding: 808 808 180
Width: 1200
Flags: HMW
AnchorPoint: "ogonek" -711 0 mark 0
LayerCount: 2
Fore
SplineSet
-701 -310 m 2
 -751 -530 l 2
 -753 -537 -755 -540 -759 -540 c 2
 -799 -540 l 2
 -883 -540 -1010 -488 -962 -280 c 0
 -912 -62 -786 -2 -689 70 c 1
 -674 0 l 1
 -736 -44 -775 -96 -794 -180 c 0
 -813 -262 -798 -300 -738 -300 c 2
 -703 -300 l 2
 -699 -300 -699 -303 -701 -310 c 2
EndSplineSet
EndChar

StartChar: uni0312
Encoding: 786 786 181
Width: 0
Flags: HMW
AnchorPoint: "top" -516 900 mark 0
LayerCount: 2
Fore
SplineSet
-177 1690 m 10
 -141 1690 l 18
 -134 1690 -131 1688 -136 1680 c 10
 -330 1380 l 257
 -240 1380 l 2
 -231 1380 -231 1379 -233 1370 c 2
 -311 1030 l 2
 -313 1023 -317 1020 -324 1020 c 2
 -554 1020 l 2
 -561 1020 -563 1023 -561 1030 c 2
 -485 1360 l 2
 -483 1367 -481 1371 -474 1380 c 2
 -200 1680 l 18
 -193 1688 -185 1690 -177 1690 c 10
EndSplineSet
EndChar

StartChar: sterling
Encoding: 163 163 182
Width: 610
VWidth: 1920
Flags: HMW
LayerCount: 2
Fore
SplineSet
44 622 m 10
 78 770 l 18
 79 774 81 775 85 775 c 10
 579 775 l 18
 583 775 585 774 584 770 c 10
 550 622 l 18
 549 618 546 617 542 617 c 10
 48 617 l 18
 44 617 43 618 44 622 c 10
-41 177 m 0
 54 295 138 422 192 657 c 0
 238 856 156 907 198 1091 c 0
 248 1306 357 1417 525 1417 c 0
 697 1417 766 1315 693 967 c 0
 692 963 692 963 688 963 c 2
 462 963 l 2
 459 963 457 963 458 967 c 0
 512 1210 527 1247 500 1247 c 0
 482 1247 465 1211 432 1066 c 0
 404 945 474 885 425 672 c 0
 368 426 282 295 186 177 c 1
 501 177 l 2
 505 177 507 176 506 172 c 2
 467 5 l 2
 466 1 464 0 460 0 c 2
 -80 0 l 2
 -84 0 -84 1 -83 5 c 2
 -44 172 l 2
 -44 174 -43 174 -41 177 c 0
EndSplineSet
EndChar

StartChar: currency
Encoding: 164 164 183
Width: 579
Flags: HMW
LayerCount: 2
Fore
SplineSet
567 991 m 10
 655 877 l 18
 657 875 655 872 653 870 c 10
 553 788 l 18
 551 786 548 786 546 788 c 10
 459 902 l 18
 457 904 459 908 461 910 c 10
 560 991 l 18
 562 993 565 993 567 991 c 10
119 627 m 10
 207 513 l 18
 209 511 207 507 205 505 c 10
 105 424 l 18
 103 422 100 422 98 424 c 10
 11 538 l 18
 9 540 10 543 12 545 c 10
 112 627 l 18
 114 629 117 629 119 627 c 10
89 877 m 10
 229 991 l 18
 231 993 234 993 236 991 c 10
 299 910 l 18
 301 908 299 904 297 902 c 10
 156 788 l 18
 154 786 151 786 149 788 c 10
 87 870 l 18
 85 872 87 875 89 877 c 10
369 513 m 10
 466 592 l 18
 468 594 514 629 516 627 c 10
 578 545 l 18
 580 543 579 540 577 538 c 10
 436 424 l 18
 434 422 431 422 429 424 c 10
 367 505 l 18
 365 507 367 511 369 513 c 10
89 709 m 0
 120 843 258 954 392 954 c 0
 526 954 610 843 579 709 c 0
 548 575 413 464 279 464 c 0
 145 464 58 575 89 709 c 0
269 709 m 0
 259 665 275 639 319 639 c 0
 363 639 389 665 399 709 c 0
 409 753 395 779 351 779 c 0
 307 779 279 753 269 709 c 0
EndSplineSet
EndChar

StartChar: brokenbar
Encoding: 166 166 184
Width: 260
VWidth: 1920
Flags: HMW
LayerCount: 2
Fore
SplineSet
29 430 m 10
 189 430 l 22
 196 430 199 427 197 420 c 14
 19 -350 l 22
 17 -357 14 -360 7 -360 c 14
 -153 -360 l 18
 -160 -360 -163 -357 -161 -350 c 10
 17 420 l 18
 19 427 22 430 29 430 c 10
299 1600 m 10
 459 1600 l 22
 466 1600 469 1597 467 1590 c 14
 289 820 l 22
 287 813 284 810 277 810 c 14
 117 810 l 18
 110 810 107 813 109 820 c 10
 287 1590 l 18
 289 1597 292 1600 299 1600 c 10
EndSplineSet
EndChar

StartChar: section
Encoding: 167 167 185
Width: 512
VWidth: 1920
Flags: HMW
LayerCount: 2
Fore
SplineSet
356 873 m 257
 318 873 272 809 245 691 c 256
 213 554 195 435 262 324 c 256
 310 245 334 150 295 -20 c 256
 241 -252 155 -377 17 -377 c 256
 -110 -377 -126 -264 -80 -34 c 0
 -79 -28 -77 -25 -73 -25 c 2
 46 -25 l 2
 50 -25 50 -28 49 -35 c 0
 26 -165 7 -212 29 -212 c 256
 43 -212 64 -157 80 -87 c 256
 100 1 84 52 54 115 c 256
 2 226 -24 329 35 586 c 256
 98 858 248 953 380 953 c 257
 356 873 l 257
157 167 m 257
 195 167 241 231 268 349 c 256
 300 486 317 605 250 716 c 256
 202 795 178 890 217 1060 c 256
 271 1292 357 1417 495 1417 c 256
 622 1417 638 1304 592 1074 c 0
 591 1068 589 1065 585 1065 c 2
 466 1065 l 2
 462 1065 462 1068 463 1075 c 0
 486 1205 505 1252 483 1252 c 256
 469 1252 448 1197 432 1127 c 256
 412 1039 428 988 458 925 c 256
 510 814 536 711 477 454 c 256
 414 182 265 87 133 87 c 257
 157 167 l 257
EndSplineSet
EndChar

StartChar: copyright
Encoding: 169 169 186
Width: 844
Flags: HMW
LayerCount: 2
Fore
SplineSet
599 622 m 256
 538 358 512 249 345 249 c 256
 223 249 215 325 248 469 c 258
 344 885 l 258
 376 1023 422 1111 550 1111 c 256
 702 1111 674 989 626 780 c 260
 626 778 624 777 622 777 c 258
 518 777 l 258
 516 777 515 778 515 780 c 256
 550 938 565 991 541 991 c 256
 520 991 511 957 495 888 c 258
 393 448 l 258
 379 388 377 369 397 369 c 256
 419 369 435 417 482 622 c 256
 482 624 483 625 485 625 c 258
 596 625 l 258
 598 625 599 624 599 622 c 256
803 668 m 0
 714 284 609 -28 295 -28 c 0
 -19 -28 20 284 109 668 c 0
 198 1052 302 1366 616 1366 c 0
 930 1366 892 1052 803 668 c 0
757 668 m 0
 835 1006 894 1320 606 1320 c 0
 318 1320 233 1006 155 668 c 0
 77 330 17 18 305 18 c 0
 593 18 679 330 757 668 c 0
EndSplineSet
EndChar

StartChar: registered
Encoding: 174 174 188
Width: 844
Flags: HMW
LayerCount: 2
Fore
SplineSet
510 995 m 261
 440 692 l 261
 452 692 l 262
 472 692 479 711 485 738 c 262
 534 949 l 262
 540 973 542 995 522 995 c 262
 510 995 l 261
552 1100 m 262
 692 1100 704 1038 683 945 c 262
 647 787 l 262
 623 685 545 644 447 644 c 261
 451 662 l 261
 558 662 618 654 592 540 c 262
 550 358 l 262
 542 324 540 298 549 278 c 4
 551 274 550 274 550 272 c 6
 548 263 l 6
 547 261 546 260 544 260 c 6
 401 260 l 6
 399 260 397 262 396 264 c 4
 385 288 388 314 398 358 c 262
 449 582 l 262
 455 606 448 617 431 617 c 262
 422 617 l 261
 341 263 l 6
 340 261 339 260 337 260 c 6
 196 260 l 6
 194 260 193 261 194 263 c 6
 386 1097 l 6
 387 1099 388 1100 390 1100 c 6
 552 1100 l 262
803 668 m 0
 714 284 609 -28 295 -28 c 0
 -19 -28 20 284 109 668 c 0
 198 1052 302 1366 616 1366 c 0
 930 1366 892 1052 803 668 c 0
757 668 m 0
 835 1006 894 1320 606 1320 c 0
 318 1320 233 1006 155 668 c 0
 77 330 17 18 305 18 c 0
 593 18 679 330 757 668 c 0
EndSplineSet
EndChar

StartChar: dotlessi
Encoding: 305 305 279
Width: 295
VWidth: 960
Flags: HMW
AnchorPoint: "top" 272 1050 basechar 0
LayerCount: 2
Fore
SplineSet
391 1045 m 2
 151 5 l 2
 150 1 149 0 145 0 c 2
 -90 0 l 2
 -94 0 -95 1 -94 5 c 2
 146 1045 l 2
 147 1049 148 1050 152 1050 c 2
 387 1050 l 2
 391 1050 392 1049 391 1045 c 2
EndSplineSet
EndChar

StartChar: uni0237
Encoding: 567 567 291
Width: 295
VWidth: 960
Flags: HMW
AnchorPoint: "top" 263 1050 basechar 0
LayerCount: 2
Fore
SplineSet
136 -59 m 6
 87 -271 -1 -371 -160 -371 c 4
 -399 -371 -360 -200 -325 -107 c 4
 -323 -102 -320 -100 -313 -100 c 6
 -177 -100 l 6
 -170 -100 -168 -103 -169 -107 c 4
 -183 -151 -205 -204 -175 -204 c 4
 -147 -204 -129 -145 -109 -60 c 6
 145 1040 l 6
 147 1047 150 1050 157 1050 c 6
 382 1050 l 6
 389 1050 392 1047 390 1040 c 6
 136 -59 l 6
EndSplineSet
EndChar

StartChar: kgreenlandic
Encoding: 312 312 298
Width: 595
VWidth: 960
Flags: HMW
LayerCount: 2
Fore
SplineSet
152 1050 m 6
 387 1050 l 6
 391 1050 392 1049 391 1045 c 6
 151 5 l 2
 150 1 149 0 145 0 c 2
 -90 0 l 2
 -94 0 -95 1 -94 5 c 2
 146 1045 l 6
 147 1049 148 1050 152 1050 c 6
162 422 m 1
 531 1045 l 2
 533 1049 536 1050 542 1050 c 2
 754 1050 l 2
 758 1050 759 1050 755 1045 c 2
 194 256 l 1
 162 422 l 1
265 586 m 257
 412 616 l 257
 523 5 l 2
 524 1 524 0 520 0 c 2
 245 0 l 2
 241 0 239 1 238 5 c 2
 265 586 l 257
EndSplineSet
EndChar

StartChar: grave
Encoding: 96 96 339
Width: 386
VWidth: 0
Flags: HMW
LayerCount: 2
Fore
SplineSet
488 1104 m 2
 363 1104 l 2
 359 1104 356 1109 355 1114 c 2
 231 1390 l 2
 230 1395 229 1400 233 1400 c 2
 513 1400 l 2
 517 1400 519 1397 519 1390 c 2
 492 1114 l 2
 492 1107 492 1104 488 1104 c 2
EndSplineSet
EndChar

StartChar: longs
Encoding: 383 383 352
Width: 335
VWidth: 960
Flags: HMW
LayerCount: 2
Fore
SplineSet
223 1313 m 262
 250 1432 349 1469 546 1440 c 4
 551 1439 552 1438 551 1434 c 6
 521 1304 l 6
 520 1301 518 1299 512 1300 c 4
 476 1308 461 1296 451 1253 c 262
 80 -355 l 6
 79 -359 79 -360 75 -360 c 6
 -158 -360 l 6
 -162 -360 -163 -359 -162 -355 c 6
 223 1313 l 262
EndSplineSet
EndChar

StartChar: uni0259
Encoding: 601 601 359
Width: 570
VWidth: 960
Flags: HMW
LayerCount: 2
Fore
SplineSet
47 636 m 0
 105 886 147 1068 409 1068 c 260
 593 1068 656 981 609 776 c 258
 493 273 l 258
 447 73 346 -17 158 -17 c 256
 -26 -17 -80 71 -35 283 c 256
 -10 398 -2 443 26 565 c 0
 26 567 27 569 31 569 c 2
 423 569 l 257
 404 485 l 257
 250 485 l 257
 173 144 166 123 190 123 c 256
 208 123 218 149 232 209 c 258
 378 841 l 258
 395 916 393 928 377 928 c 256
 358 928 336 865 282 636 c 0
 282 634 279 632 276 632 c 2
 50 632 l 2
 46 632 46 633 47 636 c 0
EndSplineSet
EndChar

StartChar: logicalnot
Encoding: 172 172 373
Width: 575
VWidth: 2048
Flags: HMW
LayerCount: 2
Fore
SplineSet
46 544 m 2
 84 711 l 2
 85 715 86 716 90 716 c 2
 580 716 l 2
 584 716 585 715 584 711 c 2
 525 454 l 2
 524 450 523 449 519 449 c 2
 334 449 l 2
 330 449 329 450 330 454 c 2
 349 539 l 1
 49 539 l 2
 45 539 45 540 46 544 c 2
EndSplineSet
EndChar

StartChar: acute
Encoding: 180 180 374
Width: 386
Flags: HMW
LayerCount: 2
Fore
SplineSet
168 1104 m 6
 164 1104 164 1107 168 1114 c 6
 269 1390 l 6
 273 1397 275 1400 279 1400 c 6
 559 1400 l 6
 563 1400 560 1395 557 1390 c 6
 305 1114 l 6
 302 1109 297 1104 293 1104 c 6
 168 1104 l 6
EndSplineSet
EndChar

StartChar: degree
Encoding: 176 176 376
Width: 490
VWidth: 2048
Flags: HMW
LayerCount: 2
Fore
SplineSet
180 1191 m 262
 184 1209 l 262
 214 1339 325 1417 449 1417 c 260
 573 1417 654 1339 624 1209 c 262
 620 1191 l 262
 590 1061 473 983 349 983 c 260
 225 983 150 1061 180 1191 c 262
357 1191 m 262
 349 1156 365 1143 389 1143 c 260
 413 1143 435 1156 443 1191 c 262
 447 1209 l 262
 455 1244 439 1257 415 1257 c 260
 391 1257 369 1244 361 1209 c 262
 357 1191 l 262
EndSplineSet
EndChar

StartChar: plusminus
Encoding: 177 177 377
Width: 575
Flags: HMW
LayerCount: 2
Fore
SplineSet
34 452 m 10
 73 620 l 18
 74 624 75 625 79 625 c 10
 544 625 l 18
 548 625 549 624 548 620 c 10
 509 452 l 18
 508 448 507 448 503 448 c 10
 38 448 l 18
 34 448 33 448 34 452 c 10
123 835 m 10
 161 1002 l 18
 162 1006 164 1008 168 1008 c 10
 633 1008 l 18
 637 1008 637 1006 636 1002 c 10
 598 835 l 18
 597 831 596 830 592 830 c 10
 127 830 l 18
 123 830 122 831 123 835 c 10
349 1142 m 10
 514 1142 l 22
 518 1142 519 1142 518 1138 c 14
 414 688 l 22
 413 684 412 682 408 682 c 14
 243 682 l 18
 239 682 238 684 239 688 c 10
 343 1138 l 18
 344 1142 345 1142 349 1142 c 10
EndSplineSet
EndChar

StartChar: ae
Encoding: 230 230 379
Width: 836
VWidth: 960
Flags: HMW
LayerCount: 2
Fore
SplineSet
202 330 m 4
 172 198 175 158 189 158 c 260
 206 158 215 186 226 234 c 261
 346 234 l 261
 322 132 243 -18 107 -18 c 260
 -18 -18 -105 28 -53 255 c 4
 1 491 88 566 233 627 c 260
 295 653 328 678 341 734 c 261
 327 584 l 261
 315 562 299 548 285 535 c 260
 255 507 232 460 202 330 c 4
219 204 m 269
 360 814 l 262
 374 874 383 907 366 907 c 260
 347 907 339 872 296 696 c 4
 295 693 293 691 290 691 c 6
 87 691 l 6
 83 691 82 693 83 696 c 4
 147 942 240 1067 393 1067 c 260
 533 1067 567 975 518 761 c 262
 387 194 l 277
 219 204 l 269
792 414 m 4
 735 167 692 -18 430 -18 c 260
 246 -18 262 69 309 274 c 262
 425 777 l 262
 471 977 552 1067 710 1067 c 260
 897 1067 910 956 861 707 c 4
 848 642 831 569 812 485 c 4
 812 483 811 481 807 481 c 6
 415 481 l 261
 434 565 l 261
 588 565 l 261
 665 906 672 927 648 927 c 260
 630 927 620 901 606 841 c 262
 460 209 l 262
 443 134 445 122 461 122 c 260
 480 122 503 185 557 414 c 4
 557 416 560 418 563 418 c 6
 789 418 l 6
 793 418 793 417 792 414 c 4
EndSplineSet
EndChar

StartChar: paragraph
Encoding: 182 182 380
Width: 755
VWidth: 1920
Flags: HMW
LayerCount: 2
Fore
SplineSet
825 1225 m 5
 461 -350 l 2
 459 -357 458 -360 454 -360 c 2
 289 -360 l 2
 285 -360 284 -357 286 -350 c 2
 650 1225 l 5
 610 1225 l 5
 246 -350 l 2
 244 -357 243 -360 239 -360 c 2
 79 -360 l 2
 75 -360 74 -357 76 -350 c 2
 249 400 l 1
 244 400 l 2
 116 400 30 548 104 868 c 2
 119 932 l 2
 193 1252 347 1400 475 1400 c 2
 935 1400 l 2
 939 1400 940 1397 938 1390 c 2
 902 1235 l 6
 900 1228 899 1225 895 1225 c 6
 825 1225 l 5
EndSplineSet
EndChar

StartChar: guilsinglleft
Encoding: 8249 8249 381
Width: 630
Flags: HMW
LayerCount: 2
Fore
SplineSet
367 116 m 6
 69 429 l 6
 63 433 61 438 63 445 c 6
 116 675 l 6
 118 682 122 687 130 691 c 6
 565 974 l 6
 573 978 576 977 574 970 c 6
 514 710 l 6
 512 703 509 698 500 694 c 6
 257 555 l 261
 431 396 l 6
 438 392 440 387 438 380 c 6
 378 120 l 6
 376 113 373 112 367 116 c 6
EndSplineSet
EndChar

StartChar: guilsinglright
Encoding: 8250 8250 382
Width: 630
Flags: HW
LayerCount: 2
Fore
SplineSet
277 984 m 2
 575 671 l 2
 581 667 583 662 581 655 c 2
 528 425 l 2
 526 418 522 413 514 409 c 2
 79 126 l 2
 71 122 68 123 70 130 c 2
 130 390 l 2
 132 397 135 402 144 406 c 2
 387 545 l 257
 213 704 l 2
 206 708 204 713 206 720 c 2
 266 980 l 2
 268 987 271 988 277 984 c 2
EndSplineSet
EndChar

StartChar: mu
Encoding: 181 181 385
Width: 582
VWidth: 1920
Flags: HW
LayerCount: 2
Fore
SplineSet
154 1050 m 2
 380 1050 l 2
 387 1050 390 1047 388 1040 c 2
 67 -350 l 2
 65 -357 62 -360 55 -360 c 2
 -171 -360 l 2
 -178 -360 -181 -357 -179 -350 c 2
 142 1040 l 2
 144 1047 147 1050 154 1050 c 2
433 0 m 2
 203 0 l 2
 199 0 197 1 198 5 c 2
 239 182 l 257
 238 195 l 257
 434 1045 l 2
 435 1049 435 1050 439 1050 c 2
 675 1050 l 2
 679 1050 679 1049 678 1045 c 2
 438 5 l 2
 437 1 437 0 433 0 c 2
257 174 m 257
 229 54 190 -18 146 -18 c 260
 92 -18 41 39 77 194 c 258
 273 1045 l 2
 274 1049 276 1050 280 1050 c 2
 384 1050 l 2
 388 1050 390 1049 389 1045 c 2
 198 218 l 258
 186 168 185 148 199 148 c 256
 217 148 235 183 259 288 c 257
 257 174 l 257
EndSplineSet
EndChar

StartChar: Eth
Encoding: 208 208 387
Width: 599
VWidth: 1920
Flags: HW
LayerCount: 2
Fore
SplineSet
-20.1748046875 629 m 14
 18.8251953125 796 l 22
 19.8251953125 800 19.8251953125 801 23.8251953125 801 c 14
 374.825195312 801 l 22
 378.825195312 801 378.825195312 800 377.825195312 796 c 14
 338.825195312 629 l 22
 337.825195312 625 337.825195312 624 333.825195312 624 c 14
 -17.1748046875 624 l 22
 -21.1748046875 624 -21.1748046875 625 -20.1748046875 629 c 14
EndSplineSet
Refer: 15 68 N 1 0 0 1 0 0 2
EndChar

StartChar: Dcroat
Encoding: 272 272 388
Width: 599
VWidth: 1920
Flags: HW
LayerCount: 2
Fore
SplineSet
-20.1748046875 629 m 14
 18.8251953125 796 l 22
 19.8251953125 800 19.8251953125 801 23.8251953125 801 c 14
 374.825195312 801 l 22
 378.825195312 801 378.825195312 800 377.825195312 796 c 14
 338.825195312 629 l 22
 337.825195312 625 337.825195312 624 333.825195312 624 c 14
 -17.1748046875 624 l 22
 -21.1748046875 624 -21.1748046875 625 -20.1748046875 629 c 14
EndSplineSet
Refer: 15 68 N 1 0 0 1 0 0 2
EndChar

StartChar: thorn
Encoding: 254 254 389
Width: 590
VWidth: 960
Flags: HW
LayerCount: 2
Fore
SplineSet
245 1450 m 6
 481 1450 l 6
 485 1450 485 1449 484 1445 c 6
 68 -355 l 6
 67 -359 66 -360 62 -360 c 6
 -173 -360 l 6
 -177 -360 -178 -359 -177 -355 c 6
 239 1445 l 6
 240 1449 241 1450 245 1450 c 6
305 801 m 257
 338 946 412 1067 516 1067 c 256
 624 1067 680 997 641 827 c 258
 502 224 l 258
 463 54 374 -18 266 -18 c 256
 162 -18 144 103 177 248 c 257
 206 244 l 257
 193 189 188 152 212 152 c 256
 236 152 246 179 259 234 c 258
 394 817 l 258
 407 872 408 897 384 897 c 256
 360 897 349 862 336 807 c 257
 305 801 l 257
EndSplineSet
EndChar

StartChar: Thorn
Encoding: 222 222 390
Width: 575
VWidth: 960
Flags: HW
LayerCount: 2
Fore
SplineSet
426 1110 m 6
 600 1108 666 1032 624 851 c 6
 559 569 l 6
 516 384 416 310 272 310 c 6
 232 310 l 5
 161 5 l 2
 160 1 159 0 155 0 c 2
 -80 0 l 2
 -84 0 -85 1 -84 5 c 2
 237 1395 l 2
 238 1399 239 1400 243 1400 c 2
 478 1400 l 2
 482 1400 483 1399 482 1395 c 2
 416 1110 l 5
 426 1110 l 6
260 435 m 5
 270 435 l 6
 308 435 324 459 334 504 c 6
 418 866 l 6
 428 911 424 935 386 935 c 6
 376 935 l 5
 260 435 l 5
EndSplineSet
EndChar

StartChar: divide
Encoding: 247 247 391
Width: 960
VWidth: 2048
Flags: HW
LayerCount: 2
Fore
SplineSet
31 634 m 10
 58 751 l 18
 59 755 60 756 64 756 c 10
 1004 756 l 18
 1008 756 1009 755 1008 751 c 10
 981 634 l 18
 980 630 978 629 974 629 c 10
 34 629 l 18
 30 629 30 630 31 634 c 10
EndSplineSet
Refer: 1 46 S 1 0 0 1 460 906 2
Refer: 1 46 N 1 0 0 1 280 119 2
EndChar

StartChar: multiply
Encoding: 215 215 392
Width: 650
VWidth: 1920
Flags: HW
LayerCount: 2
Fore
SplineSet
567 600 m 10
 431 489 l 18
 429 487 426 487 424 489 c 10
 171 818 l 18
 169 820 170 823 172 825 c 10
 309 936 l 18
 311 938 314 938 316 936 c 10
 568 607 l 18
 570 605 569 602 567 600 c 10
206 489 m 14
 121 600 l 18
 119 602 120 605 122 607 c 10
 527 936 l 18
 529 938 532 938 534 936 c 10
 618 825 l 22
 620 823 619 820 617 818 c 14
 213 489 l 22
 211 487 208 487 206 489 c 14
EndSplineSet
EndChar

StartChar: Oslash
Encoding: 216 216 393
Width: 603
VWidth: 1920
Flags: HW
LayerCount: 2
Fore
SplineSet
622.34375 1478 m 6
 648.34375 1471 l 6
 650.34375 1470 649.34375 1467 648.34375 1464 c 6
 72.34375 -76 l 6
 71.34375 -79 68.34375 -79 65.34375 -78 c 6
 40.34375 -71 l 6
 37.34375 -70 38.34375 -67 39.34375 -64 c 6
 615.34375 1476 l 6
 616.34375 1479 618.34375 1479 622.34375 1478 c 6
EndSplineSet
Refer: 26 79 N 1 0 0 1 0 0 2
EndChar

StartChar: oslash
Encoding: 248 248 394
Width: 561
VWidth: 1920
Flags: HW
LayerCount: 2
Fore
SplineSet
542.806640625 1198 m 6
 567.806640625 1191 l 6
 569.806640625 1190 568.806640625 1187 567.806640625 1184 c 6
 56.806640625 -76 l 6
 55.806640625 -79 52.806640625 -79 49.806640625 -78 c 6
 24.806640625 -71 l 6
 21.806640625 -70 22.806640625 -67 23.806640625 -64 c 6
 534.806640625 1196 l 6
 535.806640625 1199 538.806640625 1199 542.806640625 1198 c 6
EndSplineSet
Refer: 52 111 N 1 0 0 1 0 0 2
EndChar

StartChar: germandbls
Encoding: 223 223 396
Width: 685
VWidth: 1920
Flags: HW
LayerCount: 2
Fore
SplineSet
196 1218 m 2
 236 1390 368 1467 538 1467 c 0
 730 1467 760 1355 738 1261 c 0
 702 1103 666 1061 636 931 c 0
 599 771 705 641 647 391 c 0
 579 95 443 -17 208 -17 c 0
 204 -17 203 -17 204 -13 c 2
 240 143 l 2
 241 147 242 147 246 147 c 0
 314 147 363 245 401 409 c 0
 448 611 348 698 390 878 c 0
 426 1034 458 1113 480 1208 c 0
 496 1278 497 1304 481 1304 c 0
 465 1304 453 1279 433 1193 c 2
 159 5 l 2
 158 1 157 0 153 0 c 2
 -79 0 l 2
 -83 0 -85 1 -84 5 c 2
 196 1218 l 2
EndSplineSet
EndChar

StartChar: eth
Encoding: 240 240 397
Width: 593
VWidth: 1920
Flags: HW
LayerCount: 2
Fore
SplineSet
375 1235 m 14
 365 1277 l 22
 364 1280 365 1282 368 1284 c 14
 710 1494 l 18
 713 1496 715 1495 716 1492 c 10
 726 1450 l 18
 727 1447 724 1445 721 1443 c 10
 381 1233 l 22
 378 1231 376 1232 375 1235 c 14
387 917 m 256
 362 917 349 879 329 793 c 258
 203 249 l 258
 183 164 177 133 201 133 c 256
 235 133 245 172 260 237 c 258
 407 874 l 258
 484 1207 472 1410 345 1470 c 0
 340 1472 339 1477 343 1480 c 10
 473 1607 l 18
 477 1610 480 1612 485 1609 c 0
 675 1513 743 1279 655 896 c 258
 510 269 l 258
 472 104 376 -17 162 -17 c 256
 -49 -17 -79 90 -47 229 c 258
 87 808 l 258
 119 945 173 1067 321 1067 c 256
 425 1067 445 953 423 856 c 257
 381 761 l 257
 396 826 l 258
 413 898 412 917 387 917 c 256
EndSplineSet
EndChar

StartChar: dcroat
Encoding: 273 273 398
Width: 569
VWidth: 1920
Flags: HW
LayerCount: 2
Fore
SplineSet
383.161132812 1171 m 14
 413.161132812 1304 l 22
 414.161132812 1308 416.161132812 1309 420.161132812 1309 c 14
 845.161132812 1309 l 22
 849.161132812 1309 849.161132812 1308 848.161132812 1304 c 14
 818.161132812 1171 l 22
 817.161132812 1167 816.161132812 1166 812.161132812 1166 c 14
 387.161132812 1166 l 22
 383.161132812 1166 382.161132812 1167 383.161132812 1171 c 14
EndSplineSet
Refer: 41 100 N 1 0 0 1 0 0 2
EndChar

StartChar: Hbar
Encoding: 294 294 399
Width: 589
VWidth: 1920
Flags: HW
LayerCount: 2
Fore
SplineSet
87.5625 1039 m 14
 123.5625 1196 l 22
 124.5625 1200 125.5625 1201 129.5625 1201 c 14
 789.5625 1201 l 22
 793.5625 1201 794.5625 1200 793.5625 1196 c 14
 757.5625 1039 l 22
 756.5625 1035 755.5625 1034 751.5625 1034 c 14
 91.5625 1034 l 22
 87.5625 1034 86.5625 1035 87.5625 1039 c 14
EndSplineSet
Refer: 19 72 N 1 0 0 1 0 0 2
EndChar

StartChar: hbar
Encoding: 295 295 400
Width: 561
VWidth: 1920
Flags: HW
LayerCount: 2
Fore
SplineSet
115.930664062 1159 m 14
 151.930664062 1316 l 22
 152.930664062 1320 153.930664062 1321 157.930664062 1321 c 14
 527.930664062 1321 l 22
 531.930664062 1321 532.930664062 1320 531.930664062 1316 c 14
 495.930664062 1159 l 22
 494.930664062 1155 492.930664062 1154 488.930664062 1154 c 14
 118.930664062 1154 l 22
 114.930664062 1154 114.930664062 1155 115.930664062 1159 c 14
EndSplineSet
Refer: 45 104 N 1 0 0 1 0 0 2
EndChar

StartChar: Lslash
Encoding: 321 321 405
Width: 454
VWidth: 1920
Flags: HW
LayerCount: 2
Fore
SplineSet
488 1024 m 6
 497 998 l 6
 498 995 497 993 494 991 c 6
 29 754 l 6
 26 752 24 753 23 756 c 6
 14 782 l 6
 13 785 14 787 17 789 c 6
 482 1026 l 6
 485 1028 487 1027 488 1024 c 6
EndSplineSet
Refer: 23 76 N 1 0 0 1 0 0 2
EndChar

StartChar: lslash
Encoding: 322 322 406
Width: 280
VWidth: 1920
Flags: HW
LayerCount: 2
Fore
SplineSet
468 1024 m 6
 477 998 l 6
 478 995 477 993 474 991 c 6
 9 754 l 6
 6 752 4 753 3 756 c 6
 -6 782 l 6
 -7 785 -6 787 -3 789 c 6
 462 1026 l 6
 465 1028 467 1027 468 1024 c 6
EndSplineSet
Refer: 49 108 N 1 0 0 1 0 0 2
EndChar

StartChar: eng
Encoding: 331 331 408
Width: 580
VWidth: 960
Flags: HW
LayerCount: 2
Fore
SplineSet
152 1050 m 2
 382 1050 l 2
 386 1050 387 1049 386 1045 c 2
 346 869 l 257
 347 855 l 257
 151 5 l 2
 150 1 149 0 145 0 c 2
 -90 0 l 2
 -94 0 -95 1 -94 5 c 2
 146 1045 l 2
 147 1049 148 1050 152 1050 c 2
397 -179 m 6
 356 -358 233 -370 42 -356 c 0
 38 -356 36 -354 37 -350 c 2
 67 -220 l 2
 68 -217 70 -215 73 -216 c 0
 116 -225 145 -208 160 -144 c 2
 385 831 l 2
 397 881 397 903 383 903 c 0
 365 903 350 866 326 761 c 1
 327 877 l 1
 355 997 443 1067 537 1067 c 0
 641 1067 672 1012 636 857 c 2
 397 -179 l 6
EndSplineSet
EndChar

StartChar: Eng
Encoding: 330 330 409
Width: 590
VWidth: 960
Flags: HW
LayerCount: 2
Fore
SplineSet
588 1400 m 2
 763 1400 l 2
 767 1400 768 1399 767 1395 c 1
 404 -179 l 6
 363 -358 240 -370 49 -356 c 0
 45 -356 43 -354 44 -350 c 2
 74 -220 l 2
 75 -217 77 -215 80 -216 c 0
 123 -225 152 -208 167 -144 c 2
 263 271 l 1
 255 715 l 1
 91 5 l 2
 90 1 89 0 85 0 c 2
 -90 0 l 2
 -94 0 -95 1 -94 5 c 2
 227 1395 l 2
 228 1399 229 1400 233 1400 c 2
 448 1400 l 2
 452 1400 454 1399 456 1395 c 2
 429 734 l 1
 582 1395 l 2
 583 1399 584 1400 588 1400 c 2
EndSplineSet
EndChar

StartChar: oe
Encoding: 339 339 410
Width: 864
VWidth: 960
Flags: HW
LayerCount: 2
Fore
SplineSet
-37 274 m 262
 79 777 l 262
 124 972 228 1067 366 1067 c 260
 544 1067 594 972 549 777 c 262
 433 274 l 262
 388 79 294 -18 116 -18 c 260
 -22 -18 -82 79 -37 274 c 262
196 209 m 262
 182 149 180 122 198 122 c 260
 216 122 227 149 241 209 c 262
 387 841 l 262
 401 901 402 927 384 927 c 260
 366 927 356 901 342 841 c 262
 196 209 l 262
820 414 m 4
 767 185 720 -18 488 -18 c 260
 314 -18 280 69 327 274 c 262
 443 777 l 262
 489 977 560 1067 738 1067 c 260
 910 1067 937 986 902 776 c 4
 889 698 867 602 840 485 c 4
 840 483 839 481 835 481 c 6
 443 481 l 261
 462 565 l 261
 616 565 l 261
 693 906 700 927 676 927 c 260
 658 927 648 901 634 841 c 262
 488 209 l 262
 471 134 473 122 489 122 c 260
 508 122 531 185 585 414 c 4
 585 416 588 418 591 418 c 6
 817 418 l 6
 821 418 821 417 820 414 c 4
EndSplineSet
EndChar

StartChar: OE
Encoding: 338 338 411
Width: 745
VWidth: 1920
Flags: HW
LayerCount: 2
Fore
SplineSet
540 1400 m 262
 783 1400 l 262
 787 1400 788 1399 787 1395 c 262
 466 5 l 262
 465 1 464 0 460 0 c 262
 217 0 l 262
 10 0 -69 115 -1 408 c 262
 134 991 l 262
 202 1284 313 1400 540 1400 c 262
480 1225 m 262
 448 1225 427 1180 385 996 c 262
 248 404 l 262
 206 220 205 175 237 175 c 262
 260 175 l 261
 503 1225 l 261
 480 1225 l 262
EndSplineSet
Refer: 16 69 N 1 0 0 1 305 0 2
EndChar

StartChar: Tbar
Encoding: 358 358 413
Width: 533
VWidth: 1920
Flags: HW
LayerCount: 2
Fore
SplineSet
65 594 m 14
 89 701 l 22
 90 705 92 706 96 706 c 14
 531 706 l 22
 535 706 535 705 534 701 c 14
 510 594 l 22
 509 590 507 589 503 589 c 14
 68 589 l 22
 64 589 64 590 65 594 c 14
EndSplineSet
Refer: 31 84 N 1 0 0 1 0 0 2
EndChar

StartChar: tbar
Encoding: 359 359 414
Width: 344
VWidth: 1920
Flags: HW
LayerCount: 2
Fore
SplineSet
-18 524 m 14
 7 631 l 22
 8 635 9 636 13 636 c 14
 353 636 l 22
 357 636 358 635 357 631 c 14
 332 524 l 22
 331 520 330 519 326 519 c 14
 -14 519 l 22
 -18 519 -19 520 -18 524 c 14
EndSplineSet
Refer: 57 116 N 1 0 0 1 0 0 2
EndChar

StartChar: florin
Encoding: 402 402 415
Width: 295
VWidth: 960
Flags: HW
LayerCount: 2
Fore
SplineSet
430 930 m 2
 95 930 l 2
 91 930 90 931 91 935 c 2
 116 1045 l 2
 117 1049 118 1050 122 1050 c 2
 457 1050 l 2
 461 1050 462 1049 461 1045 c 2
 436 935 l 2
 435 931 434 930 430 930 c 2
182 1199 m 2
 231 1411 319 1511 478 1511 c 0
 717 1511 678 1340 643 1247 c 0
 641 1242 638 1240 631 1240 c 2
 495 1240 l 2
 488 1240 486 1243 487 1247 c 0
 501 1291 523 1344 493 1344 c 0
 465 1344 447 1285 427 1200 c 2
 376 980 l 2
 374 973 371 970 364 970 c 2
 139 970 l 2
 132 970 129 973 131 980 c 2
 182 1199 l 2
136 -59 m 6
 87 -271 -1 -371 -160 -371 c 4
 -399 -371 -360 -200 -325 -107 c 4
 -323 -102 -320 -100 -313 -100 c 6
 -177 -100 l 6
 -170 -100 -168 -103 -169 -107 c 4
 -183 -151 -205 -204 -175 -204 c 4
 -147 -204 -129 -145 -109 -60 c 6
 140 1020 l 6
 142 1027 146 1030 153 1030 c 6
 378 1030 l 6
 385 1030 387 1027 385 1020 c 6
 136 -59 l 6
EndSplineSet
EndChar

StartChar: uni0394
Encoding: 916 916 430
Width: 562
VWidth: 960
Flags: HW
LayerCount: 2
Fore
SplineSet
-126 0 m 6
 -128 0 -132 0 -129 5 c 2
 342 1395 l 2
 345 1399 347 1400 349 1400 c 2
 639 1400 l 2
 642 1400 645 1399 645 1395 c 2
 458 5 l 2
 458 4 459 0 454 0 c 6
 -126 0 l 6
108 125 m 1
 221 125 l 1
 401 1089 l 1
 108 125 l 1
EndSplineSet
EndChar

StartChar: uni03A9
Encoding: 937 937 431
Width: 636
VWidth: 1920
Flags: HW
LayerCount: 2
Fore
SplineSet
260 185 m 0
 295 217 312 289 333 379 c 2
 502 1111 l 2
 521 1195 533 1247 486 1247 c 4
 439 1247 425 1195 406 1111 c 2
 237 379 l 2
 216 289 203 221 223 185 c 0
 227 179 229 181 228 175 c 2
 189 5 l 2
 188 1 187 0 183 0 c 2
 -92 0 l 2
 -96 0 -97 1 -96 5 c 2
 -57 172 l 2
 -56 176 -55 177 -51 177 c 2
 121 177 l 1
 29 215 -26 322 -2 424 c 2
 163 1141 l 2
 208 1334 309 1417 525 1417 c 4
 741 1417 804 1334 759 1141 c 2
 594 424 l 2
 570 322 464 215 355 177 c 1
 529 177 l 2
 533 177 534 176 533 172 c 2
 494 5 l 2
 493 1 492 0 488 0 c 2
 213 0 l 2
 209 0 208 1 209 5 c 2
 248 175 l 2
 249 181 252 178 260 185 c 0
EndSplineSet
EndChar

StartChar: pi
Encoding: 960 960 432
Width: 760
VWidth: 1920
Flags: HW
LayerCount: 2
Fore
SplineSet
454 1020 m 2
 220 5 l 2
 219 1 218 0 214 0 c 2
 -21 0 l 2
 -25 0 -26 1 -25 5 c 2
 209 1020 l 2
 210 1024 212 1025 216 1025 c 2
 451 1025 l 2
 455 1025 455 1024 454 1020 c 2
667 160 m 2
 631 5 l 2
 630 1 629 0 625 0 c 0
 374 -29 297 22 333 176 c 258
 517 975 l 2
 518 979 520 980 524 980 c 2
 756 980 l 2
 760 980 761 979 760 975 c 2
 584 211 l 258
 572 157 612 156 664 165 c 0
 667 166 668 163 667 160 c 2
93 878 m 10
 131 1045 l 18
 132 1049 133 1050 137 1050 c 10
 862 1050 l 18
 866 1050 867 1049 866 1045 c 10
 828 878 l 18
 827 874 826 873 822 873 c 10
 97 873 l 18
 93 873 92 874 93 878 c 10
EndSplineSet
EndChar

StartChar: minute
Encoding: 8242 8242 433
Width: 280
VWidth: 1920
Flags: HW
LayerCount: 2
Fore
SplineSet
203 930 m 2
 127 930 l 2
 123 930 124 934 126 940 c 2
 245 1410 l 2
 248 1417 249 1420 253 1420 c 2
 493 1420 l 2
 497 1420 498 1416 495 1410 c 2
 213 940 l 2
 210 934 207 930 203 930 c 2
EndSplineSet
EndChar

StartChar: Euro
Encoding: 8364 8364 435
Width: 560
VWidth: 1920
Flags: HW
LayerCount: 2
Fore
SplineSet
-27 554 m 10
 -4 656 l 18
 -3 660 -1 661 3 661 c 10
 423 661 l 18
 427 661 427 660 426 656 c 10
 403 554 l 18
 402 550 401 549 397 549 c 10
 -23 549 l 18
 -27 549 -28 550 -27 554 c 10
13 729 m 10
 37 831 l 18
 38 835 39 836 43 836 c 10
 463 836 l 18
 467 836 468 835 467 831 c 10
 443 729 l 18
 442 725 441 724 437 724 c 10
 17 724 l 18
 13 724 12 725 13 729 c 10
535 453 m 260
 449 93 372 -18 148 -18 c 260
 -56 -18 -69 109 -14 349 c 262
 146 1042 l 262
 199 1272 275 1418 489 1418 c 260
 738 1418 707 1275 652 1026 c 260
 651 1022 650 1022 646 1022 c 262
 472 1022 l 262
 468 1022 466 1022 467 1026 c 260
 494 1149 513 1218 473 1218 c 260
 438 1218 423 1161 396 1046 c 262
 227 314 l 262
 204 214 201 182 234 182 c 260
 271 182 284 212 340 453 c 260
 341 457 342 458 346 458 c 262
 531 458 l 262
 535 458 536 457 535 453 c 260
EndSplineSet
EndChar

StartChar: uni2116
Encoding: 8470 8470 436
Width: 974
VWidth: 1920
Flags: HW
LayerCount: 2
Fore
SplineSet
496 5 m 10
 523 122 l 18
 524 126 526 127 530 127 c 10
 857 127 l 18
 861 127 863 126 862 122 c 10
 835 5 l 18
 834 1 832 0 828 0 c 10
 501 0 l 18
 497 0 495 1 496 5 c 10
EndSplineSet
Refer: 132 8304 S 1 0 0 1 520 -295 2
Refer: 25 78 N 1 0 0 1 0 0 2
EndChar

StartChar: trademark
Encoding: 8482 8482 437
Width: 834
VWidth: 1920
Flags: HW
LayerCount: 2
Fore
SplineSet
216 1400 m 6
 537 1400 l 6
 539 1400 540 1399 540 1397 c 6
 517 1298 l 6
 517 1296 515 1295 513 1295 c 6
 426 1295 l 261
 257 563 l 6
 257 561 255 560 253 560 c 6
 112 560 l 6
 110 560 110 561 110 563 c 6
 279 1295 l 261
 192 1295 l 6
 190 1295 190 1296 190 1298 c 6
 213 1397 l 6
 213 1399 214 1400 216 1400 c 6
637 1229 m 257
 483 563 l 2
 483 561 481 560 479 560 c 2
 380 560 l 2
 378 560 378 561 378 563 c 2
 571 1397 l 2
 571 1399 572 1400 574 1400 c 2
 754 1400 l 2
 756 1400 757 1399 758 1397 c 2
 694 946 l 257
 843 1397 l 2
 844 1399 845 1400 847 1400 c 2
 1024 1400 l 2
 1026 1400 1027 1399 1027 1397 c 2
 834 563 l 2
 834 561 832 560 830 560 c 2
 695 560 l 2
 693 560 693 561 693 563 c 2
 847 1229 l 257
 629 563 l 2
 628 561 626 560 624 560 c 2
 546 560 l 2
 544 560 544 561 543 563 c 2
 637 1229 l 257
EndSplineSet
EndChar

StartChar: partialdiff
Encoding: 8706 8706 438
Width: 577
VWidth: 1920
Flags: HW
LayerCount: 2
Fore
SplineSet
334 732 m 256
 319 732 312 716 302 674 c 258
 195 214 l 258
 186 174 186 158 206 158 c 256
 220 158 230 176 242 226 c 258
 372 789 l 258
 460 1172 448 1305 321 1365 c 0
 316 1367 316 1368 319 1372 c 2
 428 1518 l 2
 431 1522 430 1522 437 1520 c 0
 655 1439 712 1210 606 752 c 258
 494 268 l 262
 456 103 390 -18 162 -18 c 256
 -34 -18 -89 44 -47 228 c 258
 44 624 l 258
 86 806 161 882 289 882 c 256
 387 882 408 818 386 721 c 257
 345 671 l 257
 347 681 l 258
 355 717 349 732 334 732 c 256
EndSplineSet
EndChar

StartChar: summation
Encoding: 8721 8721 439
Width: 564
VWidth: 1920
Flags: HW
LayerCount: 2
Fore
SplineSet
513 512 m 10
 188 -185 l 1
 396 -185 l 18
 400 -185 401 -186 400 -190 c 10
 362 -355 l 18
 361 -359 360 -360 356 -360 c 10
 -164 -360 l 18
 -168 -360 -166 -359 -164 -355 c 10
 246 520 l 1
 240 1395 l 18
 240 1399 238 1400 242 1400 c 10
 762 1400 l 18
 766 1400 767 1399 766 1395 c 10
 728 1230 l 18
 727 1226 726 1225 722 1225 c 10
 514 1225 l 1
 517 528 l 18
 517 521 516 519 513 512 c 10
EndSplineSet
EndChar

StartChar: minus
Encoding: 8722 8722 440
Width: 584
Flags: HW
LayerCount: 2
Fore
SplineSet
42 419 m 10
 80 586 l 18
 81 590 81 591 85 591 c 10
 531 591 l 18
 535 591 535 590 534 586 c 10
 496 419 l 18
 495 415 495 414 491 414 c 10
 45 414 l 18
 41 414 41 415 42 419 c 10
EndSplineSet
EndChar

StartChar: integral
Encoding: 8747 8747 441
Width: 335
VWidth: 960
Flags: HW
LayerCount: 2
Fore
SplineSet
121 -179 m 6
 80 -358 -43 -370 -234 -356 c 0
 -238 -356 -240 -354 -239 -350 c 2
 -209 -220 l 2
 -208 -217 -206 -215 -203 -216 c 0
 -160 -225 -128 -208 -113 -144 c 2
 223 1313 l 2
 250 1432 349 1469 546 1440 c 0
 551 1439 552 1438 551 1434 c 2
 521 1304 l 2
 520 1301 518 1299 512 1300 c 0
 476 1308 461 1296 451 1253 c 2
 121 -179 l 6
EndSplineSet
EndChar

StartChar: radical
Encoding: 8730 8730 443
Width: 611
VWidth: 1920
Flags: HMW
LayerCount: 2
Fore
SplineSet
313 1049 m 2
 317 1049 319 1047 319 1044 c 2
 291 413 l 1
 646 1595 l 2
 647 1599 648 1600 652 1600 c 2
 854 1600 l 2
 858 1600 861 1598 859 1595 c 2
 173 -147 l 2
 171 -151 171 -151 170 -147 c 2
 163 874 l 1
 93 874 l 2
 89 874 87 875 88 879 c 2
 126 1044 l 2
 127 1048 129 1049 133 1049 c 2
 313 1049 l 2
EndSplineSet
EndChar

StartChar: infinity
Encoding: 8734 8734 444
Width: 716
Flags: HMW
LayerCount: 2
Fore
SplineSet
193 492 m 4
 88 492 39 577 61 674 c 0
 83 771 171 854 276 854 c 4
 383 854 403 804 413 754 c 1
 447 804 483 854 595 854 c 4
 700 854 749 771 727 674 c 0
 705 577 617 492 512 492 c 4
 400 492 375 537 376 592 c 1
 340 537 300 492 193 492 c 4
248 620 m 0
 282 620 316 637 352 674 c 1
 335 710 307 727 273 727 c 0
 233 727 208 709 200 674 c 0
 192 640 208 620 248 620 c 0
515 620 m 4
 555 620 580 640 588 674 c 4
 596 709 580 727 540 727 c 4
 511 727 470 710 437 674 c 1
 444 638 486 620 515 620 c 4
EndSplineSet
EndChar

StartChar: product
Encoding: 8719 8719 445
Width: 600
VWidth: 1920
Flags: HW
LayerCount: 2
Fore
SplineSet
763 1400 m 2
 767 1400 768 1399 767 1395 c 2
 446 5 l 2
 445 1 444 0 440 0 c 2
 205 0 l 2
 201 0 200 1 201 5 c 2
 483 1225 l 257
 443 1225 l 257
 161 5 l 2
 160 1 159 0 155 0 c 2
 -80 0 l 2
 -84 0 -85 1 -84 5 c 2
 237 1395 l 18
 238 1399 239 1400 243 1400 c 10
 763 1400 l 2
EndSplineSet
EndChar

StartChar: uni2219
Encoding: 8729 8729 446
Width: 274
Flags: HW
LayerCount: 2
Fore
SplineSet
60 675 m 4
 60 741 106 788 172 788 c 4
 238 788 284 741 284 675 c 4
 284 609 242 562 176 562 c 4
 110 562 60 609 60 675 c 4
EndSplineSet
EndChar

StartChar: approxequal
Encoding: 8776 8776 447
Width: 1180
VWidth: 1920
Flags: HW
LayerCount: 2
Fore
SplineSet
536 562 m 260
 495 562 476 535 470 519 c 4
 469 516 467 514 464 514 c 6
 349 514 l 6
 345 514 344 516 345 519 c 4
 369 613 451 695 551 695 c 260
 615 695 639 634 680 634 c 260
 721 634 740 661 746 677 c 4
 747 680 749 682 752 682 c 6
 867 682 l 6
 871 682 872 681 871 677 c 4
 847 583 775 501 665 501 c 260
 601 501 587 562 536 562 c 260
491 367 m 260
 450 367 431 340 425 324 c 4
 424 321 422 319 419 319 c 6
 304 319 l 6
 300 319 299 321 300 324 c 4
 324 418 406 500 506 500 c 260
 570 500 594 439 635 439 c 260
 676 439 695 466 701 482 c 4
 702 485 704 487 707 487 c 6
 822 487 l 6
 826 487 827 486 826 482 c 4
 802 388 755 306 645 306 c 260
 581 306 542 367 491 367 c 260
EndSplineSet
EndChar

StartChar: notequal
Encoding: 8800 8800 448
Width: 590
VWidth: 1920
Flags: HW
LayerCount: 2
Fore
SplineSet
569 780 m 6
 585 759 l 6
 587 757 586 754 584 752 c 6
 26 210 l 6
 24 208 21 208 19 210 c 6
 3 231 l 6
 1 233 3 236 5 238 c 6
 562 780 l 6
 564 782 567 782 569 780 c 6
EndSplineSet
Refer: 83 61 N 1 0 0 1 0 0 2
EndChar

StartChar: lessequal
Encoding: 8804 8804 449
Width: 500
VWidth: 1920
Flags: HW
LayerCount: 2
Fore
SplineSet
5 325 m 14
 38 468 l 22
 39 472 40 473 44 473 c 14
 454 473 l 22
 458 473 459 472 458 468 c 14
 425 325 l 22
 424 321 423 320 419 320 c 14
 9 320 l 22
 5 320 4 321 5 325 c 14
EndSplineSet
Refer: 84 60 N 1 0 0 1 40 230 2
EndChar

StartChar: greaterequal
Encoding: 8805 8805 450
Width: 500
VWidth: 1920
Flags: HW
LayerCount: 2
Fore
SplineSet
-5 325 m 14
 28 468 l 22
 29 472 30 473 34 473 c 14
 444 473 l 22
 448 473 449 472 448 468 c 14
 415 325 l 22
 414 321 413 320 409 320 c 14
 -1 320 l 22
 -5 320 -6 321 -5 325 c 14
EndSplineSet
Refer: 85 62 N 1 0 0 1 -40 230 2
EndChar

StartChar: lozenge
Encoding: 9674 9674 451
Width: 581
Flags: HW
LayerCount: 2
Fore
SplineSet
182 40 m 6
 60 702 l 6
 60 710 61 714 65 722 c 6
 492 1382 l 6
 497 1391 497 1392 498 1382 c 6
 609 722 l 6
 609 714 608 710 604 702 c 6
 188 40 l 6
 183 30 183 31 182 40 c 6
278 454 m 5
 403 712 l 5
 397 970 l 5
 265 712 l 5
 278 454 l 5
EndSplineSet
EndChar

StartChar: uniF8EA
Encoding: 63722 63722 452
Width: 630
VWidth: 1920
Flags: HW
LayerCount: 2
Fore
SplineSet
242 1400 m 6
 470 1400 l 6
 471 1400 472 1399 472 1398 c 6
 458 1339 l 6
 458 1338 457 1337 456 1337 c 6
 386 1337 l 261
 342 1150 l 6
 342 1149 341 1148 340 1148 c 6
 256 1148 l 6
 255 1148 254 1149 254 1150 c 6
 298 1337 l 261
 228 1337 l 6
 227 1337 226 1338 226 1339 c 6
 240 1398 l 6
 240 1399 241 1400 242 1400 c 6
527 1298 m 261
 492 1150 l 6
 492 1149 491 1148 490 1148 c 6
 430 1148 l 6
 429 1148 428 1149 428 1150 c 6
 486 1398 l 6
 486 1399 487 1400 488 1400 c 6
 596 1400 l 6
 597 1400 598 1399 598 1398 c 6
 613 1272 l 261
 690 1398 l 6
 690 1399 691 1400 692 1400 c 6
 794 1400 l 6
 795 1400 796 1399 796 1398 c 6
 738 1150 l 6
 738 1149 737 1148 736 1148 c 6
 656 1148 l 6
 655 1148 654 1149 654 1150 c 6
 689 1298 l 261
 600 1150 l 6
 600 1149 599 1148 598 1148 c 6
 551 1148 l 6
 550 1148 548 1149 548 1150 c 6
 527 1298 l 261
EndSplineSet
EndChar

StartChar: uniF8E8
Encoding: 63720 63720 453
Width: 492
Flags: HW
LayerCount: 2
Fore
SplineSet
396 1275 m 261
 383 1219 l 261
 401 1219 l 262
 424 1219 432 1230 436 1246 c 262
 436 1247 l 262
 439 1261 437 1275 414 1275 c 262
 396 1275 l 261
447 1337 m 262
 520 1337 539 1304 529 1262 c 262
 528 1258 l 262
 518 1215 472 1189 413 1189 c 261
 415 1201 l 261
 479 1201 516 1195 506 1152 c 262
 504 1145 l 262
 499 1125 502 1109 507 1097 c 4
 509 1095 507 1094 507 1093 c 6
 506 1087 l 6
 506 1086 504 1085 503 1085 c 6
 413 1085 l 6
 412 1085 412 1085 411 1087 c 4
 405 1105 408 1129 412 1145 c 262
 414 1152 l 262
 417 1166 414 1173 395 1173 c 262
 373 1173 l 261
 353 1087 l 6
 353 1086 351 1085 350 1085 c 6
 266 1085 l 6
 265 1085 265 1086 265 1087 c 6
 322 1335 l 6
 322 1336 324 1337 325 1337 c 6
 447 1337 l 262
614 1207 m 4
 587 1092 472 999 357 999 c 4
 242 999 169 1092 196 1207 c 4
 223 1322 338 1417 453 1417 c 4
 568 1417 641 1322 614 1207 c 4
589 1207 m 4
 613 1309 549 1391 447 1391 c 4
 345 1391 245 1309 221 1207 c 4
 197 1105 261 1025 363 1025 c 4
 465 1025 565 1105 589 1207 c 4
EndSplineSet
EndChar

StartChar: uniF8E9
Encoding: 63721 63721 454
Width: 492
Flags: HW
LayerCount: 2
Fore
SplineSet
525 1190 m 260
 507 1130 460 1076 376 1076 c 260
 288 1076 263 1125 279 1193 c 262
 286 1223 l 262
 302 1291 350 1341 438 1341 c 260
 522 1341 540 1288 531 1239 c 260
 531 1237 530 1237 529 1237 c 262
 466 1237 l 262
 465 1237 464 1237 464 1239 c 260
 469 1261 459 1279 433 1279 c 260
 407 1279 386 1263 377 1225 c 262
 369 1192 l 262
 360 1152 372 1137 402 1137 c 260
 432 1137 451 1157 459 1190 c 260
 459 1192 460 1192 461 1192 c 262
 523 1192 l 262
 524 1192 525 1192 525 1190 c 260
614 1207 m 4
 587 1092 472 999 357 999 c 4
 242 999 169 1092 196 1207 c 4
 223 1322 338 1417 453 1417 c 4
 568 1417 641 1322 614 1207 c 4
589 1207 m 4
 613 1309 549 1391 447 1391 c 4
 345 1391 245 1309 221 1207 c 4
 197 1105 261 1025 363 1025 c 4
 465 1025 565 1105 589 1207 c 4
EndSplineSet
EndChar

StartChar: uni1E9E
Encoding: 7838 7838 457
Width: 611
VWidth: 1920
Flags: HW
LayerCount: 2
Fore
SplineSet
160 1063 m 2
 214 1295 310 1417 495 1417 c 0
 681 1417 722 1254 713 1085 c 0
 712 1074 710 1057 707 1048 c 2
 576 738 l 1
 594 688 622 614 575 409 c 0
 504 102 416 -18 296 -18 c 0
 247 -18 227 -12 191 8 c 0
 180 14 179 14 180 18 c 2
 217 178 l 2
 218 183 220 184 228 179 c 0
 233 175 237 174 243 174 c 0
 256 174 287 221 336 435 c 0
 372 593 371 641 336 676 c 0
 330 683 330 688 333 698 c 2
 459 1053 l 1
 480 1209 483 1246 465 1246 c 0
 451 1246 439 1219 427 1167 c 2
 159 5 l 2
 158 1 156 0 152 0 c 2
 -80 0 l 2
 -84 0 -85 1 -84 5 c 2
 160 1063 l 2
EndSplineSet
EndChar
